<svg viewBox="0 0 24 24" xmlns="http://www.w3.org/2000/svg" aria-hidden="true" fill="currentColor" width="24"><path fill-rule="evenodd" clip-rule="evenodd" d="M12 2.75a3.25 3.25 0 1 0 0 6.5 3.25 3.25 0 0 0 0-6.5ZM7.25 6a4.75 4.75 0 1 1 9.5 0 4.75 4.75 0 0 1-9.5 0Zm-4 12.8a5.55 5.55 0 0 1 5.55-5.55h6.4a5.55 5.55 0 0 1 5.55 5.55 3.95 3.95 0 0 1-3.95 3.95H7.2a3.95 3.95 0 0 1-3.95-3.95Zm5.55-4.05a4.05 4.05 0 0 0-4.05 4.05c0 1.35 1.1 2.45 2.45 2.45h9.6c1.35 0 2.45-1.1 2.45-2.45a4.05 4.05 0 0 0-4.05-4.05H8.8Z"></path></svg>