<svg id="Layer_1" xmlns="http://www.w3.org/2000/svg" xmlns:xlink="http://www.w3.org/1999/xlink" x="0px" y="0px" viewBox="0 0 445.42 311.27" xml:space="preserve" aria-hidden="true" variant="active" class="sc-62d76f46-5 dOrBBr"><style type="text/css">
	.st0{fill:#CCDFFF;stroke:#000000;stroke-width:0.75;stroke-miterlimit:10;}
	.st1{fill:#FFFFFF;stroke:#000000;stroke-width:0.75;stroke-linecap:round;stroke-miterlimit:10;}
	.st2{fill:none;stroke:#000000;stroke-width:0.75;stroke-linecap:round;stroke-miterlimit:10;}
	.st3{fill:#FFFFFF;}
	.st4{fill:#F8FF6E;stroke:#000000;stroke-width:0.75;stroke-linecap:round;stroke-miterlimit:10;}
	.st5{fill:#0564FF;stroke:#000000;stroke-width:0.75;stroke-linecap:round;stroke-miterlimit:10;}
	.st6{stroke:#000000;stroke-width:0.75;stroke-linecap:round;stroke-miterlimit:10;}
	.st7{fill:#0564FF;}
	.st8{fill:#CCDFFF;}
</style><path class="st0" d="M199.47,141.74l-1.39,1.76c-1.38,1.74-1.3,4.34,0.17,5.98c2.94,3.28,2,2.79,8.96,2.36 c5.05-0.31,5.9-11.69,11.2-10.29c3.12,0.82,5.42,1.02,7.02,3.8c1.17,2.05,3.26,3.27,5.48,3.21c16.95-0.49,16.55-1.15,17.98,1.52 c1.77,3.27,0.98,7.46-1.81,9.72c-3.53,2.85-1.38,2.42-17.86-0.12c-6.05-0.93-7.18-7.25-12.98-6.29 c-19.77,3.26-17.34,2.13-28.64,18.67c-3.83,5.61-2.71,10.57-2.11,17.66c0.11,1.35,0.78,2.57,1.81,3.32 c16.13,11.78,30.51,2.55,33.76,11.19c2.02,5.36,1.57,2.14,1.12,19.81c-0.31,12.19,3.25,20.02,3.2,23.54 c-0.06,3.2,1.12,4.41,6.06,13.04c0.59,1.03,1.77,1.44,2.8,0.96c7.7-3.54,8.02-3.49,9.03-4.75c7.54-9.35,6.97-8.44,8.96-19.25 c0.25-1.38,0.99-2.6,2.06-3.39c5.6-4.15,5.65-3.74,5.42-9.05c-0.1-2.22-0.4-4.42-0.91-6.57c-0.68-2.87,0.12-5.92,2.08-7.98 c12.56-13.17,11.6-10.8,10.36-15.16c-0.95-3.36-6.97-2.52-10.3-9.62c-7.26-15.43-5.76-14.05-11.49-16.99 c-1.58-0.81-1.92,0.96-2.81-2.31c-0.18-0.68,0.4-1.32,1.03-1.12c2.94,0.94,3.03,0.97,5.01,2.62c0.57,0.47,1.37-0.06,1.24-0.83 l-0.9-5.3c-0.37-2.18,3.4-1.68,3.78,1.24c1.43,10.55-0.29,6.38,10.23,20.74c1.27,1.74,2.88,0.83,5.63,0 c4.96-1.48,7.57-3.91,11.08-6.73c0.85-0.68,0.62-2.12-0.39-2.45l-2.05-0.66c-0.65-0.21-0.89-1.06-0.47-1.63 c1.33-1.81,2.19-2.03,8.67-5.51c4.53-2.44,2.99,5.84,17.44,23.41c1.17,1.42,2.44,1.01,4.84,0.79c6.35-0.6,6.97-10.04,11.71-11.87 c5.69-2.19,5.37-1.65,10.62,4.22c8.57,9.6,3.24,17.74,7.33,19.64c1.19,0.56,2.57-0.05,3.08-1.35c1.29-3.35,1.08-2.88,4.19-5.39 c1.85-1.5,2.24-3.2,2.92-5.2c0.87-2.55-0.71-3.97-2.12-5.57c-2.91-3.3-2.06-9.45,2.11-10.26c10.47-2.05,9.54-1.3,13.68-7.16 c3.28-4.63-2.5-9.95,2.76-15.57c2.44-2.6,7.36,1.28,10.3-2.48c7.67-9.79,8.3-11.25,12.56-20.67c1.6-3.55-1.7-5.23-0.66-10.99 c0.91-5.08,0.22-4.16,7.11-6.81c6.05-2.32,10.38,4.87,13.56,2.01c0.54-0.48,1.35-0.07,1.35,0.7v9.52c0,3.37,6.25,1.14,10.85-7.1 c4.74-8.5,4.04-7.73,11.17-11.17c6.46-3.12,8.38-8.4,10.36-12.73c1.42-3.09-1.1-6.61-4.21-5.84c-12.19,3-9.49,2.96-19.17,1 c-2.06-0.42-2.9-4.29-6.12-3.42c-6.67,1.8-5.77,1.86-10.76-1.15c-10.32-6.22-19.59,1.39-29.86-3.52l-20.3-9.71 c-6.18-2.95-13.2-3-19.41-0.14c-18.76,8.65-18.82,9.59-31.49,9.52c-1.73-0.01-2.5,1.24-3.29,2.21c-2.31,2.85-0.86,5.84,0.23,9.79 c0.22,0.79-0.44,1.53-1.17,1.31c-3.92-1.15-6.02-5.74-8.89-5.31c-20.17,3.01-24.67,12.53-32.04,9.77c-0.61-0.22-0.83-1.03-0.43-1.57 l0.83-1.13c1.01-1.37,0.62-3.4-0.8-4.22c-8.93-5.15-7.46-5.48-13.66-0.63c-3.1,2.43-2.82,4.19-6.4,21.39 c-1.06,5.08-4.88,9.16-9.87,9.97c-14.09,2.29-12.06,1.34-21.62,8.99c-3.29,2.63,0.77,7.35-2.04,9.29c-1.75,1.2-2.16,1.65-3.03,1.55 C200.51,140.94,199.88,141.21,199.47,141.74L199.47,141.74z"></path><path class="st1" d="M414.74,12.82H273.09c-0.64,0-1.16,0.57-1.16,1.27v88.3c0,0.7,0.52,1.27,1.16,1.27h141.66 c0.64,0,1.16-0.57,1.16-1.27v-88.3C415.91,13.38,415.39,12.82,414.74,12.82z"></path><path class="st0" d="M22.38,122.14L3.14,133.89c-1.77,1.08-2.97-2.87-1.09-5.13c5.42-6.51,5.25-4.59-0.66-16.15 c-1.51-2.95-1.33-6.59,0.48-9.35c1.93-2.95,4.1-7.05,9.45-6.43l23.47,2.71c8.08,0.94,11.94-5.79,20.62-1.96 c22.69,10.01,16.11,9.53,39.51,3.37c2.49-0.66,5.11-0.19,7.28,1.29c5.57,3.8,7.07,4.39,8.23,7.1c0.59,1.38-0.23,2.98-1.61,3.16 c-8.24,1.1-7.54,0.91-11.27,7.71c-1.53,2.8-0.79,6.41,1.7,8.22l9.64,7.04c1.85,1.35,4.38,0.25,4.86-2.12 c2.69-13.2,1.77-13.71,8.96-14.95c1.75-0.3,3.46,0.76,4.12,2.55l0.52,1.41c0.49,1.33,1.93,1.89,3.08,1.2l1.23-0.74 c1.53-0.92,3.46-0.45,4.48,1.1l7.15,10.9c1.15,1.75,0.46,4.21-1.39,4.97l-2.39,0.98c-2.89,1.18-3.62,5.26-1.36,7.54 c0.77,0.78,0.56,2.17-0.41,2.62c-17.73,8.36-18.55,7.44-23.83,18.03c-4.13,8.27-11.02,8.39-17.43,9.46 c-2.1,0.35-3.48,2.58-2.99,4.84c0.96,4.38,3.36,8.22,6.75,10.79c16.21,12.28,20.7,14.27,39.8,21.77c5.3,2.08,1.24,10.82,9.36,13.33 l8.9,2.76c2.3,0.71,3.85,3.04,3.75,5.64c-0.46,12.33,0,15.93-3.08,21.22c-5.05,8.67-7.11,13.06-12.59,17.78l-21.7,18.7 c-2.25,1.94-3.12,5.23-2.16,8.17l2.09,6.38c0.27,0.83-0.02,1.75-0.7,2.22l-0.51,0.36c-0.77,0.53-1.78,0.32-2.31-0.48l-7.76-11.48 c-4.21-6.24,4.45-14.68,4.36-26.87c-0.15-20.5,1.02-16.02-9.06-32.89c-2.42-4.06-2.83-9.16-1.08-13.61l5.34-13.56 c1.06-2.71-0.13-5.84-2.65-6.91c-27.94-11.96-24.55-9.28-43.71-28.01c-7.71-7.53-6.94-19.76-16.53-30.8 c-1.43-1.64-0.92-3.05-1.3-4.37c-2.5-8.61-2.81-12.14-6.95-14.4L29,121.99C26.91,120.84,24.42,120.9,22.38,122.14L22.38,122.14z"></path><path class="st0" d="M116.74,93.23c-0.67,1.28-0.54,2.89,0.34,4.01l6.04,7.76c0.32,0.41,0.79,0.65,1.29,0.65 c0.69,0,1.31,0.45,1.57,1.15l2.06,5.51c0.63,1.7,2.07,2.88,3.75,3.09l1.32,0.16c0.95,0.11,1.81-0.63,1.91-1.67l0.71-6.95 c0.24-2.42-0.49-4.84-2.02-6.61c-2.32-2.7-5.11-4.85-8.22-6.34l-4.64-2.23C119.33,91.03,117.56,91.66,116.74,93.23L116.74,93.23z"></path><path class="st0" d="M109.7,55.45c6.24,2.26,7.18,1.39,27.38-1.55c2.65-0.39,3.59,3.65,1.05,5.32l-9.43,6.2 c-4.31,2.83-9.58,3.31-14.26,1.29l-11.68-5.05c-1-0.43-1.43-1.71-0.94-2.75C101.82,58.9,104.51,53.87,109.7,55.45z"></path><path class="st0" d="M143.14,58.9l-12.08,8.23c-1.93,1.31-1.99,4.35-0.12,5.76c8.37,6.31,3.27,10.75,9.67,25.04l5.44,12.16 c2.34,5.23,6.31,5.33,13.46,7.06c2.41,0.58,4.83-0.97,5.52-3.56c4.93-18.41,4.19-16.15,19.32-30.1c3.07-2.83,3.08-7.98,0.02-10.83 c-6.6-6.14-10.64-10.31-18.31-14.71C158.81,53.82,150.08,54.17,143.14,58.9L143.14,58.9z"></path><path class="st0" d="M178.9,101.72c3.12,1.98,5.42-0.05,7.69-1.65c0.68-0.49,0.91-1.47,0.52-2.25c-0.59-1.17-1.18-0.88-7.02-0.88 c-1.1,0-2.05,0.83-2.3,2C177.79,98.93,177.27,100.82,178.9,101.72z"></path><path class="st0" d="M225.21,61.82c-0.13,0.96,0.4,1.87,1.25,2.15l0.73,0.24c3.1,1,6.39,1.11,9.54,0.3l2.62-0.67 c1.84-0.47,3.08-2.36,2.9-4.41c-0.16-1.79-1.38-3.27-3-3.63l-2.6-0.59c-1.86-0.42-3.79-0.12-5.46,0.85l-3.55,2.05 C226.33,58.86,225.43,60.24,225.21,61.82L225.21,61.82z"></path><path class="st0" d="M194.77,123.37c-0.68,1.71,0.32,3.65,2.01,3.91c1.33,0.2,2.56-0.8,2.75-2.26c0.29-2.24-0.29-2.12-2.81-3.55 c-0.53-0.3-1.17-0.05-1.41,0.54L194.77,123.37z"></path><path class="st0" d="M201.67,128.1c0.59-1.78,1.11-3.57,0.06-5.92c-1.8-4.04-3.99-4.38-3.61-6.84c0.56-3.61,5.75-2.79,8.37-0.2 c2.39,2.37,3.98,3.38,3.72,5.73c-0.24,2.22-0.22,3.96-1.79,5.66c-1.67,1.82-3.2,2.18-5.49,3 C202.14,129.81,201.38,128.96,201.67,128.1L201.67,128.1z"></path><path class="st0" d="M214.89,113.09l1.79,3.91c0.6,1.31,1.83,2.14,3.17,2.14h3.73c1.49,0,2.9-0.7,3.88-1.91l0.54-0.67 c1.93-2.4,3.5-5.12,4.65-8.05l7.55-19.31c0.42-1.08,0.13-2.33-0.72-3.06c-0.63-0.55-1.48-0.71-2.25-0.43l-2.51,0.92 c-3.32,1.22-6.37,3.16-8.98,5.7l-2.05,2.01c-3.64,3.55-6.53,7.91-8.48,12.78l-0.45,1.12C214.15,109.79,214.2,111.57,214.89,113.09z"></path><path class="st0" d="M403.23,64.29c-0.1-1.29-0.2-2.59-0.31-3.88c-0.17-2.11-0.34-4.25-0.96-6.25c-0.62-2.01-1.75-3.91-3.43-4.97 c-1.16-0.73-3.85-3.33-5.17-3.58c-0.26-0.05-0.53-0.1-0.8-0.14c-0.02,0-0.03,0-0.05,0c-0.03-0.06-0.05-0.1-0.05-0.1 c-0.39-2.15-1.58-3.08-8.81-5.6c-2.63-0.92-5.44-2.1-7.95-3.23c-4.37-1.97-7.83-3.78-7.83-3.78l-16.9,5.19l-0.13,0.04 c-2.58,0.05-4.95,1.49-6.82,3.12c-1.91,0.16-3.52,1.06-4.53,1.76c-0.13-0.01-0.25,0.02-0.37,0.08c-3.41,1.82-6.2,4.97-7.72,8.75 c-0.07,0.18-0.15,0.37-0.27,0.53c-0.14,0.18-0.33,0.29-0.49,0.44c-0.62,0.54-0.88,1.45-0.96,2.32c-0.08,0.87,0,1.75-0.12,2.61 c-0.17,1.23-0.72,2.36-1.19,3.5c-0.35,0.83-0.66,1.71-0.75,2.61c-0.87,0.64-1.49,1.69-1.8,2.79c-0.23,0.81-0.32,1.65-0.35,2.5 c-1.04,1.76-2.15,3.47-3.34,5.12c-0.7,0.96-1.46,2.01-1.47,3.23c0,0.62,0.19,1.23,0.1,1.84c-0.13,0.9-0.84,1.55-1.28,2.33 c-0.11,0.19-0.18,0.39-0.26,0.6c-0.91,0.15-1.79,0.48-2.59,0.98c-0.6,0.37-1.35,0.82-2.2,1.26c-1.58,0.83-2.64,2.46-3.1,4.02 c-0.3,1.02,0.11,2.13,0.97,2.65c0.5,0.3,1.12,0.61,1.77,0.77c-0.06,0.23-0.1,0.47-0.14,0.71c-0.37,2.34,0.97,4.65,3.11,5.09 c0.08,0.02,0.17,0.03,0.25,0.05h7.49c0.72,0,1.41-0.16,2.05-0.46c0.84,0.29,1.74,0.34,2.61,0.09c0.29-0.08,0.59-0.2,0.79-0.44 c0.25-0.29,0.32-0.71,0.43-1.1c0.36-1.25,1.28-2.29,2.42-2.72c0.56-0.22,1.17-0.3,1.69-0.62c0.84-0.52,1.28-1.57,1.48-2.6 c0.2-1.03,0.23-2.1,0.51-3.1c0.21-0.73,0.54-1.39,0.95-1.99c1.05-1.54,2.59-2.76,3.89-4.16c0.2,3.88,0.21,7.63,0.2,9.67 c-0.01,1.2,0.22,2.4,0.69,3.49c1.38,3.19,3.46,6.02,3.46,6.02l46.49,0.37c0,0,3.36-8.19,5.9-22.58c0.1-0.56,0.19-1.11,0.27-1.65 c0.74-1.38,1.45-2.78,1.96-4.26c0.24-0.67,0.44-1.37,0.83-1.95c0.41-0.61,1-1.05,1.38-1.68C403.41,66.91,403.33,65.54,403.23,64.29z "></path><path d="M341.59,80.52c-1.32,1.39-2.92,2.56-3.89,4.17c3.35-5.52,3.19-10.7,2.95-12.7c0.04,0.18,0.07,0.36,0.1,0.53 C341.18,74.84,341.43,77.71,341.59,80.52z"></path><path class="st2" d="M339.48,42.85"></path><path class="st2" d="M326.52,67.1c-0.34,0.63-0.7,1.26-1.06,1.88"></path><path class="st2" d="M327.62,63.69c-0.04,0.33-0.04,0.66,0,1c0.13,1.24,0.97,2.47,2.11,2.59"></path><path class="st2" d="M331.33,55.34c0.56,2.43,2.14,6.04,6.63,7.1"></path><path class="st2" d="M334.49,69.35c0,0,1.56,3.46,4.76,3.55"></path><path class="st2" d="M338.2,53.31c0.52,6.69,1.76,14.9,2.55,19.21c0.43,2.32,0.68,5.19,0.83,8"></path><path class="st2" d="M344.02,41.08c-2.47,2.15-4.06,4.63-4.06,4.63"></path><path d="M362.13,38.83c0,0-1.45,9.04-5.52,10.51c-0.21,0.08-0.42,0.12-0.62,0.14c-2.01-3.38-3.37-6.64-4.24-9.1L362.13,38.83z"></path><path class="st2" d="M388.79,49.49c0,0-5.88,5.5-10.33,13.07"></path><path class="st2" d="M346.13,92.4c0,0,1.85,4.28,4.61,6.1"></path><path class="st2" d="M360.92,98.94c0,0,3.09-2.16,6.05-7.4"></path><path class="st1" d="M368.71,33.24c2.1-3.3,3.77-7.28,4.26-11.95l-8.63-11.71l-12.26-1.69l0,0l-3.26,2.74c0,0-5.76,13.07,0.68,30.4 c0.71,1.93,2.24,3.3,4.05,3.77c1.64,3.57,4.02,7.72,7.39,11.46c0.64,0.71,1.66,0.83,2.44,0.31c2.99-2,9.98-7.85,12.33-19.98v0 C372.61,35.2,369.99,33.89,368.71,33.24z"></path><path class="st2" d="M353.57,44.83c0.38,0.1,0.77,0.15,1.16,0.16c1.11,0.03,2.2-0.29,3.14-0.91c3.88-2.54,13.75-10.18,15.09-22.79"></path><path d="M348.63,8.32c0.05,0.2-0.02,0.41-0.18,0.52c-0.19,0.13-0.39,0.36-0.39,0.81c0,0.51,0.29,0.76,0.52,0.88 c0.15,0.08,0.27,0.2,0.34,0.36c0.15,0.35,0.55,0.95,1.48,0.96c0.73,0.01,1.18-0.45,1.42-0.82c0.11-0.18,0.36-0.18,0.48-0.01 c0.17,0.26,0.44,0.53,0.87,0.63c0.55,0.12,0.94-0.1,1.16-0.3c0.12-0.1,0.29-0.06,0.36,0.09c0.1,0.23,0.3,0.5,0.68,0.62 c0.34,0.12,0.64,0,0.84-0.14c0.18-0.12,0.42-0.08,0.54,0.11c0.12,0.19,0.3,0.37,0.59,0.46c0.4,0.13,0.76-0.09,1-0.32 c0.16-0.14,0.39-0.09,0.5,0.1c0.11,0.19,0.29,0.38,0.56,0.44c0.29,0.06,0.56,0,0.77-0.09c0.21-0.09,0.46,0.03,0.52,0.27 c0.07,0.26,0.18,0.56,0.39,0.76c0.21,0.2,0.49,0.22,0.73,0.17c0.19-0.04,0.34,0.16,0.27,0.35c-0.08,0.22-0.12,0.48-0.05,0.76 c0.07,0.34,0.26,0.56,0.45,0.69c0.19,0.14,0.21,0.45,0.02,0.61c-0.53,0.42-1.22,1.18-0.94,2.17c0.25,0.9,0.84,1.07,1.24,1.08 c0.19,0,0.34,0.18,0.32,0.39c-0.03,0.31-0.01,0.73,0.25,1c0.27,0.3,0.61,0.34,0.83,0.33c0.13-0.01,0.26,0.08,0.3,0.22 c0.04,0.15,0.13,0.32,0.3,0.46c0.17,0.13,0.41,0.13,0.61,0.1c0.17-0.03,0.32,0.11,0.32,0.29c0,0.3,0.05,0.7,0.29,0.95 c0.38,0.4,0.87,0.35,1.17,0.27c0.08-0.02,0.15,0.07,0.11,0.15c-0.07,0.16-0.11,0.39-0.04,0.65c0.09,0.29,0.29,0.46,0.44,0.56 c0.07,0.04,0.07,0.16-0.01,0.19c-0.24,0.13-0.59,0.41-0.59,0.91c0,0.33,0.11,0.56,0.24,0.72c0.17,0.2,0.2,0.49,0.11,0.75 c-0.09,0.25-0.12,0.55,0.02,0.85c0.29,0.59,0.87,0.54,1.25,0.43c0.27-0.08,0.56-0.06,0.83,0.05l1.99,0.84 c0.33,0.14,0.64,0.36,0.87,0.65c0.29,0.37,0.85,0.8,1.63,0.22c0.12-0.09,0.25-0.13,0.39-0.13c0.38,0,1.16-0.13,1.31-1.11 c0.03-0.2,0.13-0.39,0.29-0.5c0.35-0.26,0.88-0.84,0.53-1.85c-0.09-0.25-0.05-0.53,0.11-0.73c0.36-0.45,0.86-1.36,0.31-2.67 c-0.14-0.33-0.09-0.73,0.14-1c0.4-0.46,0.87-1.3,0.51-2.52c-0.07-0.25-0.06-0.52,0.05-0.75c0.25-0.54,0.56-1.62-0.3-2.6 c-0.18-0.21-0.24-0.51-0.15-0.78c0.21-0.63,0.42-1.8-0.5-2.88c-0.17-0.2-0.23-0.49-0.16-0.75c0.2-0.79,0.39-2.46-1.1-3.4 c-0.24-0.15-0.38-0.44-0.38-0.74c0.01-0.59-0.08-1.55-0.7-2.03c-0.46-0.36-0.89-0.43-1.2-0.42c-0.26,0.02-0.49-0.18-0.51-0.47 c-0.04-0.6-0.21-1.5-0.77-2.02c-0.71-0.66-1.49-0.72-1.98-0.68c-0.26,0.02-0.52-0.12-0.65-0.38c-0.26-0.53-0.87-1.33-2.21-1.29 c-0.24,0.01-0.48-0.08-0.65-0.26c-0.42-0.44-1.39-1.05-2.85,0.49c-0.18,0.19-0.47,0.24-0.69,0.11c-0.37-0.22-1.01-0.42-1.81,0.08 c-0.19,0.12-0.42,0.09-0.58-0.06c-0.45-0.39-1.4-0.95-2.43,0.08c-0.18,0.18-0.45,0.19-0.63,0.03c-0.43-0.4-1.3-0.87-2.4,0.11 c-0.17,0.15-0.38,0.23-0.6,0.22c-0.54-0.04-1.61,0.1-2.06,1.66c-0.08,0.27-0.29,0.46-0.54,0.51c-0.6,0.1-1.62,0.51-1.89,2.03 c-0.05,0.28-0.23,0.51-0.48,0.62C348.97,6.56,348.29,7.07,348.63,8.32L348.63,8.32z"></path><path d="M350.61,37.21c1.2-0.01,3.28-0.16,5-1.02c0.35-0.17,0.7,0.22,0.53,0.59c-0.44,0.97-1.28,2.35-2.77,3.37 c-0.91,0.63-2.1,0.39-2.74-0.56c-0.24-0.35-0.47-0.79-0.67-1.33C349.77,37.76,350.12,37.22,350.61,37.21L350.61,37.21z"></path><path class="st3" d="M373.01,30.04c0.92-2.54,0.63-5.44-0.63-6.48s-3.04,0.17-3.96,2.7c-0.92,2.54-0.64,5.44,0.63,6.48 C370.32,33.78,372.09,32.57,373.01,30.04L373.01,30.04z"></path><path class="st2" d="M384.26,65.28c2.66-3.84,6.4-5.94,9.64-7.28"></path><path class="st2" d="M382.61,66.26c0.34-2.21,0.95-3.22,2.06-5.11c1.11-1.89,2.52-3.55,4.08-5.02"></path><path d="M386.04,86.44h-0.01c-0.02-0.26-0.05-0.53-0.08-0.81c-0.6-5.28-3.53-8.53-6.67-13.56c0.35-1.25,0.74-2.47,1.38-3.56 c0.07-0.13,0.15-0.25,0.23-0.36c-0.01,0.12-0.24,4.03,2.28,7.65C385.75,79.48,386.33,83.5,386.04,86.44z"></path><path class="st2" d="M398.59,75.87c-1.47,2.75-3.06,5.43-3.53,8.54c-0.11,0.71-0.16,1.45-0.43,2.11c-0.55,1.3-1.85,2-2.66,3.12 c-0.97,1.33-1.18,3.14-1.93,4.63c-1.22,2.44-3.98,3.83-6.48,3.27c-1.78-0.4-3.3-1.66-4.67-2.97c-1.78-1.71-3.49-3.67-4.21-6.12 c-1.2-4.07,0.56-8.49,2.95-11.88c0.34-0.48,0.61-1.02,0.81-1.59c0.75-2.16,1.09-4.52,2.23-6.47c0.51-0.87,1.18-1.63,1.95-2.24 c0,0,0,0,0,0c0,0,0,0,0,0c-0.54-1.7-0.5-3.62-0.1-5.38c0.28-1.23,0.73-2.43,1.45-3.42c0.13-0.18,0.27-0.36,0.39-0.55"></path><path class="st2" d="M385.74,64.76c-0.46,0.15-0.93,0.3-1.38,0.48c-0.1,0.04-0.2,0.09-0.3,0.13c-0.51,0.24-1,0.54-1.45,0.89"></path><path class="st2" d="M389.08,81.96c0,0,4.25,6.45-1.02,11.59"></path><path class="st1" d="M384.04,96.2c-0.58,0.91-1.53,1.46-2.55,1.46h-4.18c-2.3,0-4.43-1.3-5.64-3.42l-0.71-1.26 c-2.63-4.61-4.23-9.82-4.67-15.22l-1.93-23.47c-0.01-0.15-0.06-0.3-0.11-0.45l-1.31-3.13c-0.75-1.77-0.97-3.74-0.65-5.65l0.2-1.2 l-1.01-1.64c-0.19-0.31-0.29-0.68-0.26-1.06l0.25-3.59c0.02-0.35,0.18-0.68,0.44-0.89l0.99-0.84c0.19-0.17,0.44-0.23,0.68-0.18 l0.1,0.02l1.09-0.81c0.27-0.2,0.6-0.25,0.9-0.16l0.43,0.14l1.52-1.67c0.35-0.39,0.89-0.48,1.33-0.22l3.77,2.18 c0.32,0.18,0.7-0.05,0.72-0.44l0.38-7.79c0.03-0.51,0.34-0.96,0.79-1.11c0.12-0.04,0.24-0.07,0.35-0.07c0.59,0,1.1,0.51,1.13,1.18 l0.48,10.63c0.06,1.22-0.13,2.44-0.54,3.57l-0.31,0.87c-0.95,2.64-2.25,5.11-3.85,7.34c0.03,0.6,0.34,5.29,1.93,10.62 c1.58,5.3,3.57,9.05,5.48,12.13c3.14,5.03,6.07,8.28,6.67,13.56c0.03,0.28,0.06,0.55,0.08,0.81 C386.42,91.39,385.09,94.54,384.04,96.2z"></path><path class="st2" d="M319.18,82.1c0.3-0.05,0.6-0.08,0.91-0.09l0.99-0.04l5.39,1.78c3.85,1.27,5.56,6.15,3.49,9.89l-0.66,1.2 c-0.59,1.06-1.46,1.86-2.47,2.33"></path><path class="st2" d="M314.06,91.77c1.21-5.11,6.08-7.44,6.08-7.44"></path><path class="st1" d="M329.7,83.6c-0.23,0.16-0.5,0.25-0.77,0.25c-0.08,0-0.16-0.01-0.24-0.03c-0.5-0.1-1.17-0.45-1.58-1.47 l-4.57,8.25l-3.72-6.76l5.91-3.16h0l0.51-0.72c0.19-0.28,0.44-0.5,0.73-0.65c0.52-0.28,1.42-0.71,2.41-0.93 c0.57-0.13,1.11,0.28,1.23,0.9c0.13,0.68,0.33,1.58,0.64,2.33C330.53,82.34,330.31,83.18,329.7,83.6z"></path><path class="st2" d="M326.85,81.44c0.06,0.35,0.15,0.66,0.26,0.92"></path><path class="st4" d="M332.4,91.05c-0.25,0-0.5-0.11-0.69-0.33l-9.74-11.58c-0.35-0.41-0.32-1.05,0.06-1.43s0.97-0.35,1.31,0.06 l9.74,11.58c0.35,0.41,0.32,1.05-0.06,1.43C332.85,90.96,332.63,91.05,332.4,91.05z"></path><path class="st1" d="M332.06,86.78l-0.6,0.31c0.25,0.13,0.45,0.37,0.54,0.68c0.13,0.44,0,0.92-0.33,1.21L330,90.47 c0.21,0.04,0.41,0.15,0.57,0.32c0.38,0.4,0.45,1.03,0.16,1.52l-1.26,2.12c-0.37,0.62-0.89,1.12-1.51,1.42 c-1.64,0.79-3.79,1.08-4.78,1.17c-0.35,0.03-0.7-0.07-0.98-0.29l-0.53-0.41c-0.29-0.23-0.49-0.56-0.55-0.94l-0.19-1.1 c-0.06-0.36-0.22-0.69-0.46-0.95l-0.57-0.62c-0.22-0.25-0.37-0.56-0.42-0.9l-0.21-1.5c-0.03-0.23-0.11-0.44-0.23-0.64l-0.66-1.04 c-0.23-0.36-0.29-0.82-0.17-1.24l0.25-0.87c0.07-0.25,0.05-0.52-0.05-0.76l-0.16-0.37c-0.15-0.35-0.19-0.74-0.1-1.11l0.07-0.33 c0.2-0.86,0.83-1.52,1.63-1.71c1.78-0.4,3.79-0.98,4.98-1.34c0.61-0.18,1.25,0.11,1.57,0.71l0.01,0.03c0.36,0.7,0.15,1.58-0.48,1.99 l-1.95,1.26c-0.29,0.18-0.59,0.33-0.91,0.44c0.24,0.08,0.48,0.11,0.73,0.08l7.7-0.77c0.03,0,0.06-0.01,0.09-0.01 c0.43,0,0.82,0.29,0.98,0.73C332.78,85.9,332.55,86.52,332.06,86.78z"></path><path class="st2" d="M322.66,93.25l3.99-0.51c0.61-0.08,1.18-0.34,1.66-0.77l1.68-1.5"></path><path class="st2" d="M320.77,90.09l0.87-0.34c0.68-0.26,1.39-0.39,2.11-0.39h2.48c0.59,0,1.17-0.14,1.71-0.42l3.52-1.84"></path><path class="st2" d="M319.78,85.6l2.21-0.09c0.37-0.02,0.73-0.08,1.08-0.2"></path><path class="st5" d="M271.93,97.34h143.98v5.15c0,0.7-0.52,1.27-1.16,1.27H273.09c-0.64,0-1.16-0.57-1.16-1.27V97.34z"></path><path class="st1" d="M296.08,96.15h43.13c0.62,0,1.12,0.55,1.12,1.22s-0.5,1.22-1.12,1.22h-43.13V96.15z"></path><path class="st6" d="M321.03,98.48h-0.93l-15.24-42.9h0.01c0.55,0,1.05,0.37,1.24,0.93L321.03,98.48z"></path><path class="st1" d="M320.1,98.48h-53.09c-0.53,0-1.01-0.35-1.19-0.89l-14.57-41c-0.18-0.48,0.15-1.01,0.63-1.01h52.98L320.1,98.48z "></path><path class="st2" d="M322.2,97.26h1.74"></path><path class="st2" d="M325.12,97.26h1.74"></path><path class="st4" d="M286.6,82.73c0.95-1.24,0.39-3.44-1.24-4.93c-1.63-1.48-3.73-1.68-4.67-0.45c-0.95,1.24-0.39,3.44,1.24,4.92 C283.56,83.77,285.65,83.97,286.6,82.73z"></path><path class="st4" d="M288.14,79.76c0.95-1.24,0.39-3.44-1.24-4.93c-1.63-1.48-3.73-1.68-4.67-0.45c-0.95,1.24-0.39,3.44,1.24,4.92 C285.1,80.79,287.19,80.99,288.14,79.76z"></path><path class="st1" d="M379.29,98.88l-19.03,5.73c-0.1,0.03-0.09,0.19,0.02,0.2l29.43,1.59c0.39,0.02,0.79-0.06,1.16-0.22l14.26-6.63 c0.08-0.04,0.05-0.16-0.03-0.16l-24.73-0.64C380.01,98.72,379.64,98.77,379.29,98.88L379.29,98.88z"></path><path class="st2" d="M370.63,103.36l18.16,0.73"></path><path class="st2" d="M373.94,102.19l18.16,0.73"></path><path class="st2" d="M377.17,101.2l18.16,0.73"></path><path class="st2" d="M380.12,100.25l17.13,0.69"></path><path class="st1" d="M386.51,209.64H244.86c-0.64,0-1.16,0.57-1.16,1.27v88.3c0,0.7,0.52,1.27,1.16,1.27h141.66 c0.64,0,1.16-0.57,1.16-1.27v-88.3C387.68,210.21,387.16,209.64,386.51,209.64z"></path><path class="st7" d="M347.93,268.14c-0.2-2.85-2.32-6.64-3.42-11.46c-1.21-5.3-1.1-12.33-2.17-22.06 c-1.4-12.72-7.97-14.27-19.33-19.97c-0.21-0.58-1.72-4.63-3.03-4.99l-0.35,4.31c1.43,6.15-0.22,10.07-1.92,12.16 c0.06-0.03,0.13-0.07,0.19-0.11c-0.6,0.78-1.25,1.42-1.95,1.94c-0.26,0.19-0.61,0.06-0.73-0.26c-1.66-4.82-6.21-4.81-7.27-4.74 c-0.11,0-0.2-0.04-0.28-0.12c-0.02-0.02-0.04-0.04-0.05-0.07c0.02-0.02,0.04-0.04,0.06-0.06h0c-0.03-0.02-0.05-0.06-0.07-0.09 c-6.22-11.68-6.78-13.02-6.27-14.19l-3.54,5.9c0,0.03,0.01,0.06,0.02,0.1l-0.02,0c-5.77,3.26-12.8,8.15-14.37,9.52 c-4.34,2.69-8.87,8.96-9.67,16.47c-0.56,5.3-1.46,14.96-1.4,21.77c0.1,9.83,0.43,14.01,0,17.52c-0.4,3.19-0.48,8.47,2.11,10.11 c-2.61-5.09,1.99-13.22,7.05-14.78c1.87-0.57,3.3-0.9,4.81-1.65c0.05-0.02,0.1-0.02,0.16-0.04c0,0,0,0,0,0 c-0.05,0.02-0.1,0.02-0.15,0.04c-1.51,0.74-2.94,1.08-4.81,1.65c-5.04,1.55-9.66,9.67-7.05,14.78c1.1,2.15,2.57,2.19,4.75,4.66 c0.46,0.51,1.04,0.56,1.85,0.53c-0.14-2.69,3.07-7.99,4.64-10.3c-0.91,7.04-1.06,15.81-1.06,15.81h56.45 c-0.24-4.19-1.76-5.33-3.3-9.39c0.14-5.19-0.74-6.49-2.02-14.1c0.44,0.09,0.02,0.09,12.59-1.69 C350.95,274.97,352.14,270.44,347.93,268.14z"></path><path class="st2" d="M339.7,227.7c1.53,11.75-4.01,30.25-4.68,37.32c-0.36,3.73,0.12,8.06,0.77,11.94"></path><path class="st2" d="M313.11,219.29c2.51,6.21,2.72,13.18,3.31,19.93c0.83,9.51,2.49,18.93,3.25,28.45 c0.59,7.33,0.65,14.72,0.17,22.06c-0.23,3.54-0.58,7.16,0.28,10.59"></path><path class="st2" d="M324.83,300.59c-2.38-10.01-0.87-20.56-0.95-30.9c-0.07-8.35-1.18-16.64-2.57-24.85 c-1.46-8.63-3.24-17.4-2.22-26.1"></path><path class="st3" d="M317.72,226.25c-0.67,0.82-1.32,1.37-1.76,1.7c-0.26,0.19-0.61,0.06-0.73-0.26c-1.66-4.82-6.21-4.81-7.27-4.74 c-0.11,0-0.2-0.04-0.28-0.12c-0.02-0.02-0.05-0.05-0.06-0.08c-6.77-12.52-6.83-13.38-6.1-14.62v-0.01 c0.44-0.53-0.02-0.33,13.56-0.97l5.08,2.6l-0.37,4.47C321.22,220.36,319.42,224.17,317.72,226.25z"></path><path d="M302.16,212.12c-0.25-0.52-0.45-0.97-0.58-1.3c-0.48-1.21-0.43-1.95-0.23-2.4l0.17-0.29v0c0.23-0.28,0.48-0.36,0.48-0.36 h0.01L302.16,212.12z"></path><path d="M315.42,203.46c0,0,4.42,1.78,6.88-2.94c2.46-4.72,3.33-9.61,3.52-12.16c0.19-2.55-7.57,4.41-7.57,4.41L315.42,203.46 L315.42,203.46z"></path><path d="M298.53,177.69c0,0-1.14,1.54-1.01,6.62c0.13,5.07,0.86,7.59,0.86,7.59l2.52-2.11l-0.45-12.31L298.53,177.69z"></path><path class="st1" d="M320.31,210.9c1.42-20.98,1.83-14.99-2.15-33.43l-11.22-3.04l-8.01,5.21c1.34,7.56-3.45,15.88,1.86,25.11 c0.36,0.63,0.75,1.22,1.16,1.73l0.21,5.64"></path><path d="M320.65,177.92c0.38-0.43,0.26-0.95,0.1-1.2l0,0c-4.55-7.22-12.27-5.97-16.5-4.55c-3.07,1.03-4.29,3.23-5.44,5.02 c-1.21,1.87-0.65,4.05,0.55,4.92c0.29-0.87,1.21-1.9,1.21-1.9c2.43-0.55,5.73-0.99,7.04-3.11c2.69-0.2,4.25,3.54,8.75,3.07 c-3.64,4.21,1.6,8.15,0.81,13.43c-0.36,2.39,2.39,3.28,4.56,1.62h0.01C328.88,189.71,326.12,178.03,320.65,177.92z"></path><path class="st3" d="M323.4,195.3c1.17-1.94,1.2-4.39,0.06-5.46c-1.14-1.07-3.02-0.36-4.2,1.58c-1.17,1.94-1.2,4.39-0.06,5.46 C320.35,197.96,322.23,197.25,323.4,195.3L323.4,195.3z"></path><path class="st2" d="M320.55,197.38c0.98-0.04,2.07-0.79,2.85-2.08c1.17-1.94,1.2-4.39,0.06-5.46c-1.14-1.07-3.02-0.36-4.2,1.58 c-0.84,1.38-1.09,3.02-0.76,4.24"></path><path class="st2" d="M320.46,193.67c0,0,0.6-0.16,0.63-0.69c0.02-0.31-0.2-0.49-0.38-0.58c-0.11-0.05-0.15-0.21-0.07-0.28 c0.35-0.38,1.2-1.15,1.91-0.76c0.99,0.54,0.43,2.76-2.29,4.07"></path><path class="st2" d="M303.66,187.94l-1.33,5.53c-0.15,0.62,0.13,1.27,0.67,1.54l1.35,0.68"></path><path d="M301.88,199.1c1.11-0.04,3.63-0.21,6.14-0.96c0.42-0.13,0.76,0.36,0.55,0.77c-0.59,1.13-1.79,2.73-3.87,2.73 c-1.86,0-2.76-1.13-3.15-1.88C301.4,199.47,301.58,199.11,301.88,199.1z"></path><path class="st2" d="M306.42,186.23c0,0,3.05-2.34,5.54,1.21"></path><path class="st2" d="M302.54,186.76c0,0-2.59-1.2-3.87,1.9"></path><path d="M309.03,190.06c0.23,0,0.41-0.42,0.41-0.94c0-0.52-0.18-0.94-0.41-0.94s-0.41,0.42-0.41,0.94 C308.63,189.64,308.81,190.06,309.03,190.06z"></path><path d="M300.88,190.83c0.22,0,0.41-0.42,0.41-0.94c0-0.52-0.18-0.94-0.41-0.94c-0.23,0-0.41,0.42-0.41,0.94 C300.48,190.4,300.66,190.83,300.88,190.83z"></path><path class="st4" d="M333.48,271.22l30.22-2.55c0.41-0.04,0.66,0.49,0.39,0.83l-12.88,16.59c-0.34,0.43-0.82,0.7-1.34,0.73 l-28.94,1.93c-0.4,0.03-0.64-0.48-0.39-0.82l11.6-15.93C332.47,271.55,332.96,271.26,333.48,271.22L333.48,271.22z"></path><path class="st2" d="M321.67,287.86l10.9-14.82c0.35-0.48,0.88-0.78,1.44-0.83l28.98-2.58"></path><path class="st1" d="M358.08,284.38l-0.42,2.26c-0.15,0.78-0.64,1.43-1.32,1.73l-2.36,1.04c-0.56,0.25-1.19,0.27-1.76,0.06 l-3.79-1.39c-0.52-0.19-0.83-0.79-0.7-1.38c0.12-0.52,0.54-0.89,1.04-0.89h5.19L358.08,284.38L358.08,284.38z"></path><path class="st1" d="M357.88,281.82l0.76,1.7c0.19,0.42,0.06,0.93-0.31,1.19l-2.23,1.55c-0.43,0.3-0.94,0.45-1.45,0.44l-8.61-0.25 c-0.59-0.02-1.05-0.54-1.05-1.17c0-0.58,0.39-1.07,0.91-1.16l4.91-0.86c0.25-0.04,0.48-0.15,0.67-0.32l1.42-1.23L357.88,281.82 L357.88,281.82z"></path><path class="st1" d="M359.28,278.48l0.11,1.95c0.02,0.4-0.1,0.78-0.33,1.08l-0.57,0.72c-0.46,0.58-1.11,0.96-1.81,1.04l-7.71,0.88 c-0.67,0.08-1.26-0.46-1.31-1.19c-0.04-0.62,0.33-1.18,0.88-1.35l6.19-1.83c0.34-0.1,0.62-0.33,0.81-0.66l0.37-0.65L359.28,278.48 L359.28,278.48z"></path><path class="st1" d="M360.02,274.85l1.27,1.25c0.33,0.33,0.52,0.79,0.52,1.28c0,0.83-0.54,1.54-1.29,1.7l-5.26,1.09 c-0.67,0.14-1.3-0.42-1.3-1.17c0-0.51,0.3-0.96,0.74-1.12l3.52-1.32c0.44-0.17,0.83-0.45,1.12-0.84L360.02,274.85z"></path><path d="M284.21,293.18c-0.53,1.89-2.17,1.75-3.13,1.78c-0.05-0.91,0.31-2.2,0.91-3.65L284.21,293.18z"></path><path class="st2" d="M322.2,279.24l-1.42-0.57"></path><path class="st1" d="M332.89,288.12c-4.6,3.13-4.29,2.94-4.58,3.06c-1.08,1.44-1.71,2.64-3.33,2.81c-4.51,0.46-5.46,0.81-6.82-0.12 c-4.95-3.35-4.87-3.45-5.57-3.22c-2.86,0.93-16.9,5.11-31.36,3.06c0.65-3.05,4.28-9.87,9.21-14.65c0.21-0.2,0.2-0.42,0.06-0.71 c0.01,0,0.01,0,0.02,0c0,0,11.59,3.6,22.33,1.66c0.7-0.14,0.37,0.08,5.63-5.91c0.56-0.63,1.33-1.01,2.13-1.05 c5.49-0.32,4.23-0.69,8.09,1.99c0.58,0.4,0.75,1.23,0.39,1.87c-0.86,1.54-1.8-0.22-6.8,0.29c-0.13,0.45-0.23,1.15-0.09,2.05 c4.75,1.87,3.22,1.53,8.33,1.66c1.29,0.04,1.96,1.98,0.36,2.86l1.07-0.33c1.26-0.39,2.47,1.57,0.69,2.62 C333.52,286.37,333.65,287.6,332.89,288.12z"></path><path class="st2" d="M321.44,288.43l6.65-0.16c0.48-0.01,0.95-0.14,1.37-0.39l3.19-1.83"></path><path class="st2" d="M319.97,283.53l4.51,1.42c0.82,0.26,1.68,0.26,2.5,0.01l3.9-1.2"></path><path class="st2" d="M322.13,291.21l5.2,0.15c0.33,0.01,0.67-0.05,0.97-0.18"></path><path class="st2" d="M322.29,277.2l-1.24,0.13"></path><path class="st2" d="M282.17,300.52h61.3"></path><path class="st1" d="M183.71,139.43H42.05c-0.64,0-1.16,0.57-1.16,1.27v88.3c0,0.7,0.52,1.26,1.16,1.26h141.66 c0.64,0,1.16-0.57,1.16-1.26v-88.3C184.87,139.99,184.35,139.43,183.71,139.43z"></path><path class="st7" d="M86.45,219.31c-4.18,2.59-5.67,9.71-6.46,10.94h48.09c0,0,0.16-5.02-4.19-9.42l-2.99-1.05l-30.26-2.02 L86.45,219.31z"></path><path class="st2" d="M97.06,229.81c0,0,1-6.24,0.3-10.01"></path><path class="st2" d="M110.78,224.73c0,0,0.28,2.82,0.17,5.07"></path><path class="st2" d="M122.79,229.81c0,0-0.45-1.22-0.64-4.22"></path><path class="st1" d="M86.62,216.21c-0.03,0.11-0.78,2.93,0.54,2.99c1.91,0.08,7.22,0.39,10.55,1.23c6.51,1.65,26.18,4.7,26.2-0.56 C123.97,208.42,97.92,203.58,86.62,216.21L86.62,216.21z"></path><path class="st0" d="M135,202.02c2.89-10.35,2.49-27.97,2.29-37.4c-0.19-8.51-2.83-9.29-13.37-14.34 c-6.98-3.3-11.11-5.05-26.15-3.39c-3.39,0.36-4.29,0.77-7.29,2.23c-6.24,3.01-9.56,4.03-10.45,4.63 c-8.77,4.16-12.67,20.74-15.14,28.55c-1.86,5.88-4.16,11.88-3.68,18.09c0.24,2.98,1.35,6.32,4.25,7.03c2.17,0.53,5.93-1.4,6.76-2.23 c2.46-2.47-2.25-3.59,5.22-19.24l4.74-9.94c4.22,10.56,3.37,14.09,1.1,22.9c-0.81,3.1-1.51,6.32-1.18,9.53 c0.33,3.21,1.86,6.44,4.51,7.88c0,0,16.97-5.54,37.04,0.94c0,0,2.16-2.3,3.83-4.91c1.23,1.71,2.58,3.31,4.59,2.39 c4.33-1.93,8.47-8.65,10.72-12.82C142.63,202.16,137,205.19,135,202.02z"></path><path class="st2" d="M126.68,151.65c-0.19,0.03-0.39,0.04-0.58,0.05c-1.94,0.17-3.57,1.58-5.18,2.78c-4.42,3.3-9.74,5.41-15.09,5.04 c-5.33-0.38-10.25-3.13-14.89-6.03c-1.49-0.93-3.04-1.9-4.72-2.36c1.44-0.63,2.86-1.29,4.28-1.98c1.21-0.59,2.42-1.2,3.7-1.58 c0.19-0.06,0.39-0.11,0.58-0.16c0.99-0.24,2-0.37,3.01-0.48c3.36-0.37,6.74-0.55,10.13-0.55c1.66,0,3.33,0.04,4.98,0.24 c0.66,0.08,1.31,0.18,1.96,0.31c3.15,0.65,6.14,2,9.08,3.39C124.84,150.76,125.76,151.2,126.68,151.65z"></path><path class="st2" d="M94.77,147.46c-0.01-0.08-0.01-0.16-0.01-0.24l-0.32-11.33c-0.05-1.62,0.59-3.18,1.74-4.2 c1.48-1.32,3.78-2.57,6.54-1.33c3.46,1.55,6.99,4.04,8.77,5.36c0.73,0.55,1.17,1.45,1.16,2.42c-0.01,1.98,0.01,5.54,0.23,8.53"></path><path d="M119.52,178.99c-11.31-10.07-0.68-20.57-6.69-31v-0.01c-2.02-3.51-1.47-4.98-1.37-8.77c1.47,0.53,3,1.25,5,0.04 c3.47,5.53,7.25,5.86,10.02,8.89c5.84,6.42-0.24,12.81,0.17,18.43c0.18,2.5,1.48,4.72,2.29,7.07 C131.23,180.37,126.54,185.29,119.52,178.99z"></path><path d="M116.29,107.6c0,0,0.35-1.92,1.86-1.16c1.72,0.86,1.65,5.68,1.65,5.68l-1.92,0.77L116.29,107.6L116.29,107.6z"></path><path class="st1" d="M116.29,107.67c-3.07-1.48-9.2,3.98-13.66,13.88c-1.2,2.66-1.47,5.7-0.78,8.5c-2.37-0.66-4.35,0.45-5.67,1.64 c-2.43,2.15-1.74,4.25-1.42,15.53c0,0.06,0.02,0.12,0.02,0.19c-2.2,0.54-3.61,1.55-8.57,3.73c5.81,1.56,14.95,12.37,28.51,6.85 c0.21-3.85-0.09-6.87-1.89-10v-0.01c-2.03-3.58-1.47-5.05-1.37-8.77c1.47,0.53,3,1.25,5,0.04 C121.73,136.14,123.8,111.3,116.29,107.67z"></path><path class="st2" d="M105.17,135.74c2.14,1.84,5.21,3.12,7.48,3.89"></path><path d="M72.47,161.08c-0.13-8.15,8.43-9.21,11.43-11.2c3-2,1.53-5.99,0.8-11.25c-0.73-5.26,2.45-8.65,4.65-11.98 c2.85-4.31,0.12-9.73,6.24-17.9c1.2-1.6,2.86-2.86,4.7-3.56c5.74-2.17,8.67-4.05,13.57-1.35c2.62,1.45,2.44,3.83,2.44,3.83 c-4.68,0.34-6.71,5.58-8.15,13.11c-1.44,7.53-1.92,9.99-5.84,13.74c-3.92,3.75-4.48,11.88-4.4,18.37c0.07,6.49-2.13,4.74-5.07,6.57 c-2.93,1.83-1.01,8.67-2.09,16.52c-1.09,7.85-8.21,6.85-8.21,6.85c-1.71-0.17-3.27-1.82-3.69-3.63c-1.16-4.96,3.95-17.9-1.47-20.03 C75.6,158.46,73.88,159.84,72.47,161.08L72.47,161.08z"></path><path class="st2" d="M117.8,119.74l1.23,5.08c0.18,0.76-0.25,1.54-0.96,1.7l-1.11,0.25"></path><path d="M113.96,127.94c0.84,0.54,2.26,1.35,3.72,1.64c0.33,0.07,0.54,0.41,0.46,0.76c-0.13,0.59-0.45,1.46-1.17,2.11 c-0.26,0.24-0.71,0.24-0.98,0.03c-0.7-0.54-1.96-1.8-2.57-4.08C113.31,128.05,113.67,127.75,113.96,127.94L113.96,127.94z"></path><path d="M119.67,122.38c0.22,0,0.41-0.42,0.41-0.94c0-0.52-0.18-0.94-0.41-0.94c-0.22,0-0.41,0.42-0.41,0.94 C119.26,121.96,119.44,122.38,119.67,122.38z"></path><path d="M113.07,119.67c0.22,0,0.41-0.42,0.41-0.94c0-0.52-0.18-0.94-0.41-0.94c-0.22,0-0.41,0.42-0.41,0.94 C112.67,119.25,112.85,119.67,113.07,119.67z"></path><path class="st2" d="M118.91,117.79c0,0,0.99-0.83,1.99-0.62"></path><path class="st2" d="M116,116.56c0,0-1.55-3.79-5.33-1.99"></path><path class="st2" d="M75.76,230.26h57.7"></path><path class="st2" d="M347.33,27.2c0,0,0.73,0.36,1.64-0.14"></path><path class="st2" d="M354.07,27.06c0,0,1.15,0.59,2.62-0.32"></path><path class="st2" d="M352.38,24.29c0,0,3.58-1.63,6.53,1.12"></path><path class="st2" d="M348.96,24.61c0,0-1.26-0.68-2.52-0.2"></path><path class="st2" d="M349.47,27.87l-1.21,4.3c-0.22,0.79,0.22,1.62,0.97,1.8l1.52,0.36"></path><path class="st2" d="M351.05,27.66c0.59,1.61,1.72,3.95,3.53,4.08c1.08,0.08,1.63-0.86,1.76-1.91c0.15-1.22,0.22-2.68-0.58-3.67 c-0.73-0.91-1.91-1.07-2.95-0.98c-0.53,0.05-1.14,0.15-1.57,0.52C350.69,26.18,350.79,26.94,351.05,27.66L351.05,27.66z"></path><path class="st2" d="M342.95,26.76c0.01,0.9,0.39,1.75,0.83,2.49c0.44,0.74,0.95,1.46,1.59,1.99c0.41,0.34,0.94,0.58,1.46,0.49 c0.7-0.13,1.19-0.79,1.42-1.49c0.29-0.87,0.35-1.92,0.15-2.82c-0.23-1.03-0.83-1.73-1.77-2.19c-0.59-0.29-1.29-0.37-1.94-0.37 c-0.63,0-1.06,0.07-1.47,0.69C342.98,25.9,342.94,26.34,342.95,26.76L342.95,26.76z"></path><path class="st2" d="M348.1,26.58c0,0,1.35-0.47,2.75-0.08"></path><path class="st2" d="M356.14,26.9l14.9-3.65"></path><path class="st2" d="M368.63,32.28c0.13,0.18,0.26,0.33,0.42,0.46c1.27,1.04,3.04-0.17,3.96-2.7c0.92-2.54,0.63-5.44-0.63-6.48 s-3.04,0.17-3.96,2.7c-0.11,0.32-0.21,0.64-0.29,0.96"></path><path class="st2" d="M369.89,28.69c0,0,0.57-0.31,0.54-0.95c-0.02-0.37-0.26-0.54-0.45-0.62c-0.11-0.05-0.17-0.21-0.11-0.32 c0.3-0.52,1.04-1.6,1.8-1.28c1.05,0.44,0.77,3.18-1.75,5.28"></path><path class="st2" d="M367.8,36.51l-4.12-0.84"></path><path class="st2" d="M370.51,36.25l-4.41-1.41"></path><path class="st2" d="M362.43,37.9l0.48,0.53c0.26,0.28,0.38,0.69,0.31,1.08l-0.73,4.35"></path><path class="st2" d="M365.41,67.1c-0.64,1.17-0.86,2.11-0.5,2.51c0.7,0.79,3.37-0.76,5.95-3.47c2.59-2.71,4.12-5.55,3.41-6.34 c-0.13-0.15-0.33-0.22-0.58-0.21"></path><path class="st2" d="M365.13,63.64c-0.7,1.06-0.96,1.95-0.64,2.4c0.63,0.87,3.21-0.22,5.78-2.42c2.56-2.2,4.13-4.69,3.51-5.55 c-0.12-0.17-0.31-0.26-0.57-0.29"></path><path d="M312.76,205.48c-1.88,2.34-5.46,6.19-8.12,5.29c-1.19-0.4-2-1.45-2.56-2.71l-0.06-1.49c0.84,1.03,1.77,1.74,2.77,1.83 C307.09,208.6,310.22,207.16,312.76,205.48z"></path><path class="st2" d="M301.95,206.49c0.85,1.07,1.81,1.81,2.83,1.91c3.22,0.29,8.05-2.64,10.64-4.94"></path><path class="st2" d="M317.72,226.19c-0.67,0.82-1.32,1.37-1.76,1.69c-0.26,0.19-0.61,0.06-0.72-0.26c-1.67-4.82-6.21-4.81-7.28-4.74 c-0.1,0.01-0.2-0.03-0.28-0.11"></path><path class="st2" d="M322.98,214.53c0.14,0.37,0.27,0.76,0.39,1.17c0.9,3,2.01,5.81,2.57,7.17c0.1,0.23-0.12,0.46-0.33,0.36 c-0.63-0.32-1.65-0.54-2.99,0.18c-1.69,0.9-3.85,2.11-4.9,2.71"></path><path class="st2" d="M307.68,222.69c-0.84,0.95-2.71,3.09-3.89,4.42c-0.26,0.29-0.69,0.27-0.91-0.05 c-1.14-1.56-4.12-6.19-5.07-12.75"></path><path class="st2" d="M287.32,231.93c0.8,2.66,1.36,5.37,1.39,8.17c0.03,2.66-0.41,5.41,0.38,7.92c0.29,0.92,0.74,1.78,1.06,2.69 c1.14,3.2,0.64,6.8-0.03,10.15c-0.39,1.96-0.83,4.05-0.22,5.94c0.27,0.85,0.75,1.64,0.8,2.53c0.1,1.8-1.48,3.08-2.39,4.61"></path><path class="st2" d="M274.48,289.82c-0.55-1.09-0.86-2.54-0.66-4.54c0.43-4.22,3.22-7.23,4.97-8.73c0.81-0.7,1.75-1.2,2.74-1.51 c1.87-0.57,3.3-0.9,4.81-1.65c0.71-0.35,1.54-0.1,1.98,0.56c0.07,0.09,0.12,0.2,0.17,0.31c0.5,1.19,1.23,2.8,2.04,4.14 c0.13,0.21,0.09,0.49-0.08,0.66c-0.67,0.64-2.3,2.28-3.89,4.48c-1.73,2.39-3.51,5.34-4.55,7.82c-0.61,1.45-0.96,2.73-0.91,3.65"></path><path class="st2" d="M286.36,236.9c0.27,2.2,0.75,4.36,1.43,6.45"></path><path class="st2" d="M295.24,243.7c2.17-0.07,7.8-0.31,13.07-1.02c0.47-0.06,0.92,0.26,1.05,0.76c0.53,2.14,1.83,7.91,1.9,13.58 c0.01,0.88-0.21,1.73-0.65,2.47c-0.26,0.45-0.61,0.95-1.04,1.43c-0.77,0.85-1.84,1.31-2.94,1.31h-2.91c-1.32,0-2.64-0.28-3.85-0.85 c-0.77-0.36-1.62-0.87-2.36-1.54c-0.6-0.55-1.03-1.28-1.26-2.09c-0.6-2.1-1.88-7.25-1.96-13 C294.3,244.18,294.71,243.71,295.24,243.7L295.24,243.7z"></path><path class="st2" d="M296.58,258.57c0,0,8.38,1.16,14.57-0.51"></path><path class="st2" d="M337.82,291.13c-0.05,2.23-0.27,3.97-0.27,3.97"></path><path class="st2" d="M347.93,268.14c-1.19-0.65-2.66-1.23-4.28-1.39c-3.13-0.3-6.49,1.35-6.49,1.35"></path><path class="st2" d="M340.59,251.43c0,0-2.09,6.26-2.77,14.64"></path><path class="st2" d="M336.93,254.56c0,0,3.84-8.38,4.82-14.2"></path><path class="st2" d="M109.97,214.43c0,0-3.4-2.32-5.36-7.46"></path><path class="st2" d="M115.52,208.39c0,0,1.53,4.14,1.85,7.11c0,0.01,0.02,0.01,0.02,0c0.08-0.67,0.68-5.87-0.2-9.5"></path><path class="st2" d="M122.33,216.85c0,0,2.73-2.11,3.06-6.77c0.32-4.66-1.55-13.01-1.69-15.87"></path><path class="st2" d="M134.33,169.14c-0.09,2.19-0.44,4.36-1.06,6.43c-0.97,3.26-2.55,6.27-3.59,9.5c-1.31,4.07-1.73,8.47-1.22,12.74 c0.42,3.48,1.44,6.98,0.84,10.43c-0.64,3.64-5.66,8.97-5.66,8.97c-20.07-6.48-37.04-0.94-37.04-0.94c-2.65-1.44-4.19-4.67-4.51-7.88 c-0.66-6.51,2.77-12.53,3.05-18.98c0.3-6.99-3.05-13.44-5.61-19.86"></path><path class="st1" d="M64.46,166.25l21.08-8.82c0.57-0.24,1.21,0.11,1.38,0.75l14.27,53.91c0.16,0.6-0.16,1.23-0.71,1.41l-20.37,6.67 c-1.48,0.49-0.28,2.77-16.28-52.51C63.66,167.08,63.94,166.47,64.46,166.25z"></path><path class="st1" d="M100.98,190.82c1.02-0.63,1.12-2.46-0.48-3.02c-1.22-0.42-2.5-0.65-3.78-0.68c-3.68-0.08-4.76-0.4-5.83,0.77 c-4.54,4.97-4.71,5.26-5.29,5.5c-1.65,0.68-8.23,3.28-12.2,3.17c0,0-8.1,1.01-7.44,8.28c0.61,6.72,8.46,5.9,8.46,5.9 c0.9-0.35,1.78-0.78,2.59-1.33c8.8-5.89,8.71-7.38,10.43-6.94c2.31,0.59,9.97,3.03,11.73,1.41c2.67-2.44,3.3-2.4,1.72-4.83 c1.16-0.93,0.52-1.81,0.04-2.81c1.16-0.77,0.36-1.88,0.15-2.23l0.03-0.01C102.81,193.69,102.7,190.98,100.98,190.82z"></path><path class="st2" d="M93.65,193.91l0.68,0.7c0.37,0.38,0.89,0.55,1.39,0.45l5.37-1.05"></path><path class="st2" d="M92.75,190.15c0,0,1.49-1.32,3.06-0.27c1.05,0.7,3.55,0.89,5.09,0.93c0.03,0,0.06,0,0.09,0.01"></path><path class="st2" d="M94.01,199.51l1.68-0.12c0.33-0.02,0.65-0.13,0.93-0.31l4.32-2.83"></path><path class="st2" d="M95.9,201.93h0.93c0.35,0,0.7-0.12,0.98-0.35l3.09-2.52"></path><path class="st8" d="M74.42,210.72c-2.59,1-5.39,1.28-7.42,1.32c-2.01,0.04-3.83-1.29-4.54-3.33c-1.43-4.08-1.25-8.39-1.25-8.39 c2.43-3.97,7.77-3.83,8-3.83h0.01c1.32-0.09,2.74,0.01,4.19,0.05c0,0-1.9,2.79-1.41,7.59C72.47,208.64,74.42,210.72,74.42,210.72z"></path><path class="st2" d="M69.21,196.49L69.21,196.49c1.33-0.09,2.75,0.01,4.2,0.05c0,0-1.9,2.79-1.41,7.59 c0.47,4.51,2.42,6.59,2.42,6.59c-2.59,1-5.39,1.28-7.42,1.32c-2.01,0.04-3.83-1.29-4.54-3.33c-1.43-4.08-1.25-8.39-1.25-8.39"></path><path class="st2" d="M69.21,196.48c-2.83,0.2-5.26,1.31-6.78,5.89"></path><path d="M131.48,180.55c0,0-3.12,10.22-0.27,16.69c-0.89,0.58-1.75,1.21-2.57,1.88c-0.06-0.42-0.12-0.84-0.17-1.26 c-0.52-4.27-0.1-8.67,1.21-12.74c0.52-1.63,1.19-3.2,1.85-4.78l0.07-0.07L131.48,180.55z"></path><path class="st1" d="M147.58,188.47c-0.6,3.36-1.92,8.02-4.79,13.44c0,0,0,0,0,0.01c-0.16,0.24-0.32,0.45-0.49,0.66 c-3.16,3.88-6.72,1.35-7.94-1.83c-1.24-3.24,1.86-7.39,2.05-7.64c0.01-0.01,0.01-0.01,0.01-0.01c3.45-3.86,4.06-7.83,4.06-7.83 l2.95-0.94C145.8,183.58,148.05,185.83,147.58,188.47z"></path><path class="st3" d="M139.07,172.52c-0.2,0.38-0.22,0.84-0.03,1.23l0.96,2.05c0.33,0.7,0.41,1.5,0.24,2.26 c-0.27,1.18-0.3,2.4-0.07,3.58c0.18,0.95,0.36,2.19,0.33,3.42c0,0,0.01,2.82,2.54,4.23c2.53,1.41,4.61-1.52,4.61-1.52 s0.84-5.63,0.86-9.59c0.02-3.54-4.79-4.26-7.82-6.13C140.11,171.7,139.4,171.9,139.07,172.52L139.07,172.52z"></path><path class="st2" d="M148.5,178.19c0.02-3.54-4.79-4.26-7.82-6.13c-0.57-0.35-1.28-0.15-1.61,0.46c-0.2,0.38-0.22,0.84-0.03,1.23 l0.96,2.05c0.33,0.7,0.41,1.5,0.24,2.27c-0.27,1.18-0.3,2.4-0.07,3.58c0.18,0.95,0.36,2.19,0.33,3.42c0,0,0,1.4,0.89,2.72"></path><path d="M151.34,165.14h0.57c0.54,0,0.99,0.48,0.99,1.07h-2.53C150.36,165.62,150.8,165.14,151.34,165.14L151.34,165.14z"></path><path class="st4" d="M153.48,169.14l0.31-1.74c0-0.66-0.49-1.19-1.09-1.19h-10.1h0c-0.6,0-1.09,0.53-1.09,1.19l0.21,1.74h-0.6 l1.85,19.77c0.05,0.56,0.43,0.98,0.87,0.98h7.62c0.44,0,0.82-0.42,0.87-0.98l1.85-19.77H153.48z"></path><path d="M154.3,167.34h-13.32c-0.37,0-0.66,0.32-0.66,0.72v1.09c0,0.4,0.3,0.72,0.66,0.72h13.32c0.37,0,0.66-0.32,0.66-0.72v-1.09 C154.97,167.66,154.67,167.34,154.3,167.34z"></path><path class="st1" d="M157.49,169.9c0.01,0.46-0.15,0.91-0.46,1.24l-0.89,0.95c-0.33,0.35-0.78,0.55-1.25,0.55h-1.01l0.32-3.08 l0.83-0.62l-0.35-0.36c-0.3-0.31-0.42-0.77-0.31-1.21c0.14-0.56,0.6-0.9,1.08-0.9c0.2,0,0.41,0.06,0.6,0.2l0.85,0.6 c0.33,0.24,0.54,0.63,0.55,1.06L157.49,169.9z"></path><path class="st2" d="M155.02,168.94l0.99,1.01"></path><path class="st1" d="M157.61,175.17l-4.32,3.76l0.55-5.84l-1.41-1.59c-0.47-0.53-0.47-1.37,0-1.91c0.25-0.28,0.57-0.42,0.9-0.42 c0.31,0,0.62,0.12,0.86,0.38l3.49,3.6C158.23,173.71,158.2,174.66,157.61,175.17z"></path><path class="st2" d="M153.84,173.09l1.68,1.89"></path><path class="st1" d="M157.52,179.53l-0.22,0.32c-0.22,0.32-0.54,0.53-0.9,0.6l-3.31,0.59l0.35-3.77l-1.01-1.2 c-0.4-0.48-0.4-1.21-0.01-1.69c0.23-0.28,0.54-0.42,0.86-0.42c0.26,0,0.53,0.1,0.74,0.29l3.24,2.96 C157.91,177.79,158.02,178.81,157.52,179.53z"></path><path class="st2" d="M153.44,177.26l1.84,2.2"></path><path class="st1" d="M152.77,184.41l1.44-0.12c0.38-0.03,0.74-0.22,1-0.53l0.32-0.38c0.27-0.32,0.31-0.8,0.08-1.16l-1.31-2.1 c-0.36-0.57-1.1-0.66-1.57-0.19c-0.37,0.38-0.43,0.99-0.15,1.45l0.4,0.65L152.77,184.41L152.77,184.41z"></path><path class="st2" d="M152.99,182.02l0.65,1.11"></path><path class="st2" d="M128.64,199.12c1.12-0.91,2.29-1.74,3.5-2.48c1.76-1.08,3.08-2.37,4.27-3.53"></path><path d="M111.46,139.21c-0.01,0.37-0.02,0.72-0.05,1.02c-0.07,0.83-0.12,1.67-0.1,2.51c-1.63-1.71-2.95-3.8-3.84-5.38 C108.78,138.12,110.19,138.73,111.46,139.21z"></path></svg>