<svg width="123" height="62" viewBox="0 0 123 62" fill="none" xmlns="http://www.w3.org/2000/svg" aria-hidden="true" variant="active" class="sc-6e4065-0 sc-6e4065-2 cxIKNM dlvcNc sc-62d76f46-5 dOrBBr"><mask id="mask0_25829_24414" maskUnits="userSpaceOnUse" x="0" y="0" width="123" height="62" style="mask-type: luminance;"><path d="M123 0H0V61.7939H123V0Z" fill="white"></path></mask><g mask="url(#mask0_25829_24414)"><mask id="mask1_25829_24414" maskUnits="userSpaceOnUse" x="0" y="0" width="123" height="62" style="mask-type: luminance;"><path d="M123 0.842468H0V61.3443H123V0.842468Z" fill="white"></path></mask><g mask="url(#mask1_25829_24414)"><path d="M26.6694 48.4925L24.3945 51.8622C24.3945 51.8622 24.0263 52.2936 23.4688 51.761C22.911 51.2284 22.7816 51.1998 22.5516 51.214C22.3485 51.2267 21.8909 50.4393 21.2947 49.985C21.212 49.9218 21.1266 49.8646 21.0392 49.8176C20.3193 49.4289 17.8718 47.6005 17.0508 45.3679C16.4761 43.8051 15.93 40.1236 17.2858 38.4088C18.2299 37.2149 20.1192 37.4983 20.6945 38.9065C20.8112 39.1916 20.9467 39.5026 21.0984 39.818C21.4565 40.5621 21.9043 41.329 22.407 41.826C23.6746 43.0788 24.1638 43.1363 24.2647 44.0152C24.3652 44.8931 24.0919 45.6271 24.841 46.1029C25.5891 46.5776 27.0006 47.4559 26.6694 48.4925Z" fill="#0564FF"></path><path d="M24.3944 51.8621C24.3944 51.8621 23.2189 51.6564 23.1291 49.9395C23.0393 48.2227 24.1536 47.6081 24.7918 47.5126C25.6492 47.3852 26.3462 47.8273 26.6697 48.4924L26.8859 48.9147L24.395 51.8621H24.3944Z" fill="#0564FF"></path><path d="M23.8683 47.944C24.178 47.6821 24.5264 47.5526 24.7927 47.5126C25.649 47.3852 26.3471 47.8273 26.6702 48.4924" stroke="black" stroke-width="0.213622" stroke-miterlimit="10" stroke-linecap="round"></path><path d="M24.3947 51.8617C24.3947 51.8617 23.2189 51.6553 23.1291 49.9391" stroke="black" stroke-width="0.213622" stroke-miterlimit="10" stroke-linecap="round"></path><path d="M23.9567 22.8227C23.7489 23.0826 23.3965 23.4488 22.8952 23.7164C22.6793 23.8311 22.4365 23.9272 22.1659 23.9901L19.3405 19.5538L19.8653 19.2532L21.4019 18.373C21.4019 18.373 22.843 20.0673 24.0094 22.1818C24.1227 22.3863 24.1029 22.6398 23.9567 22.8227Z" fill="#0564FF"></path><path d="M24.8575 16.6708L23.7139 18.288L20.9696 22.1682L15.352 16.356L17.2888 11.7554L19.4925 8.70438L24.5582 16.2273L24.8575 16.6708Z" fill="white"></path><path d="M24.8578 16.6716L23.7143 18.2885C22.0651 16.68 22.1199 15.1306 22.1199 15.1306L24.5589 16.2278L24.8578 16.6716Z" fill="black"></path><path d="M17.2888 11.7554L15.352 16.356L20.9696 22.1682L24.8575 16.6708L19.4925 8.70438L17.2888 11.7554Z" stroke="black" stroke-width="0.213622" stroke-miterlimit="10" stroke-linecap="round"></path><path d="M29.1509 12.3919L28.4233 10.3897C28.3439 10.1725 28.3042 9.94316 28.3036 9.71251C28.2891 3.99015 26.4876 3.5665 26.4876 3.5665L18.7397 6.15785L19.6872 11.2555C20.1852 13.9322 21.8734 16.2371 24.2762 17.5188L25.5777 18.2132C25.8104 18.3379 26.0733 18.4041 26.3376 18.3863C26.9953 18.3429 27.5144 17.8527 27.6143 17.2263C27.8251 15.8975 27.9808 14.6978 28.0907 13.6145C28.1012 13.5072 28.1718 13.4151 28.2736 13.3768L28.7871 13.1838C29.1052 13.0641 29.2676 12.711 29.1516 12.3919H29.1509Z" fill="white"></path><path d="M21.6803 15.4318C22.3988 16.2734 23.2754 16.9856 24.2764 17.5188L25.5783 18.2132C25.8109 18.3379 26.0739 18.4041 26.3378 18.3863C26.9958 18.3429 27.515 17.8527 27.6148 17.2263C27.8253 15.8975 27.9813 14.6978 28.0909 13.6145C28.1017 13.5072 28.1723 13.4151 28.2742 13.3768L28.7876 13.1838C29.1057 13.0641 29.2681 12.711 29.1521 12.3919L28.4242 10.3897C28.3451 10.1725 28.3055 9.94316 28.3048 9.71251C28.2903 3.99015 26.4888 3.5665 26.4888 3.5665L18.7409 6.15785" stroke="black" stroke-width="0.213622" stroke-miterlimit="10" stroke-linecap="round"></path><path d="M22.3269 10.5911C22.3168 9.88229 22.3269 7.52698 22.8638 5.88414C22.9627 5.58086 23.2354 5.36701 23.5538 5.33877C23.9367 5.30447 24.5016 5.29372 25.124 5.41072C25.9649 5.56808 27.097 5.72611 27.8966 5.56068C28.3088 5.47528 28.5156 5.01263 28.3011 4.6495C27.8804 3.93668 26.9276 2.72825 24.9636 1.79891C22.5531 0.659075 19.1316 0.182636 16.5213 2.34428C15.4411 3.23967 14.7924 4.54963 14.7169 5.95038C14.6606 6.98934 14.6507 8.31309 14.8558 9.28279C15.2168 10.9875 16.3077 12.3903 16.3582 13.4235C16.3703 13.6713 16.5128 13.8956 16.7285 14.0173C16.8254 14.0721 16.9414 14.1205 17.0788 14.1528C17.3914 14.2247 17.7076 14.0543 17.8223 13.7554C17.9682 13.3737 18.1518 12.75 18.1932 11.9518C18.2154 11.5245 18.3485 11.1109 18.5778 10.7498L19.2543 9.6866C19.4658 9.35407 19.9349 9.31271 20.2012 9.60322C20.4322 9.85539 20.6622 10.2585 20.7681 10.8994C20.8057 11.1264 21.0179 11.2804 21.2459 11.2487C21.5058 11.2134 21.8397 11.1341 22.1224 10.9569C22.2499 10.8772 22.3275 10.739 22.3255 10.5887L22.3269 10.5911Z" fill="black"></path><path d="M17.6481 11.4556C18.1294 12.5672 19.0836 13.1096 19.7793 12.6667C20.475 12.2233 20.6502 10.9634 20.1687 9.85214C19.6875 8.74055 18.7333 8.19787 18.0376 8.64069C17.3419 9.08283 17.1667 10.3427 17.6481 11.455V11.4563V11.4556Z" fill="white"></path><path d="M20.3915 10.5855C20.3475 10.3403 20.2742 10.0925 20.1699 9.85214C19.6888 8.74055 18.7346 8.19787 18.0389 8.64069C17.3431 9.08283 17.1679 10.3427 17.6493 11.455V11.4563C18.1307 12.5679 19.0849 13.1106 19.7806 12.6674" stroke="black" stroke-width="0.213622" stroke-miterlimit="10" stroke-linecap="round"></path><path d="M19.325 11.8144C17.9679 10.8804 17.8369 9.6847 18.4108 9.50179C18.8237 9.37066 19.2191 9.84778 19.3798 10.0751C19.4134 10.1225 19.3798 10.1954 19.3172 10.2139C19.2103 10.2439 19.0809 10.3172 19.0668 10.4772C19.0446 10.7556 19.3542 10.8938 19.3542 10.8938" stroke="black" stroke-width="0.213622" stroke-miterlimit="10" stroke-linecap="round"></path><path d="M23.0032 24.5973C22.6529 25.1746 22.1176 25.6433 21.7992 25.8918C21.6654 25.9964 21.4724 25.9607 21.3819 25.8198C21.3792 25.8155 21.3762 25.8118 21.3742 25.8077C18.5421 20.9192 15.2809 17.8367 14.5382 17.1665C14.5062 17.1376 14.4834 17.1027 14.4691 17.064C14.4435 16.9944 14.4485 16.9147 14.4884 16.8461L15.7138 14.7463C15.7501 14.6845 15.8157 14.6502 15.8819 14.6502C15.9218 14.6502 15.9624 14.6623 15.9972 14.6878C16.1226 14.7806 16.176 14.9414 16.1311 15.091C16.0727 15.2867 16.1375 15.4982 16.2935 15.6306C20.3601 19.0757 22.477 22.8896 23.0274 23.9712C23.1286 24.1699 23.1196 24.407 23.0032 24.5973Z" fill="#0564FF"></path><path d="M21.4888 21.4105C22.164 22.3993 22.627 23.2127 22.8946 23.716" stroke="black" stroke-width="0.213622" stroke-miterlimit="10" stroke-linecap="round"></path><path d="M21.3485 49.6986C21.2154 50.0691 21.3485 50.452 21.3485 50.452H1.22896C0.902844 50.2328 0.760415 49.9181 0.704163 49.6316C0.637253 49.2887 0.707727 48.934 0.877222 48.6283C1.20048 48.049 1.49172 47.3846 1.72884 46.7847C2.11621 45.8073 2.37827 44.7855 2.51711 43.7428C3.53112 36.1295 4.98729 30.9983 6.05184 27.994C6.79811 25.8885 7.95378 23.9501 9.44202 22.2841C11.8225 19.6201 14.6822 16.8139 14.6822 16.8139C20.0991 20.6019 21.6384 25.1344 21.6619 25.205C21.6626 25.205 21.6626 25.2056 21.6626 25.2056C19.973 28.1494 20.2087 36.2277 20.2087 36.2277C20.2087 36.2277 20.4195 36.6883 20.6421 37.3349C20.8287 37.8763 21.0241 38.5477 21.1115 39.1886C21.3045 40.595 19.7501 42.0012 19.5463 43.1407C19.3436 44.2805 20.0312 44.4288 20.2675 45.2283C20.3412 45.4748 20.2292 45.8329 20.0399 46.2101C19.9878 47.5319 20.5802 48.2595 21.0674 48.5886C21.6148 48.9582 21.4817 49.3284 21.3485 49.6986Z" fill="#0564FF"></path><path d="M21.0984 39.7752C20.8966 40.9813 19.7211 42.1591 19.546 43.1396C19.3429 44.2798 20.0308 44.4277 20.2672 45.2276C20.3405 45.4737 20.2288 45.8321 20.0392 46.2094C19.9874 47.5311 20.5799 48.2587 21.0667 48.5876C21.6145 48.9574 21.4813 49.3276 21.3482 49.6978C21.3189 49.7799 21.3024 49.8629 21.2947 49.9419" stroke="black" stroke-width="0.213622" stroke-miterlimit="10" stroke-linecap="round"></path><path d="M14.4692 17.0233C14.4692 17.0233 14.472 17.0206 14.4734 17.0189C14.5945 16.8986 14.7846 16.8851 14.9228 16.985C20.1857 20.7673 21.6617 25.2059 21.6617 25.2059" stroke="black" stroke-width="0.213622" stroke-miterlimit="10" stroke-linecap="round"></path><path d="M20.0401 46.2106C19.6165 47.0559 18.8024 47.9966 18.8024 47.9966" stroke="black" stroke-width="0.213622" stroke-miterlimit="10" stroke-linecap="round"></path><path d="M17.5159 33.6328C17.5159 33.6328 14.454 37.4924 4.49493 46.5791" stroke="black" stroke-width="0.213622" stroke-miterlimit="10" stroke-linecap="round"></path><path d="M15.6987 34.4037C15.6239 34.4534 9.89813 36.9429 9.89813 36.9429" stroke="black" stroke-width="0.213622" stroke-miterlimit="10" stroke-linecap="round"></path><path d="M5.88859 40.7279C5.88859 40.7279 4.06213 41.9596 3.14996 43.1424" stroke="black" stroke-width="0.213622" stroke-miterlimit="10" stroke-linecap="round"></path><path d="M10.5197 35.0758C10.5197 35.0758 12.3619 34.4534 14.926 34.4037" stroke="black" stroke-width="0.213622" stroke-miterlimit="10" stroke-linecap="round"></path><path d="M14.6818 34.4049C14.6818 34.4049 12.8596 33.2348 10.5197 32.6373" stroke="black" stroke-width="0.213622" stroke-miterlimit="10" stroke-linecap="round"></path><path d="M102.825 20.749C103.275 21.36 103.604 22.0876 104.217 22.5348C105.115 23.1908 106.339 23.0603 107.434 23.2563C107.706 23.3047 107.977 23.3767 108.221 23.5055C108.812 23.8182 109.191 24.4496 109.311 25.1076C109.432 25.7656 109.319 26.4462 109.116 27.0837C108.865 27.8742 108.456 28.6401 107.808 29.1565C107.159 29.6727 106.237 29.8956 105.474 29.5715C104.461 29.1414 104.029 27.9646 103.279 27.1576C102.854 26.6997 102.316 26.3567 101.744 26.1046C101.039 25.7932 100.247 25.5938 99.7127 25.0394C99.1629 24.4681 99.0012 23.6423 98.703 22.908C98.44 22.2614 98.0577 21.6632 97.8647 20.9925C97.6717 20.3217 97.7104 19.5221 98.2016 19.0265C98.705 18.5181 99.4121 18.6049 100.025 18.8264C100.719 19.0763 101.368 19.359 101.944 19.8284C102.275 20.0967 102.572 20.4064 102.824 20.749H102.825Z" fill="black"></path><path d="M30.9573 50.4937H122.892" stroke="black" stroke-width="0.213622" stroke-miterlimit="10" stroke-linecap="round"></path><path d="M0.106934 50.4937H21.8275" stroke="black" stroke-width="0.213622" stroke-miterlimit="10" stroke-linecap="round"></path><path d="M100.004 50.4861H93.8926L89.5437 42.8214L88.8995 32.8988L90.5978 26.894L91.6701 23.1043L97.0811 19.324L98.499 21.0207L99.6603 23.6413L99.6425 24.4244L99.2948 39.8366L100.004 50.4861Z" fill="white"></path><path d="M95.8173 50.256C95.8173 50.256 98.2456 48.8987 98.4113 45.0522" stroke="black" stroke-width="0.213622" stroke-miterlimit="10" stroke-linecap="round"></path><path d="M99.6611 23.6446L99.6433 24.428C98.3656 28.8713 97.0048 31.9744 94.4522 31.9596C92.5212 31.9482 91.3161 29.4012 90.5986 26.8973L91.6708 23.1079L97.0819 19.3273L98.4997 21.0243L99.6611 23.6446Z" fill="white"></path><path d="M99.6611 23.6446L99.6433 24.428C98.3656 28.8713 97.0048 31.9744 94.4522 31.9596C92.5212 31.9482 91.3161 29.4012 90.5986 26.8973L91.6708 23.1079L97.0819 19.3273L98.4997 21.0243L99.6611 23.6446Z" stroke="black" stroke-width="0.213622" stroke-miterlimit="10" stroke-linecap="round"></path><path d="M99.4166 18.0187C99.5228 17.9316 99.6674 17.9067 99.7948 17.9568C100.112 18.0805 100.643 18.411 100.352 19.1857C100.154 19.7113 99.9287 19.8279 99.814 19.8515C99.7626 19.8622 99.7158 19.8864 99.6809 19.9254C99.5141 20.1151 99.0171 20.572 98.6056 19.8293C98.194 19.0865 99.0464 18.3206 99.4173 18.018L99.4166 18.0187Z" fill="#0564FF"></path><path d="M72.9099 37.5527H74.6828C74.9024 37.5527 75.1146 37.4673 75.2689 37.3113C75.4606 37.1176 75.7632 36.892 76.0715 36.9748C76.1835 37.0047 76.3038 36.9788 76.402 36.9176C77.0358 36.5188 79.0936 35.1709 80.0962 33.8629C81.2902 32.3062 80.9825 32.4322 81.7888 32.215C83.1096 31.86 83.0006 31.0574 83.4744 30.7127C83.7676 30.4989 84.2662 30.8728 84.3637 30.2235C84.4612 29.5739 84.9091 28.5245 86.3105 28.5245L86.7611 37.4761C86.7611 37.4761 84.0893 41.2123 74.977 43.5905C74.5093 43.7122 74.005 43.5548 73.7094 43.1725C73.622 43.0592 73.5393 42.921 73.4674 42.7509L72.9099 37.5527Z" fill="#CCDFFF"></path><path d="M72.9099 37.5527H74.6828C74.9024 37.5527 75.1146 37.4673 75.2689 37.3113C75.4606 37.1176 75.7632 36.892 76.0715 36.9748C76.1835 37.0047 76.3038 36.9788 76.402 36.9176C77.0358 36.5188 79.0936 35.1709 80.0962 33.8629C81.2902 32.3062 80.9829 32.4322 81.7888 32.215C83.1096 31.86 83.0006 31.0574 83.4744 30.7127C83.7676 30.4989 84.2662 30.8728 84.3637 30.2235C84.4612 29.5739 84.9091 28.5245 86.3105 28.5245L86.7611 37.4761C86.7611 37.4761 84.0893 41.2123 74.977 43.5905C74.5093 43.7122 74.005 43.5548 73.7094 43.1725C73.622 43.0592 73.5393 42.921 73.4674 42.7509L72.9099 37.5527Z" stroke="black" stroke-width="0.213622" stroke-miterlimit="10" stroke-linecap="round"></path><path d="M55.4855 32.5987L55.5544 32.5724C55.8052 32.4769 56.0863 32.4991 56.3193 32.633C56.3953 32.6763 56.4703 32.719 56.5271 32.7513C58.4349 33.8178 60.4685 34.6453 62.5807 35.2136L66.3297 36.2226C67.6561 36.5793 69.0162 36.7901 70.387 36.8755C71.2707 36.9304 72.3059 37.0985 72.9091 37.5527C72.9091 37.5527 75.2107 39.8576 74.6017 42.9957C74.5755 43.1295 74.4437 43.2159 74.3106 43.1867L70.0488 42.2489C67.8982 41.7751 65.8005 41.0875 63.7874 40.1945L57.1488 37.2494C56.0423 36.7585 55.3288 35.6614 55.3288 34.451V33.3259L55.4855 32.5993V32.5987Z" fill="white"></path><path d="M55.4855 32.5987L55.5544 32.5724C55.8052 32.4769 56.0863 32.4991 56.3193 32.633C56.3953 32.6763 56.4703 32.719 56.5271 32.7513C58.4349 33.8178 60.4685 34.6453 62.5807 35.2136L66.3297 36.2226C67.6561 36.5793 69.0162 36.7901 70.387 36.8755C71.2707 36.9304 72.3059 37.0985 72.9091 37.5527C72.9091 37.5527 75.2107 39.8576 74.6017 42.9957C74.5755 43.1295 74.4437 43.2159 74.3106 43.1867L70.0488 42.2489C67.8982 41.7751 65.8005 41.0875 63.7874 40.1945L57.1488 37.2494C56.0423 36.7585 55.3288 35.6614 55.3288 34.451V33.3259L55.4855 32.5993V32.5987Z" stroke="black" stroke-width="0.213622" stroke-miterlimit="10" stroke-linecap="round"></path><path d="M93.8941 50.4938H88.4296C83.7142 35.7731 85.7771 27.607 86.6002 25.285C86.7498 24.8627 87.0951 24.5366 87.5261 24.4135C88.7373 24.0675 89.6979 23.6785 90.4141 23.3362L90.4211 23.3325C90.4262 23.3305 90.4312 23.3275 90.4363 23.3254C90.7994 23.1509 91.2358 23.2925 91.4244 23.6486L91.6339 24.0423L89.3959 33.5022L90.0247 42.9665L93.8941 50.4938Z" fill="#CCDFFF"></path><path d="M93.8941 50.4938H88.4296C83.7142 35.7731 85.7771 27.607 86.6002 25.285C86.7498 24.8627 87.0951 24.5366 87.5261 24.4135C88.7373 24.0675 89.6979 23.6785 90.4141 23.3362L90.4211 23.3325C90.4262 23.3305 90.4312 23.3275 90.4363 23.3254C90.7994 23.1509 91.2358 23.2925 91.4244 23.6486L91.6339 24.0423L89.3959 33.5022L90.0247 42.9665L93.8941 50.4938Z" stroke="black" stroke-width="0.213622" stroke-miterlimit="10" stroke-linecap="round"></path><path d="M94.3096 50.4567H93.7101C90.4866 47.4074 88.6474 42.7876 88.0257 41.0109C87.864 40.5489 87.7715 40.0647 87.7564 39.5755C87.6327 35.5538 88.1659 31.8381 88.7869 28.9748C88.8138 28.848 88.8959 28.7407 89.0089 28.6779L89.9419 28.1668C90.0485 28.1076 90.063 27.9603 89.9688 27.882L89.3501 27.3699C89.256 27.2922 89.2156 27.1675 89.2462 27.0502C89.8548 24.714 90.416 23.2988 90.416 23.2988L90.4231 23.2954C90.7879 23.1088 91.2344 23.2497 91.4264 23.6115L91.6359 24.0052L92.1429 24.9608C92.3672 25.3838 92.4448 25.8703 92.3628 26.3424C90.7287 35.7552 90.263 39.5355 90.6739 41.9002C90.9429 43.452 92.3578 45.7989 93.0948 47.2467C93.8318 48.6935 94.3096 50.4574 94.3096 50.4574V50.4567Z" fill="#0564FF"></path><path d="M94.3096 50.4567H93.7101C90.4866 47.4074 88.6474 42.7876 88.0257 41.0109C87.864 40.5489 87.7715 40.0647 87.7564 39.5755C87.6327 35.5538 88.1659 31.8381 88.7869 28.9748C88.8138 28.848 88.8959 28.7407 89.0089 28.6779L89.9419 28.1668C90.0485 28.1076 90.063 27.9603 89.9688 27.882L89.3501 27.3699C89.256 27.2922 89.2156 27.1675 89.2462 27.0502C89.8548 24.714 90.416 23.2988 90.416 23.2988L90.4231 23.2954C90.7879 23.1088 91.2344 23.2497 91.4264 23.6115L91.6359 24.0052L92.1429 24.9608C92.3672 25.3838 92.4448 25.8703 92.3628 26.3424C90.7287 35.7552 90.263 39.5355 90.6739 41.9002C90.9429 43.452 92.3578 45.7989 93.0948 47.2467C93.8318 48.6935 94.3096 50.4574 94.3096 50.4574V50.4567Z" stroke="#0564FF" stroke-width="0.213622" stroke-miterlimit="10" stroke-linecap="round"></path><path d="M87.7498 21.8867C89.4825 22.8285 90.8725 24.2949 91.7204 26.0749L92.4847 27.6787C92.6468 28.0183 93.0946 28.0987 93.3646 27.8361L96.6977 24.5938C97.2703 24.0363 97.5817 23.2636 97.5545 22.4647L97.2959 14.8635C97.2434 13.3074 95.6695 12.2701 94.219 12.8347C93.6921 13.0398 93.2392 13.3985 92.9188 13.8635L87.6594 21.5048C87.5706 21.6339 87.6133 21.8111 87.7505 21.8857L87.7498 21.8867Z" fill="white"></path><path d="M92.3154 27.3233L91.7199 26.0742C90.8719 24.2942 89.4819 22.8279 87.7496 21.8857C87.6121 21.8111 87.5694 21.6339 87.6582 21.5048L92.9175 13.8635C93.238 13.3979 93.6909 13.0391 94.2181 12.8347C95.6683 12.2701 97.2422 13.3074 97.295 14.8635L97.4564 19.6192C97.4601 19.7275 97.4998 19.8307 97.569 19.9134" stroke="black" stroke-width="0.213622" stroke-miterlimit="10" stroke-linecap="round"></path><path d="M91.9268 10.3567L89.1246 8.87555C88.8613 8.73601 88.5416 8.74945 88.2944 8.91555C87.6636 9.33853 86.5477 10.4814 85.968 13.4456C85.9055 13.7647 85.8507 14.0865 85.8023 14.4089C85.7801 14.5552 85.733 14.6954 85.662 14.8242C85.3894 15.3134 85.039 15.9448 84.7831 16.4052C84.5874 16.7575 84.6806 17.1997 85.001 17.4431L85.3978 17.745C85.459 17.7921 85.4939 17.8654 85.4909 17.9424C85.4532 19.0459 85.4667 20.0435 85.4953 20.8233C85.5296 21.7533 86.3133 22.4782 87.2433 22.4412C87.4878 22.4311 87.7262 22.3686 87.9441 22.257C90.7896 20.797 92.9365 18.2642 93.9119 15.2186C94.5164 13.331 93.6806 11.2816 91.9281 10.3553L91.9268 10.3567Z" fill="white"></path><path d="M91.9268 10.3567L89.1246 8.87555C88.8613 8.73601 88.5416 8.74945 88.2944 8.91555C87.6636 9.33853 86.5477 10.4814 85.968 13.4456C85.9055 13.7647 85.8507 14.0865 85.8023 14.4089C85.7801 14.5552 85.733 14.6954 85.662 14.8242C85.3894 15.3134 85.039 15.9448 84.7831 16.4052C84.5874 16.7575 84.6806 17.1997 85.001 17.4431L85.3978 17.745C85.459 17.7921 85.4939 17.8654 85.4909 17.9424C85.4532 19.0459 85.4667 20.0435 85.4953 20.8233C85.5296 21.7533 86.3133 22.4782 87.2433 22.4412C87.4878 22.4311 87.7262 22.3686 87.9441 22.257C88.9518 21.7398 89.8717 21.0882 90.6827 20.3276" stroke="black" stroke-width="0.213622" stroke-miterlimit="10" stroke-linecap="round"></path><path d="M86.2741 18.8012C86.6527 18.7451 87.4311 18.5833 88.1574 18.1489C88.2663 18.0834 88.3988 18.1873 88.3618 18.3086C88.2613 18.6318 88.0313 19.1401 87.5088 19.6442C87.152 19.9881 86.5687 19.939 86.2889 19.5298C86.2099 19.4142 86.141 19.2683 86.0915 19.086C86.0569 18.9542 86.14 18.8204 86.2748 18.8006L86.2741 18.8012Z" fill="black"></path><path d="M86.3252 13.6374C86.3252 13.6374 87.2656 12.3278 88.6142 13.9962" stroke="black" stroke-width="0.213622" stroke-miterlimit="10" stroke-linecap="round"></path><path d="M87.0409 14.5544C87.0409 14.5544 87.4706 14.3514 87.7645 14.6839" stroke="black" stroke-width="0.213622" stroke-miterlimit="10" stroke-linecap="round"></path><path d="M92.6304 17.049C92.6004 17.0712 92.5608 17.0406 92.5749 17.0063C92.7521 16.5756 93.1959 15.111 91.9545 13.3821C89.8655 10.471 86.6474 11.4679 87.0398 9.14081C87.4691 6.5925 94.7873 4.58284 99.2219 8.4902C102.201 11.1148 100.759 15.9321 99.9078 17.7941C99.8722 17.8714 99.8544 17.9542 99.8537 18.0396C99.8523 18.3566 99.7562 19.2423 98.7962 19.9473C98.728 19.9971 98.6732 20.0627 98.6318 20.136C98.4438 20.4658 97.8292 21.3424 96.9278 20.5973C95.8347 19.6945 96.2086 17.5164 95.6518 16.5793L94.4527 15.692L92.6317 17.0483L92.6304 17.049Z" fill="black"></path><path d="M89.9062 11.2326C89.9062 11.2326 92.7881 13.3156 91.6984 17.9889" stroke="black" stroke-width="0.213622" stroke-miterlimit="10" stroke-linecap="round"></path><path d="M96.1534 16.6338C96.1534 16.6338 94.3556 21.7506 96.3955 22.5424C98.0175 23.1718 98.7448 17.748 98.7448 17.748" stroke="black" stroke-width="0.213622" stroke-miterlimit="10" stroke-linecap="round"></path><path d="M95.2169 17.7144C94.6638 18.792 93.6753 19.2705 93.0102 18.7826C92.3451 18.2941 92.254 17.0251 92.8071 15.9478C93.3606 14.8705 94.3487 14.3921 95.0138 14.88C95.6789 15.3675 95.7703 16.6358 95.2169 17.7131V17.7144Z" fill="white"></path><path d="M92.8084 15.9478C93.3619 14.8705 94.3501 14.3921 95.0151 14.88C95.6802 15.3675 95.7717 16.6358 95.2182 17.7131V17.7144C94.6648 18.792 93.6766 19.2705 93.0115 18.7826C92.719 18.5678 92.5371 18.2016 92.4725 17.7665" stroke="black" stroke-width="0.213622" stroke-miterlimit="10" stroke-linecap="round"></path><path d="M93.5213 17.9602C94.9375 17.118 95.147 15.9338 94.5858 15.7132C94.1827 15.5552 93.7563 16.0051 93.5811 16.2209C93.5448 16.2663 93.5741 16.3403 93.6346 16.3631C93.7392 16.4001 93.8639 16.4815 93.8673 16.6432C93.871 16.9223 93.5526 17.0396 93.5526 17.0396" stroke="black" stroke-width="0.213622" stroke-miterlimit="10" stroke-linecap="round"></path><path d="M112.501 48.772V50.4908H100.006L99.2221 31.7485L100.973 23.4086L101.373 23.2469C101.373 23.2469 101.734 22.9174 102.046 23.0683C102.356 23.2186 102.176 23.489 102.526 23.489C102.876 23.489 103.336 23.2734 103.694 23.489C104.052 23.7041 104.621 23.9583 105.765 24.0239C106.521 24.0666 107.933 24.5955 108.804 24.9489C109.271 25.1382 109.613 25.5477 109.717 26.042L110.717 30.8007C111.521 34.6294 111.75 38.5573 111.395 42.4535C111.27 43.8274 111.173 45.22 111.162 46.3165C111.188 46.333 111.214 46.3501 111.239 46.3673C112.034 46.9056 112.501 47.8121 112.501 48.772Z" fill="#CCDFFF"></path><path d="M112.501 48.772V50.4908H100.006L99.2221 31.7485L100.973 23.4086L101.373 23.2469C101.373 23.2469 101.734 22.9174 102.046 23.0683C102.356 23.2186 102.176 23.489 102.526 23.489C102.876 23.489 103.336 23.2734 103.694 23.489C104.052 23.7041 104.621 23.9583 105.765 24.0239C106.521 24.0666 107.933 24.5955 108.804 24.9489C109.271 25.1382 109.613 25.5477 109.717 26.042L110.717 30.8007C111.521 34.6294 111.75 38.5573 111.395 42.4535C111.27 43.8274 111.173 45.22 111.162 46.3165C111.188 46.333 111.214 46.3501 111.239 46.3673C112.034 46.9056 112.501 47.8121 112.501 48.772Z" stroke="black" stroke-width="0.213622" stroke-miterlimit="10" stroke-linecap="round"></path><path d="M111.162 46.3161C110.637 45.9728 110.058 45.7287 109.417 45.4466C108.176 44.9005 106.494 43.4322 106.494 43.4322" stroke="black" stroke-width="0.213622" stroke-miterlimit="10" stroke-linecap="round"></path><path d="M101.142 29.8838C101.22 29.9016 101.275 29.9692 101.278 30.0492C101.402 34.0971 101.227 40.347 101.206 41.967C101.182 43.8163 100.792 46.5657 100.646 48.0259C100.5 49.4859 100.874 50.4515 100.874 50.4515H98.9735C98.9735 50.4515 98.1548 48.4896 97.5567 46.1619C96.9592 43.8341 97.0846 39.7176 97.0846 39.7176L98.3875 20.8485L101.374 23.2076C101.374 23.2076 101.264 23.9765 101.193 25.1651C101.115 26.4902 101.184 28.0375 101.207 28.481C101.211 28.5594 101.175 28.6333 101.111 28.6791L100.022 29.4561C99.952 29.5052 99.9742 29.6141 100.057 29.6333L101.142 29.8838Z" fill="#0564FF"></path><path d="M101.142 29.8838C101.22 29.9016 101.275 29.9692 101.278 30.0492C101.402 34.0971 101.227 40.347 101.206 41.967C101.182 43.8163 100.792 46.5657 100.646 48.0259C100.5 49.4859 100.874 50.4515 100.874 50.4515H98.9735C98.9735 50.4515 98.1548 48.4896 97.5567 46.1619C96.9592 43.8341 97.0846 39.7176 97.0846 39.7176L98.3875 20.8485L101.374 23.2076C101.374 23.2076 101.264 23.9765 101.193 25.1651C101.115 26.4902 101.184 28.0375 101.207 28.481C101.211 28.5594 101.175 28.6333 101.111 28.6791L100.022 29.4561C99.952 29.5052 99.9742 29.6141 100.057 29.6333L101.142 29.8838Z" stroke="#0564FF" stroke-width="0.213622" stroke-miterlimit="10" stroke-linecap="round"></path><path d="M114.282 32.3469C114.297 32.6885 114.263 33.1038 114.184 33.63" stroke="black" stroke-width="0.213622" stroke-miterlimit="10" stroke-linecap="round"></path><path d="M120.094 45.2392L113.918 47.0562C113.918 47.0562 113.502 47.2199 113.6 46.2879C113.479 46.2771 113.296 46.2744 113.064 46.3084C112.829 46.3427 112.593 46.2566 112.437 46.0784C112.166 45.7688 111.771 45.2177 111.516 44.4174C111.096 43.1014 111.242 42.9747 110.541 42.8089C109.839 42.6435 109.264 42.0974 108.747 41.2494C108.231 40.4018 106.79 38.6988 105.288 35.9259C104.428 34.3395 103.81 32.9038 103.448 31.9882C103.034 30.9456 102.873 29.8162 103.01 28.7026C103.074 28.1794 103.206 27.631 103.45 27.1397C104.41 25.2108 106.767 23.9032 108.983 25.0312C108.983 25.0312 111.622 25.8843 111.856 29.1625C112.064 29.57 112.38 30.0014 112.859 30.336C113.795 30.9906 114.24 31.3686 114.282 32.3483C114.725 32.5534 115.355 32.9529 115.597 33.6314C116.003 34.7709 115.868 35.2181 116.315 36.1928C116.673 36.9749 119.451 42.1509 120.538 44.173C120.763 44.5889 120.546 45.105 120.094 45.2392Z" fill="#CCDFFF"></path><path d="M108.983 25.0296C108.983 25.0296 111.622 25.8826 111.856 29.1612C112.064 29.5684 112.38 29.9998 112.859 30.3347C113.795 30.989 114.241 31.3673 114.283 32.347C114.725 32.5521 115.355 32.9516 115.598 33.6301C116.003 34.7693 115.868 35.2165 116.315 36.1915C116.674 36.9733 119.451 42.1493 120.539 44.1717C120.763 44.5873 120.547 45.1037 120.094 45.2376L113.918 47.0549C113.918 47.0549 113.502 47.2186 113.6 46.2863C113.479 46.2758 113.296 46.2728 113.064 46.3071C112.829 46.3414 112.593 46.255 112.438 46.0771C112.166 45.7675 111.771 45.216 111.516 44.4158C111.097 43.0998 111.243 42.973 110.541 42.8073C109.839 42.6422 109.265 42.0958 108.747 41.2478C108.231 40.4005 106.791 38.6971 105.288 35.9242" stroke="black" stroke-width="0.213622" stroke-miterlimit="10" stroke-linecap="round"></path><path d="M113.728 45.5853C113.66 45.8701 113.62 46.1001 113.6 46.2867" stroke="black" stroke-width="0.213622" stroke-miterlimit="10" stroke-linecap="round"></path><path d="M111.873 29.6174C111.873 29.4607 111.867 29.3091 111.856 29.1621" stroke="black" stroke-width="0.213622" stroke-miterlimit="10" stroke-linecap="round"></path><path d="M109.145 25.0938C109.145 25.0938 102.7 28.4467 106.169 36.5425" stroke="black" stroke-width="0.213622" stroke-miterlimit="10" stroke-linecap="round"></path><path d="M113.81 47.0752C113.81 47.0752 113.514 45.5299 115.785 43.9291C118.057 42.3286 120.59 44.2939 120.59 44.2939L120.981 45.2878C121.472 46.5369 121.235 47.9558 120.359 48.9719C118.198 51.4779 112.798 55.2033 100.483 53.075C100.483 53.075 98.2525 52.6584 98.6456 50.3841C98.6456 50.3841 101.079 50.0842 103.866 49.6087C107.627 48.9665 111.008 47.4061 113.811 47.0752H113.81Z" fill="white"></path><path d="M113.81 47.0752C113.81 47.0752 113.514 45.5299 115.785 43.9291C118.057 42.3286 120.59 44.2939 120.59 44.2939L120.981 45.2878C121.472 46.5369 121.235 47.9558 120.359 48.9719C118.198 51.4779 112.798 55.2033 100.483 53.075C100.483 53.075 98.2525 52.6584 98.6456 50.3841C98.6456 50.3841 101.079 50.0842 103.866 49.6087C107.627 48.9665 111.008 47.4061 113.811 47.0752H113.81Z" stroke="black" stroke-width="0.213622" stroke-miterlimit="10" stroke-linecap="round"></path><path d="M100.482 53.045C100.482 53.045 98.2548 53.2413 97.2599 53.045C96.9055 52.975 96.7172 52.8469 96.6335 52.668L94.1198 53.9508C93.9796 54.0224 93.8122 54.0197 93.674 53.942C93.5139 53.8529 93.4312 53.6915 93.4312 53.5285C93.4312 53.3883 93.4924 53.247 93.6185 53.1515L95.4049 51.7958L90.8677 53.6979C90.7417 53.7514 90.5957 53.7272 90.4932 53.6361C90.4135 53.5648 90.3742 53.4673 90.3742 53.3694C90.3742 53.2598 90.4239 53.1502 90.5231 53.0799L92.4612 51.6933C92.5324 51.6422 92.6057 51.5938 92.6807 51.548L92.0762 51.6583C91.7514 51.7175 91.4444 51.8507 91.1794 52.0474L89.6109 53.2114C89.4969 53.2955 89.3459 53.3133 89.2158 53.2578C89.0598 53.1916 88.9721 53.0419 88.9721 52.8889C88.9721 52.7998 89.002 52.7094 89.0655 52.6334L89.1872 52.4875L88.7434 52.7215C88.6133 52.7901 88.4529 52.7622 88.3534 52.6539C88.2962 52.592 88.2686 52.5137 88.2686 52.4354C88.2686 52.3449 88.3056 52.2545 88.3796 52.1902L89.9478 50.8268C90.2239 50.5861 90.5396 50.3951 90.8805 50.2613L92.368 49.6783C92.7032 49.5458 93.0681 49.5051 93.4248 49.5592L98.6442 50.3541C98.6442 50.3541 102.057 50.7028 100.482 53.045Z" fill="white"></path><path d="M100.482 53.045C100.482 53.045 98.2548 53.2413 97.2599 53.045C96.9055 52.975 96.7172 52.8469 96.6335 52.668L94.1198 53.9508C93.9796 54.0224 93.8122 54.0197 93.674 53.942C93.5139 53.8529 93.4312 53.6915 93.4312 53.5285C93.4312 53.3883 93.4924 53.247 93.6185 53.1515L95.4049 51.7958L90.8677 53.6979C90.7417 53.7514 90.5957 53.7272 90.4932 53.6361C90.4135 53.5648 90.3742 53.4673 90.3742 53.3694C90.3742 53.2598 90.4239 53.1502 90.5231 53.0799L92.4612 51.6933C92.5324 51.6422 92.6057 51.5938 92.6807 51.548L92.0762 51.6583C91.7514 51.7175 91.4444 51.8507 91.1794 52.0474L89.6109 53.2114C89.4969 53.2955 89.3459 53.3133 89.2158 53.2578C89.0598 53.1916 88.9721 53.0419 88.9721 52.8889C88.9721 52.7998 89.002 52.7094 89.0655 52.6334L89.1872 52.4875L88.7434 52.7215C88.6133 52.7901 88.4529 52.7622 88.3534 52.6539C88.2962 52.592 88.2686 52.5137 88.2686 52.4354C88.2686 52.3449 88.3056 52.2545 88.3796 52.1902L89.9478 50.8268C90.2239 50.5861 90.5396 50.3951 90.8805 50.2613L92.368 49.6783C92.7032 49.5458 93.0681 49.5051 93.4248 49.5592L98.3446 50.3084C98.544 50.339 98.7461 50.3413 98.9454 50.3154L99.2773 50.2727" stroke="black" stroke-width="0.213622" stroke-miterlimit="10" stroke-linecap="round"></path><path d="M95.9773 51.3616L95.4047 51.796" stroke="black" stroke-width="0.213622" stroke-miterlimit="10" stroke-linecap="round"></path><path d="M97.112 52.4229L96.6322 52.6677" stroke="black" stroke-width="0.213622" stroke-miterlimit="10" stroke-linecap="round"></path><path d="M92.6803 51.5471C92.9274 51.3961 93.1924 51.2751 93.4691 51.1866L94.7259 50.7865" stroke="black" stroke-width="0.213622" stroke-miterlimit="10" stroke-linecap="round"></path><path d="M89.1866 52.4885L90.239 51.231C90.4115 51.0252 90.6428 50.8776 90.9027 50.8093L93.7725 50.0461" stroke="black" stroke-width="0.213622" stroke-miterlimit="10" stroke-linecap="round"></path><path d="M45.5816 61.1362L61.3035 54.662C61.4686 54.5938 61.472 54.3574 61.3089 54.3197L52.1697 52.2156L39.9476 59.0912L45.5816 61.1362Z" fill="#F8FF6E"></path><path d="M45.5816 61.1362L61.3035 54.662C61.4686 54.5938 61.472 54.3574 61.3089 54.3197L52.1697 52.2156L39.9476 59.0912L45.5816 61.1362Z" stroke="black" stroke-width="0.213622" stroke-miterlimit="10" stroke-linecap="round"></path><path d="M31.737 53.8055C31.7115 53.8105 31.6859 53.8126 31.661 53.8126C31.4886 53.8126 31.3292 53.7073 31.2636 53.5419L30.7303 52.1862C30.731 52.2262 30.731 52.2666 30.7303 52.3072L30.7159 53.2531C30.7108 53.554 30.4731 53.7991 30.1725 53.8126C30.1641 53.8126 30.1547 53.8126 30.1463 53.8126C29.8615 53.8126 29.6188 53.6011 29.5824 53.3156L29.4577 52.3338C29.41 51.9606 29.2889 51.6025 29.1023 51.2784C29.1218 51.5911 29.1315 51.9044 29.1315 52.2181V53.4195C29.1315 53.7245 28.8844 53.9713 28.5805 53.9713C28.4423 53.9713 28.3142 53.9202 28.2167 53.8348C28.1191 53.7487 28.0522 53.629 28.0337 53.4914L27.8576 52.1563C27.8108 51.7962 27.7389 51.4394 27.6427 51.0891C27.3962 51.2511 27.0331 51.5326 26.707 51.9448C26.7624 52.0473 26.8102 52.1536 26.8522 52.2618C26.9457 52.5033 27.0052 52.7575 27.0294 53.0164C27.0311 53.0352 27.0324 53.0537 27.0324 53.0722C27.0324 53.3072 26.8909 53.5214 26.67 53.6118C26.598 53.6411 26.5227 53.6559 26.4484 53.6559C26.2961 53.6559 26.1465 53.596 26.0348 53.4837L24.395 51.8382C24.395 51.8382 24.1243 51.4401 24.4589 50.8107C24.7931 50.1819 25.9935 49.0646 26.8858 48.8908C27.3969 48.7913 27.9547 48.6601 28.3377 48.566C28.6302 48.494 28.9386 48.5939 29.1339 48.8232L29.2768 48.9906C29.3309 49.0545 29.4106 49.0902 29.4947 49.0875L29.6117 49.0831C29.9015 49.0737 30.1661 49.2475 30.2737 49.5168L30.4106 49.8605C30.4698 50.0088 30.5649 50.1399 30.6866 50.2424L31.3584 50.8049C31.6567 51.0541 31.8483 51.4071 31.8951 51.7931L32.084 53.3334C32.1109 53.5577 31.9593 53.7641 31.737 53.8048V53.8055Z" fill="white"></path><path d="M31.737 53.8055C31.7115 53.8105 31.6859 53.8126 31.661 53.8126C31.4886 53.8126 31.3292 53.7073 31.2636 53.5419L30.7303 52.1862C30.731 52.2262 30.731 52.2666 30.7303 52.3072L30.7159 53.2531C30.7108 53.554 30.4731 53.7991 30.1725 53.8126C30.1641 53.8126 30.1547 53.8126 30.1463 53.8126C29.8615 53.8126 29.6188 53.6011 29.5824 53.3156L29.4577 52.3338C29.41 51.9606 29.2889 51.6025 29.1023 51.2784C29.1218 51.5911 29.1315 51.9044 29.1315 52.2181V53.4195C29.1315 53.7245 28.8844 53.9713 28.5805 53.9713C28.4423 53.9713 28.3142 53.9202 28.2167 53.8348C28.1191 53.7487 28.0522 53.629 28.0337 53.4914L27.8576 52.1563C27.8108 51.7962 27.7389 51.4394 27.6427 51.0891C27.3962 51.2511 27.0331 51.5326 26.707 51.9448C26.7624 52.0473 26.8102 52.1536 26.8522 52.2618C26.9457 52.5033 27.0052 52.7575 27.0294 53.0164C27.0311 53.0352 27.0324 53.0537 27.0324 53.0722C27.0324 53.3072 26.8909 53.5214 26.67 53.6118C26.598 53.6411 26.5227 53.6559 26.4484 53.6559C26.2961 53.6559 26.1465 53.596 26.0348 53.4837L24.395 51.8382C24.395 51.8382 24.1243 51.4401 24.4589 50.8107C24.7931 50.1819 25.9935 49.0646 26.8858 48.8908C27.3969 48.7913 27.9547 48.6601 28.3377 48.566C28.6302 48.494 28.9386 48.5939 29.1339 48.8232L29.2768 48.9906C29.3309 49.0545 29.4106 49.0902 29.4947 49.0875L29.6117 49.0831C29.9015 49.0737 30.1661 49.2475 30.2737 49.5168L30.4106 49.8605C30.4698 50.0088 30.5649 50.1399 30.6866 50.2424L31.3584 50.8049C31.6567 51.0541 31.8483 51.4071 31.8951 51.7931L32.084 53.3334C32.1109 53.5577 31.9593 53.7641 31.737 53.8048V53.8055Z" stroke="black" stroke-width="0.213622" stroke-miterlimit="10" stroke-linecap="round"></path><path d="M29.9503 49.4586L30.2586 50.1163C30.5629 50.7652 30.723 51.4707 30.7294 52.1865" stroke="black" stroke-width="0.213622" stroke-miterlimit="10" stroke-linecap="round"></path><path d="M27.1646 49.7129L27.4174 50.3917C27.5035 50.6211 27.5785 50.8537 27.6417 51.0894" stroke="black" stroke-width="0.213622" stroke-miterlimit="10" stroke-linecap="round"></path><path d="M28.9489 49.3377L29.082 50.9812C29.0897 51.0801 29.0971 51.1793 29.1025 51.2781" stroke="black" stroke-width="0.213622" stroke-miterlimit="10" stroke-linecap="round"></path><path d="M26.4036 50.7306L26.3878 50.7662C26.2678 51.0352 26.3024 51.3479 26.4783 51.5843C26.564 51.6989 26.6407 51.82 26.7069 51.9461" stroke="black" stroke-width="0.213622" stroke-miterlimit="10" stroke-linecap="round"></path><path d="M48.1234 33.6171L51.3633 33.3259C51.3633 33.3259 52.9349 35.999 50.667 38.6068L48.8043 37.975L48.1241 33.6178L48.1234 33.6171Z" fill="white"></path><path d="M48.1234 33.6171L51.3633 33.3259C51.3633 33.3259 52.9349 35.999 50.667 38.6068L48.8043 37.975L48.1241 33.6178L48.1234 33.6171Z" stroke="black" stroke-width="0.213622" stroke-miterlimit="10" stroke-linecap="round"></path><path d="M59.8497 38.8273L59.4731 39.177C59.3904 39.254 59.2623 39.2503 59.1839 39.1693L59.0373 39.0176C59.0329 39.1656 58.9724 39.3108 58.8578 39.4208L58.4442 39.8178C58.2263 40.0266 57.885 40.0351 57.6574 39.838L57.6204 39.8057L57.6308 40.0643C57.6318 40.0737 57.6319 40.0828 57.6319 40.0922C57.6319 40.295 57.5434 40.4893 57.3894 40.6218C57.2452 40.7465 57.0562 40.8064 56.8669 40.7885L56.417 40.7452L56.372 40.9721C56.3279 41.2015 56.1706 41.3931 55.9547 41.4829C55.8693 41.5185 55.7789 41.5353 55.6891 41.5353C55.5354 41.5353 55.3838 41.4849 55.2584 41.3867L54.8502 41.067C54.6189 40.8854 54.3532 40.7529 54.0684 40.6783C53.6613 40.5707 53.2665 40.4204 52.893 40.2311C52.5191 40.0414 52.1643 39.8138 51.8362 39.5489L50.6661 38.6047L50.4953 37.6475L50.6691 34.3705L51.3624 33.3232L54.0009 32.5818C54.3213 32.492 54.6629 32.5186 54.9658 32.6568C55.0825 32.7102 55.1908 32.7791 55.2883 32.8612C55.3858 32.9429 55.4719 33.0384 55.5445 33.1443L56.2509 34.1826L59.2111 37.3455C59.4865 37.6404 59.696 37.9901 59.8248 38.3724L59.9055 38.6094C59.9317 38.6864 59.9095 38.7718 59.8497 38.8273Z" fill="white"></path><path d="M51.3625 33.3232L54.0006 32.5818C54.3211 32.492 54.663 32.5186 54.9656 32.6568C55.0823 32.7102 55.1906 32.7791 55.2881 32.8612C55.3859 32.9429 55.472 33.0384 55.5446 33.1443L56.2511 34.1826L59.2109 37.3455C59.4866 37.6404 59.6958 37.9901 59.8249 38.3724L59.9053 38.6094C59.9315 38.6864 59.9096 38.7718 59.8498 38.8273L59.4732 39.177C59.3905 39.254 59.2624 39.2503 59.184 39.1693L59.0374 39.0176C59.0331 39.1656 58.9725 39.3108 58.8579 39.4208L58.444 39.8178C58.2261 40.0266 57.8852 40.0351 57.6572 39.838L57.6202 39.8057L57.631 40.0643C57.6316 40.0737 57.6316 40.0828 57.6316 40.0922C57.6316 40.295 57.5432 40.4893 57.3895 40.6218C57.245 40.7465 57.0563 40.8064 56.867 40.7885L56.4168 40.7452L56.3721 40.9721C56.3277 41.2015 56.1704 41.3931 55.9548 41.4829C55.8691 41.5185 55.779 41.5353 55.6892 41.5353C55.5352 41.5353 55.3836 41.4849 55.2582 41.3867L54.8503 41.067C54.619 40.8854 54.3533 40.7529 54.0686 40.6783C53.661 40.5707 53.2666 40.4204 52.8927 40.2311C52.5188 40.0414 52.1645 39.8138 51.836 39.5489L50.6662 38.6047" stroke="black" stroke-width="0.213622" stroke-miterlimit="10" stroke-linecap="round"></path><path d="M59.0371 39.0169L57.5408 37.4733" stroke="black" stroke-width="0.213622" stroke-miterlimit="10" stroke-linecap="round"></path><path d="M56.4177 40.7445L55.1144 39.5572" stroke="black" stroke-width="0.213622" stroke-miterlimit="10" stroke-linecap="round"></path><path d="M57.6206 39.8065L56.3839 38.737" stroke="black" stroke-width="0.213622" stroke-miterlimit="10" stroke-linecap="round"></path><path d="M27.9095 9.3974C27.9095 9.3974 26.6937 8.1614 25.2435 9.21078" stroke="black" stroke-width="0.213622" stroke-miterlimit="10" stroke-linecap="round"></path><path d="M26.9273 10.1439C26.9273 10.1439 26.4304 9.57061 25.7881 10.1439" stroke="black" stroke-width="0.213622" stroke-miterlimit="10" stroke-linecap="round"></path><path d="M25.0885 13.7878C25.4358 13.9852 26.0525 14.2616 26.8265 14.3006C26.9553 14.307 27.038 14.4401 26.9902 14.5592L26.7132 15.2484C26.5723 15.6001 26.1315 15.7219 25.8339 15.4868C25.4863 15.2128 25.0841 14.7434 24.8632 13.9623C24.8256 13.8292 24.9681 13.7182 25.0878 13.7865L25.0885 13.7878Z" fill="black"></path><path d="M33.8409 39.5338L32.0844 42.571C31.7697 43.1151 31.1251 43.3528 30.5461 43.1719C30.4658 43.1463 30.3861 43.1127 30.3084 43.0707C28.6565 42.1729 25.6415 40.518 24.3513 39.7013C22.5276 38.5477 20.1457 36.9845 15.4567 34.8636C10.767 32.7416 11.2213 28.5273 11.2213 28.5273C11.2213 28.5273 11.2996 27.5021 11.6785 26.5579C12.5045 24.4992 13.6815 23.0715 13.6815 23.0715L16.6957 23.3116C19.2571 23.4831 21.1185 24.5927 21.6638 25.3273C22.2092 26.0623 22.8743 27.7475 23.231 28.5138C23.4469 28.9775 23.5757 29.5178 23.6442 29.8732C23.6748 29.8497 23.7024 29.8278 23.7266 29.8076C23.7993 29.7485 23.9082 29.7713 23.9519 29.854L24.1731 30.2757C24.2337 30.3917 24.3534 30.4643 24.4838 30.465C24.6815 30.467 24.9801 30.4821 25.1987 30.547C25.43 30.6159 25.5534 30.8466 25.6109 30.9996C25.6502 31.1045 25.7114 31.199 25.7938 31.2753C27.1155 32.4972 29.3848 33.5133 30.3333 33.907C30.5868 34.0119 30.7714 34.2375 30.8192 34.5075C30.8575 34.723 30.9116 34.9012 30.9735 35.0465C31.8295 35.1904 32.9795 35.5263 33.7484 36.3104C33.7804 36.3423 33.8113 36.3746 33.8409 36.4079C35.1811 37.8961 33.8409 39.5338 33.8409 39.5338Z" fill="#0564FF"></path><path d="M16.6971 23.3126C19.2577 23.4841 21.1184 24.593 21.6644 25.3276V25.3283" stroke="black" stroke-width="0.213622" stroke-miterlimit="10" stroke-linecap="round"></path><path d="M11.6785 26.5574C11.2996 27.5015 11.2213 28.5271 11.2213 28.5271C11.2213 28.5271 10.767 32.7411 15.4567 34.863C17.6193 35.8415 19.2914 36.7009 20.6434 37.4564" stroke="black" stroke-width="0.213622" stroke-miterlimit="10" stroke-linecap="round"></path><path d="M13.6462 31.5906C19.5538 32.6353 22.8055 30.5278 23.6451 29.8738" stroke="black" stroke-width="0.213622" stroke-miterlimit="10" stroke-linecap="round"></path><path d="M29.8226 34.9377C29.8226 34.9377 30.3101 34.934 30.9738 35.0466" stroke="black" stroke-width="0.213622" stroke-miterlimit="10" stroke-linecap="round"></path><path d="M18.1833 29.4906C18.1833 29.4906 20.1681 29.6282 21.7774 29.3333" stroke="black" stroke-width="0.213622" stroke-miterlimit="10" stroke-linecap="round"></path><path d="M15.1586 32.7189C15.1586 32.7189 17.6943 32.9633 19.7858 32.5666" stroke="black" stroke-width="0.213622" stroke-miterlimit="10" stroke-linecap="round"></path><path d="M14.6833 24.0446C14.6833 24.0446 19.0909 23.7833 21.1204 25.414" stroke="black" stroke-width="0.213622" stroke-miterlimit="10" stroke-linecap="round"></path><path d="M49.8969 38.4443L45.848 39.9943C40.3388 42.6462 37.0861 42.8298 35.7559 42.743C34.1161 43.4068 32.556 43.5924 31.8973 43.6431C31.6017 43.666 31.3032 43.6068 31.0426 43.4643C29.2205 42.469 29.6307 38.9329 29.6307 38.9329L33.181 36.5167C34.2462 35.7968 35.3265 36.0127 36.6796 35.9407C37.7868 35.8815 39.6169 35.6401 40.2457 35.554C40.3637 35.5376 40.4629 35.4643 40.5234 35.361C40.6081 35.2151 40.8173 35.0342 41.3307 35.1069C42.1511 35.2222 43.9654 34.6597 43.9654 34.6597C45.2777 33.9781 47.9979 33.2845 48.7319 33.1036C48.8388 33.0773 48.9491 33.1345 48.9884 33.2367C49.7318 35.1886 49.976 37.6047 50.0294 38.2335C50.0371 38.3253 49.983 38.4107 49.8969 38.4443Z" fill="#0564FF"></path><path d="M30.5444 43.0792C29.301 41.7733 29.6308 38.9328 29.6308 38.9328" stroke="black" stroke-width="0.213622" stroke-miterlimit="10" stroke-linecap="round"></path><path d="M40.2188 38.7254C39.2619 40.843 37.4654 42.0528 35.7556 42.7427" stroke="black" stroke-width="0.213622" stroke-miterlimit="10" stroke-linecap="round"></path><path d="M44.0814 35.0043C44.0814 35.0043 44.6772 35.8546 45.0427 37.2594C45.4152 38.6921 45.7346 39.5475 45.7346 39.5475" stroke="black" stroke-width="0.213622" stroke-miterlimit="10" stroke-linecap="round"></path><path d="M50.4617 38.1584L50.189 38.2852C50.0673 38.342 49.9825 38.4573 49.9647 38.5905C49.9476 38.7189 49.9923 38.8477 50.0851 38.9374L50.3927 39.2357C50.5051 39.3446 50.656 39.4058 50.8127 39.4058C51.0071 39.4058 51.1893 39.3103 51.2999 39.1503C51.4855 38.8803 51.4509 38.5158 51.2165 38.2865C51.0165 38.0908 50.7152 38.0387 50.461 38.1577L50.4617 38.1584Z" fill="white"></path><path d="M50.4617 38.1584L50.189 38.2852C50.0673 38.342 49.9825 38.4573 49.9647 38.5905C49.9476 38.7189 49.9923 38.8477 50.0851 38.9374L50.3927 39.2357C50.5051 39.3446 50.656 39.4058 50.8127 39.4058C51.0071 39.4058 51.1893 39.3103 51.2999 39.1503C51.4855 38.8803 51.4509 38.5158 51.2165 38.2865C51.0165 38.0908 50.7152 38.0387 50.461 38.1577L50.4617 38.1584Z" stroke="black" stroke-width="0.213622" stroke-miterlimit="10" stroke-linecap="round"></path><path d="M54.1704 40.4656C53.8971 40.5383 53.5181 40.7158 53.2613 41.1458L53.2959 41.2191C53.4576 41.5587 53.7754 41.7988 54.1462 41.86C54.3443 41.8926 54.5457 41.8307 54.6909 41.6925L54.7955 41.5937C55.0968 41.3076 55.0655 40.8184 54.7303 40.5732C54.5692 40.4559 54.3641 40.4145 54.1711 40.4656H54.1704Z" fill="white"></path><path d="M54.1704 40.4656C53.8971 40.5383 53.5181 40.7158 53.2613 41.1458L53.2959 41.2191C53.4576 41.5587 53.7754 41.7988 54.1462 41.86C54.3443 41.8926 54.5457 41.8307 54.6909 41.6925L54.7955 41.5937C55.0968 41.3076 55.0655 40.8184 54.7303 40.5732C54.5692 40.4559 54.3641 40.4145 54.1711 40.4656H54.1704Z" stroke="black" stroke-width="0.213622" stroke-miterlimit="10" stroke-linecap="round"></path><path d="M53.5973 38.9217L53.7433 38.6725C53.8885 38.4247 54.2103 38.3471 54.4524 38.5011C54.6474 38.6241 54.7345 38.8642 54.6646 39.0834L54.2503 40.385C54.1535 40.6899 53.9369 40.9418 53.6498 41.0837C53.4343 41.1903 53.1871 41.2138 52.9548 41.1506C52.8223 41.1143 52.7171 41.0131 52.6744 40.8829L52.5755 40.58L52.9329 39.5592L53.5957 38.9217H53.5973Z" fill="white"></path><path d="M53.5973 38.9217L53.7433 38.6725C53.8885 38.4247 54.2103 38.3471 54.4524 38.5011C54.6474 38.6241 54.7345 38.8642 54.6646 39.0834L54.2503 40.385C54.1535 40.6899 53.9369 40.9418 53.6498 41.0837C53.4343 41.1903 53.1871 41.2138 52.9548 41.1506C52.8223 41.1143 52.7171 41.0131 52.6744 40.8829L52.5755 40.58L52.9329 39.5592L53.5957 38.9217H53.5973Z" stroke="black" stroke-width="0.213622" stroke-miterlimit="10" stroke-linecap="round"></path><path d="M52.6384 38.146L51.8547 38.9691C51.6788 39.1537 51.5692 39.3914 51.5426 39.6449C51.5141 39.922 51.6425 40.1917 51.8758 40.3443L52.1166 40.501C52.1986 40.5541 52.2955 40.579 52.393 40.5719C52.5416 40.5615 52.6747 40.4775 52.749 40.3477L53.597 38.8588C53.7524 38.5861 53.6717 38.2402 53.4128 38.0633C53.169 37.8982 52.8415 37.9332 52.6384 38.146Z" fill="white"></path><path d="M52.6384 38.146L51.8547 38.9691C51.6788 39.1537 51.5692 39.3914 51.5426 39.6449C51.5141 39.922 51.6425 40.1917 51.8758 40.3443L52.1166 40.501C52.1986 40.5541 52.2955 40.579 52.393 40.5719C52.5416 40.5615 52.6747 40.4775 52.749 40.3477L53.597 38.8588C53.7524 38.5861 53.6717 38.2402 53.4128 38.0633C53.169 37.8982 52.8415 37.9332 52.6384 38.146Z" stroke="black" stroke-width="0.213622" stroke-miterlimit="10" stroke-linecap="round"></path><path d="M56.2585 33.271C56.2585 33.7488 55.897 34.1912 55.3685 34.2302L55.085 34.2508C55.0921 34.5537 55.043 34.857 54.9384 35.1451L54.8672 35.3425C54.7959 35.5369 54.6281 35.6801 54.4237 35.7177C54.3873 35.7248 54.351 35.7278 54.3147 35.7278C54.0205 35.7278 53.7643 35.5049 53.7337 35.1999L53.614 34.0016C53.5784 33.6462 53.7771 33.3096 54.1052 33.1694L55.4855 32.579C55.7239 32.4771 56.0003 32.5696 56.1297 32.7939C56.2181 32.9479 56.2585 33.1116 56.2585 33.271Z" fill="white"></path><path d="M56.0507 33.8697C55.8933 34.0698 55.6556 34.2093 55.3685 34.2305L55.085 34.2514C55.0921 34.554 55.043 34.8572 54.9384 35.1457L54.8672 35.3428C54.7959 35.5371 54.6281 35.6803 54.4237 35.718C54.3873 35.7251 54.351 35.7281 54.3147 35.7281C54.0205 35.7281 53.7643 35.5052 53.7337 35.2005L53.614 34.0019C53.5784 33.6468 53.7771 33.3099 54.1052 33.1697L55.4855 32.5793C55.4855 32.5793 55.7424 32.466 55.966 32.4996" stroke="black" stroke-width="0.213622" stroke-miterlimit="10" stroke-linecap="round"></path><path d="M55.0846 34.2517C55.0796 34.0509 55.0497 33.8515 54.9955 33.6559" stroke="black" stroke-width="0.213622" stroke-miterlimit="10" stroke-linecap="round"></path><path d="M57.7976 52.4141L48.3733 61.0573C48.1662 61.2473 47.8928 61.3472 47.6121 61.3357L28.4793 60.5617C28.3098 60.5547 28.2631 60.326 28.4154 60.2527L44.6031 52.481C44.8791 52.3485 45.1811 52.2789 45.4874 52.2776L57.7173 52.209C57.8255 52.209 57.8773 52.3415 57.7976 52.4141Z" fill="#0564FF"></path><path d="M56.8547 51.2623L47.4307 59.9055C47.2232 60.0958 46.9499 60.1953 46.6694 60.1839L27.5367 59.4099C27.3672 59.4028 27.3201 59.1742 27.4725 59.1009L43.6601 51.3292C43.9365 51.1971 44.2385 51.1271 44.5444 51.1258L56.7743 51.0572C56.8826 51.0572 56.9347 51.1897 56.8547 51.2623Z" fill="#F8FF6E"></path><path d="M56.8547 51.2623L47.4307 59.9055C47.2232 60.0958 46.9499 60.1953 46.6694 60.1839L27.5367 59.4099C27.3672 59.4028 27.3201 59.1742 27.4725 59.1009L43.6601 51.3292C43.9365 51.1971 44.2385 51.1271 44.5444 51.1258L56.7743 51.0572C56.8826 51.0572 56.9347 51.1897 56.8547 51.2623Z" stroke="black" stroke-width="0.213622" stroke-miterlimit="10" stroke-linecap="round"></path><path d="M54.1276 51.8766H44.2981" stroke="black" stroke-width="0.213622" stroke-miterlimit="10" stroke-linecap="round"></path><path d="M52.734 53.1058H42.1379" stroke="black" stroke-width="0.213622" stroke-miterlimit="10" stroke-linecap="round"></path><path d="M51.3392 54.3358H39.8094" stroke="black" stroke-width="0.213622" stroke-miterlimit="10" stroke-linecap="round"></path><path d="M49.9445 55.5649H37.5734" stroke="black" stroke-width="0.213622" stroke-miterlimit="10" stroke-linecap="round"></path><path d="M48.551 56.794H34.5516" stroke="black" stroke-width="0.213622" stroke-miterlimit="10" stroke-linecap="round"></path><path d="M47.1558 58.0232H33.1566" stroke="black" stroke-width="0.213622" stroke-miterlimit="10" stroke-linecap="round"></path><path d="M107.612 24.4981C107.612 24.4981 108.811 24.867 109.24 25.144" stroke="black" stroke-width="0.213622" stroke-miterlimit="10" stroke-linecap="round"></path><path d="M73.6351 45.3813H70.9432V50.2708H73.6351C74.6932 50.2708 75.5506 49.4137 75.5506 48.3556V47.2975C75.5506 46.239 74.6932 45.3813 73.6351 45.3813ZM74.4575 48.1552C74.4575 48.8176 73.9205 49.3539 73.2592 49.3539H72.0363V46.2975H73.2592C73.9212 46.2975 74.4575 46.8345 74.4575 47.4965V48.1545V48.1552Z" fill="white"></path><path d="M73.6351 45.3813H70.9432V50.2708H73.6351C74.6932 50.2708 75.5506 49.4137 75.5506 48.3556V47.2975C75.5506 46.239 74.6932 45.3813 73.6351 45.3813ZM74.4575 48.1552C74.4575 48.8176 73.9205 49.3539 73.2592 49.3539H72.0363V46.2975H73.2592C73.9212 46.2975 74.4575 46.8345 74.4575 47.4965V48.1545V48.1552Z" stroke="black" stroke-width="0.213622" stroke-miterlimit="10" stroke-linecap="round"></path><path d="M72.899 44.7684V52.1457C72.899 52.488 72.6212 52.7651 72.2796 52.7651H67.8121C67.4694 52.7651 67.1924 52.4873 67.1924 52.1457V44.7684C67.1924 44.5001 67.4103 44.2829 67.6782 44.2829H72.4128C72.6811 44.2829 72.8983 44.5008 72.8983 44.7684H72.899Z" fill="white"></path><path d="M68.5582 48.5249C68.5582 49.8608 67.9466 50.9438 67.1924 50.9438V46.1061C67.9466 46.1061 68.5582 47.1891 68.5582 48.5249Z" fill="#CCDFFF"></path><path d="M67.7114 44.2829H72.3811C72.6675 44.2829 72.8995 44.5149 72.8995 44.8014V51.9803C72.8995 52.4134 72.5478 52.7651 72.1148 52.7651H67.9784C67.5453 52.7651 67.1936 52.4134 67.1936 51.9803V44.8014C67.1936 44.5149 67.426 44.2829 67.7121 44.2829H67.7114Z" stroke="black" stroke-width="0.213622" stroke-miterlimit="10" stroke-linecap="round"></path><path d="M68.4925 42.4327C68.4663 42.6889 68.6142 42.9448 68.825 43.0948C68.9945 43.2162 69.1855 43.2794 69.2901 43.4737C69.3213 43.5322 69.3435 43.6011 69.3243 43.6647C69.2944 43.7622 69.1754 43.8076 69.0752 43.7908C68.8993 43.7598 68.7148 43.5921 68.588 43.475C68.4095 43.31 68.2682 43.1028 68.1791 42.8762C68.0013 42.4206 68.0275 41.8988 68.2077 41.4435C68.3422 41.1039 68.6065 40.7687 68.971 40.7371C69.56 40.6867 69.9437 41.4257 70.5298 41.5034C70.8895 41.5511 71.2641 41.2963 71.3515 40.9452C71.5032 40.3393 71.019 39.8757 70.5526 39.5801C69.56 38.9514 68.4989 38.6024 67.9892 37.4447C67.5974 36.5554 67.7101 35.4993 68.2326 34.6876C68.7242 33.925 69.6199 33.2953 70.5368 33.7626C71.1508 34.075 71.4648 34.8107 71.3209 35.4737C71.1545 36.2413 70.5856 37.0046 71.0718 37.7759C71.3757 38.2577 71.9796 38.4352 72.4567 38.7463C73.0562 39.1373 73.4869 39.7987 73.5397 40.5122C73.5818 41.0791 73.3326 41.6913 72.9416 42.1009C72.7956 42.2532 72.6057 42.3729 72.3955 42.3927C71.9883 42.4314 71.6975 42.1015 71.3209 42.0181C71.135 41.9771 70.9373 41.962 70.7564 42.0218C70.5755 42.0817 70.4144 42.229 70.3811 42.4163C70.3418 42.6314 70.4773 42.848 70.6565 42.9724C70.9272 43.1597 71.563 43.1233 71.5943 43.542C71.6265 43.9659 71.0859 44.0342 70.787 43.9666C70.4467 43.8896 70.1303 43.6953 69.9124 43.4209C69.666 43.1106 69.6505 42.7424 69.5046 42.3887C69.4219 42.1876 69.2638 41.9976 69.0503 41.9633C68.7881 41.9213 68.5312 42.1506 68.4949 42.4142C68.4942 42.4206 68.4932 42.4277 68.4925 42.4341V42.4327Z" fill="#CCDFFF"></path><path d="M71.8572 34.9122C71.912 35.0046 71.9839 35.0931 72.0858 35.1442C72.3259 35.2645 72.652 35.1179 72.7593 34.8913C72.8669 34.665 72.798 34.3974 72.6618 34.1836C72.5259 33.9694 72.3292 33.7929 72.1584 33.5999C71.9866 33.4069 71.836 33.1853 71.8172 32.9395C71.8044 32.7667 71.8578 32.5915 71.8222 32.4207C71.7634 32.1379 71.4328 31.9271 71.1144 31.9614C70.7479 32.0011 70.5028 32.3208 70.5314 32.6392C70.5556 32.9069 70.7237 33.0165 70.9594 33.1453C71.7126 33.5578 71.489 34.2905 71.8572 34.9122Z" fill="#CCDFFF"></path></g></g></svg>