<svg width="124" height="34" viewBox="0 0 124 34" fill="none" xmlns="http://www.w3.org/2000/svg">
<path d="M66.8259 28.0166C65.7245 28.5672 64.6879 28.794 63.3598 28.794C59.7966 28.794 57.5585 26.7532 57.5585 22.8631V15.0211H54.0601V11.1663H57.5585V6.04817H62.0317V11.1663H66.9908V15.0211H62.0317V21.8265C62.0317 23.8349 62.9387 24.6447 64.5584 24.6447C65.4006 24.6447 66.178 24.4504 66.8259 24.0941V28.0166Z" fill="#364452"/>
<path d="M68.2217 19.7534C68.2217 14.5999 71.8173 10.8423 76.8088 10.8423C82.2862 10.8423 85.9142 15.2831 85.1044 20.9195H72.8245C73.116 23.7377 74.4765 25.2955 76.7794 25.2955C78.7553 25.2955 80.0835 24.3238 80.6017 22.6069H85.0749C84.1031 26.5265 81.0906 28.7645 76.8765 28.7645C71.6907 28.7645 68.2247 25.1689 68.2247 19.7563L68.2217 19.7534ZM72.8893 18.0689H80.3426C80.213 15.6719 78.8525 14.1494 76.7146 14.1494C74.5766 14.1494 73.2809 15.5099 72.8922 18.0689H72.8893Z" fill="#364452"/>
<path d="M86.6592 19.8182C86.6592 14.6323 90.2225 10.8423 95.0844 10.8423C99.5899 10.8423 102.926 13.8873 103.477 18.5548H98.7448C98.518 16.2549 97.1251 14.8296 95.0844 14.8296C92.7521 14.8296 91.262 16.7408 91.262 19.8182C91.262 22.8955 92.7197 24.8096 95.0844 24.8096C97.1575 24.8096 98.4856 23.4491 98.7448 21.0844H103.477C102.959 25.8492 99.7195 28.7969 95.0844 28.7969C90.0929 28.7969 86.6592 25.1041 86.6592 19.8211V19.8182Z" fill="#364452"/>
<path d="M110.003 28.4701H105.5V5.20595H110.003V13.4367C111.201 11.8495 112.691 10.8453 114.962 10.8453C118.428 10.8453 120.828 13.1128 120.828 17.2945V28.473H116.355V18.8169C116.355 16.2579 115.351 14.8326 113.31 14.8326C111.528 14.8326 110.006 16.2579 110.006 19.0437V28.473L110.003 28.4701Z" fill="#364452"/>
<path d="M7.95891 5.20595H3.03223V10.1326H7.95891V5.20595Z" fill="#364452"/>
<path d="M12.8827 10.1297H7.95597V28.4701H12.8827V18.6196H22.9598V14.3732H12.8827V10.1297ZM22.9598 5.20595V14.3761H27.8865V5.20595H22.9598ZM22.9598 28.473H27.8865V18.6226H22.9598V28.473Z" fill="#364452"/>
<path d="M44.0771 19.4942C47.3812 18.3929 49.3277 15.8986 49.3277 12.7535C49.3277 7.92402 45.9265 5.203 40.0604 5.203H35.8787V9.28453H39.8336C42.8138 9.28453 44.4011 10.4507 44.4011 12.7535C44.4011 15.0564 42.8138 16.1872 39.8336 16.1872H35.8787V9.28453H30.9521V28.4671H35.8787V20.2363H38.9561L44.2067 28.4671H50.0728L44.0771 19.4913V19.4942Z" fill="#364452"/>
</svg>
