<svg width="92" height="34" viewBox="0 0 92 34" fill="none" xmlns="http://www.w3.org/2000/svg">
<path d="M7.2998 11.4633H11.9293L14.625 18.36L17.3557 11.4633H21.8633L15.0759 27.79H10.5397L12.3977 23.4637L7.2998 11.4633Z" fill="#364452"/>
<path d="M26.559 11.1888C23.0806 11.1888 20.8817 14.3083 20.8817 17.4149C20.8817 20.9107 23.2925 23.6822 26.493 23.6822C28.8804 23.6822 29.7806 22.2277 29.7806 22.2277V23.3608H33.8184V11.4634H29.7806V12.545C29.7806 12.545 28.7763 11.1888 26.559 11.1888ZM27.4178 15.0121C29.0228 15.0121 29.851 16.2821 29.851 17.428C29.851 18.6619 28.9637 19.8728 27.4178 19.8728C26.1366 19.8728 24.9788 18.8258 24.9788 17.4805C24.9788 16.1162 25.9101 15.0121 27.4178 15.0121Z" fill="#364452"/>
<path d="M35.209 23.3607V6.20996H39.4323V12.5862C39.4323 12.5862 40.4354 11.1903 42.5363 11.1903C45.1062 11.1903 46.6119 13.105 46.6119 15.8412V23.3607H42.4195V16.8712C42.4195 15.9453 41.9784 15.0507 40.9793 15.0507C39.9623 15.0507 39.4323 15.9588 39.4323 16.8712V23.3607H35.209Z" fill="#364452"/>
<path d="M53.8125 11.1902C49.8291 11.1902 47.4572 14.2192 47.4572 17.4644C47.4572 21.1575 50.329 23.6822 53.8275 23.6822C57.2185 23.6822 60.1856 21.2721 60.1856 17.5264C60.1856 13.4278 57.0789 11.1902 53.8125 11.1902ZM53.8505 15.0471C55.2576 15.0471 56.2311 16.2191 56.2311 17.4688C56.2311 18.5347 55.3239 19.8495 53.8505 19.8495C52.5004 19.8495 51.4872 18.7665 51.4872 17.4572C51.4872 16.1959 52.3296 15.0471 53.8505 15.0471Z" fill="#364452"/>
<path d="M67.2215 11.1902C63.2381 11.1902 60.8662 14.2192 60.8662 17.4644C60.8662 21.1575 63.738 23.6822 67.2365 23.6822C70.6275 23.6822 73.5946 21.2721 73.5946 17.5264C73.5946 13.4278 70.4879 11.1902 67.2215 11.1902ZM67.2595 15.0471C68.6666 15.0471 69.6401 16.2191 69.6401 17.4688C69.6401 18.5347 68.7329 19.8495 67.2595 19.8495C65.9094 19.8495 64.8962 18.7665 64.8962 17.4572C64.8962 16.1959 65.7385 15.0471 67.2595 15.0471Z" fill="#364452"/>
<path d="M76.9271 23.6133C78.476 23.6133 79.7316 22.3577 79.7316 20.8088C79.7316 19.26 78.476 18.0044 76.9271 18.0044C75.3783 18.0044 74.1227 19.26 74.1227 20.8088C74.1227 22.3577 75.3783 23.6133 76.9271 23.6133Z" fill="#364452"/>
<path d="M80.6531 16.9742H75.6044L80.0852 6.20996H85.115L80.6531 16.9742Z" fill="#364452"/>
</svg>
