<svg width="108" height="34" viewBox="0 0 108 34" fill="none" xmlns="http://www.w3.org/2000/svg">
<path d="M27.7995 17C27.7995 23.3708 22.6344 28.536 16.2635 28.536C9.89191 28.536 4.72754 23.3708 4.72754 17C4.72754 10.6284 9.89231 5.46399 16.2635 5.46399C22.6344 5.46399 27.7995 10.6288 27.7995 17Z" fill="#364452"/>
<path d="M17.802 16.9998H14.5338V13.539H17.802C18.0293 13.539 18.2543 13.5838 18.4642 13.6707C18.6742 13.7577 18.8649 13.8851 19.0256 14.0458C19.1863 14.2065 19.3138 14.3973 19.4007 14.6072C19.4877 14.8172 19.5324 15.0422 19.5324 15.2694C19.5324 15.4966 19.4877 15.7217 19.4007 15.9316C19.3138 16.1415 19.1863 16.3323 19.0256 16.493C18.8649 16.6537 18.6742 16.7811 18.4642 16.8681C18.2543 16.955 18.0293 16.9998 17.802 16.9998ZM17.802 11.2318H12.2266V22.7678H14.5338V19.307H17.802C20.0319 19.307 21.8396 17.4993 21.8396 15.2694C21.8396 13.0395 20.0319 11.2318 17.802 11.2318Z" fill="white"/>
<path d="M39.9184 15.5897C39.9184 14.9549 39.4308 14.5703 38.7972 14.5703H37.0987V16.5973H38.7976C39.4312 16.5973 39.9184 16.2127 39.9184 15.5897ZM35.4902 20.8448V13.1543H39.0232C40.666 13.1543 41.56 14.2645 41.56 15.5897C41.56 16.9035 40.6546 18.0133 39.0232 18.0133H37.0987V20.8448H35.4902ZM42.5393 20.8448V15.2382H43.9765V15.9744C44.373 15.4986 45.0418 15.1025 45.7215 15.1025V16.5066C45.619 16.4841 45.4947 16.4731 45.325 16.4731C44.8492 16.4731 44.2144 16.7445 43.9765 17.0964V20.8448H42.5393ZM50.56 17.9679C50.56 17.1185 50.0605 16.3823 49.1547 16.3823C48.2595 16.3823 47.762 17.1185 47.762 17.9683C47.762 18.8288 48.2595 19.565 49.1547 19.565C50.0605 19.565 50.56 18.8288 50.56 17.9679ZM46.2664 17.9679C46.2664 16.4166 47.3537 15.1025 49.1547 15.1025C50.9672 15.1025 52.0545 16.4163 52.0545 17.9679C52.0545 19.5196 50.9672 20.8448 49.1547 20.8448C47.3537 20.8448 46.2664 19.5196 46.2664 17.9679ZM56.8946 18.942V17.0053C56.6567 16.6423 56.1359 16.3823 55.6597 16.3823C54.8335 16.3823 54.267 17.0278 54.267 17.9683C54.267 18.9191 54.8335 19.565 55.6597 19.565C56.1359 19.565 56.6567 19.305 56.8946 18.942ZM56.8946 20.8448V20.0068C56.4637 20.5501 55.8755 20.8448 55.2068 20.8448C53.8366 20.8448 52.7832 19.8033 52.7832 17.9679C52.7832 16.1902 53.8141 15.1025 55.2068 15.1025C55.8522 15.1025 56.4637 15.3747 56.8946 15.9405V13.1543H58.3441V20.8448H56.8946ZM63.4674 20.8448V20.0179C63.0942 20.4258 62.4373 20.8448 61.5421 20.8448C60.3419 20.8448 59.7758 20.1879 59.7758 19.1231V15.2382H61.2135V18.557C61.2135 19.316 61.61 19.565 62.2215 19.565C62.7762 19.565 63.2185 19.2592 63.4674 18.9416V15.2382H64.9058V20.8448H63.4674ZM65.9861 17.9679C65.9861 16.292 67.2091 15.1025 68.8858 15.1025C70.0071 15.1025 70.6865 15.5897 71.049 16.088L70.1085 16.971C69.8485 16.5859 69.452 16.3823 68.9537 16.3823C68.0814 16.3823 67.4703 17.0167 67.4703 17.9683C67.4703 18.9191 68.0814 19.565 68.9537 19.565C69.452 19.565 69.8485 19.3385 70.1085 18.9645L71.049 19.8482C70.6865 20.3465 70.0071 20.8448 68.8858 20.8448C67.2091 20.8448 65.9861 19.6557 65.9861 17.9679ZM72.2859 19.3385V16.4956H71.3801V15.2382H72.2859V13.7429H73.7247V15.2382H74.8338V16.4956H73.7247V18.9535C73.7247 19.3046 73.905 19.565 74.2226 19.565C74.4373 19.565 74.6424 19.4857 74.7205 19.3953L75.0271 20.4933C74.8121 20.6866 74.4266 20.8448 73.8261 20.8448C72.8181 20.8448 72.2859 20.324 72.2859 19.3385ZM84.0476 20.8448V17.5261H80.4794V20.8448H78.8721V13.1543H80.4794V16.1215H84.0476V13.1547H85.6671V20.8448H84.0476ZM90.8145 20.8448V20.0179C90.4409 20.4258 89.784 20.8448 88.8892 20.8448C87.6887 20.8448 87.1225 20.1879 87.1225 19.1231V15.2382H88.5602V18.557C88.5602 19.316 88.9567 19.565 89.5686 19.565C90.1233 19.565 90.5656 19.2592 90.8145 18.9416V15.2382H92.2529V20.8448H90.8145ZM97.3747 20.8448V17.4022C97.3747 16.6431 96.9794 16.3827 96.3671 16.3827C95.8009 16.3827 95.3709 16.6999 95.1212 17.0171V20.8452H93.6835V15.2382H95.1212V15.9405C95.4727 15.5329 96.1521 15.1025 97.0354 15.1025C98.2474 15.1025 98.825 15.7819 98.825 16.8463V20.8448H97.3751H97.3747ZM100.539 19.3385V16.4956H99.6338V15.2382H100.539V13.7429H101.978V15.2382H103.087V16.4956H101.978V18.9535C101.978 19.3046 102.159 19.565 102.476 19.565C102.691 19.565 102.896 19.4857 102.975 19.3953L103.28 20.4933C103.065 20.6866 102.68 20.8448 102.079 20.8448C101.071 20.8448 100.539 20.324 100.539 19.3385Z" fill="#364452"/>
</svg>
