<svg width="84" height="34" viewBox="0 0 84 34" fill="none" xmlns="http://www.w3.org/2000/svg">
<path fill-rule="evenodd" clip-rule="evenodd" d="M12.7221 27.8038H14.34V19.1608H12.7221V27.8038ZM18.6527 27.6741H20.1017V22.2209L26.2011 27.8038V19.2904H24.7561V24.6504L18.6527 19.1608V27.6741ZM29.5091 25.5809C30.2978 26.1953 31.2444 26.5505 32.2593 26.5505C33.2479 26.5505 33.9413 26.2102 33.9413 25.4587C33.9413 24.8037 33.499 24.5471 32.7246 24.2601L31.4706 23.8246C30.3146 23.4141 29.4355 22.8145 29.4355 21.4363C29.4355 19.9623 30.7664 19.1608 32.3579 19.1608C33.3329 19.1608 34.2215 19.4059 34.9157 19.8401V21.3019C34.1939 20.7685 33.4038 20.4012 32.389 20.4012C31.5152 20.4012 30.8623 20.7273 30.8623 21.4073C30.8623 22.0217 31.2721 22.2675 31.9939 22.5147L33.391 23.0049C34.7449 23.4809 35.3661 24.2189 35.3661 25.433C35.3661 26.9604 34.0223 27.8038 32.2593 27.8038C31.1006 27.8038 30.1155 27.4796 29.5091 27.0704V25.5809ZM39.1406 27.8038H40.7578V19.1608H39.1406V27.8038ZM48.3447 26.4958C50.1679 26.4958 51.1422 25.3263 51.1422 23.4802C51.1422 21.6206 50.1672 20.4552 48.3447 20.4552H46.5418V26.4958H48.3447ZM45.0698 19.1608H48.3987C50.9613 19.1608 52.6183 20.8489 52.6183 23.4802C52.6183 26.1136 50.9613 27.8038 48.3987 27.8038H45.0698V19.1608ZM60.7062 19.1608V20.4552H56.7919V22.5349H60.3024V23.8145H56.7912V26.4958H60.7062V27.8038H55.3145V19.1608H60.7062ZM66.4471 23.0744H68.0521C69.0021 23.0744 69.5376 22.5531 69.5376 21.7516C69.5376 20.9501 69.0021 20.4282 68.0521 20.4282H66.4471V23.0744ZM66.4471 24.2966V27.8038H65.0189V19.1608H68.0791C69.8239 19.1608 70.9529 20.0595 70.9529 21.7516C70.9529 23.1987 70.3263 24.0299 68.9913 24.2432L72.0279 27.8038H70.4032L67.4633 24.2973H66.4477L66.4471 24.2966ZM12.1569 10.6461C12.7896 10.4145 13.2826 9.71966 13.2826 8.7642C13.2826 7.172 12.1569 6.34687 10.3561 6.34687H7.33105V15.235H10.637C12.4378 15.235 13.5635 14.3518 13.5635 12.6873C13.5635 11.746 12.9726 10.9209 12.1569 10.6461ZM8.75175 10.0816V7.65007H10.3426C11.3419 7.65007 11.876 8.01199 11.876 8.85131C11.876 9.69062 11.3413 10.0816 10.3426 10.0816H8.75175ZM8.75175 11.3267H10.6086C11.5945 11.3267 12.1286 11.8183 12.1286 12.6292C12.1286 13.4253 11.5938 13.9324 10.6093 13.9324H8.75242V11.326L8.75175 11.3267ZM20.1639 15.3795C22.2321 15.3795 23.6251 14.1343 23.6251 11.7028V6.34687H22.1619V11.5286C22.1619 13.2369 21.4583 14.0337 20.1639 14.0337C18.8694 14.0337 18.1665 13.2369 18.1665 11.5286V6.34687H16.7033V11.688C16.7033 14.1343 18.1098 15.3795 20.1639 15.3795ZM27.0701 14.5975C27.6752 15.0324 28.6603 15.3795 29.8136 15.3795C31.5726 15.3795 32.9089 14.4814 32.9089 12.8608C32.9089 11.5725 32.2904 10.7906 30.9392 10.2842L29.5469 9.76287C28.8291 9.50291 28.4213 9.24227 28.4213 8.59067C28.4213 7.86682 29.0682 7.51975 29.9406 7.51975C30.9534 7.51975 31.7414 7.91003 32.4592 8.4752V6.92554C31.7698 6.46301 30.8832 6.20237 29.9122 6.20237C28.3227 6.20237 26.9999 7.05654 26.9999 8.6197C26.9999 10.0816 27.8723 10.7183 29.0256 11.1525L30.2782 11.6157C31.052 11.9196 31.4882 12.1951 31.4882 12.8899C31.4882 13.686 30.7988 14.0479 29.8136 14.0479C28.8008 14.0479 27.8581 13.6711 27.0701 13.0202V14.5975ZM38.1372 6.34687H36.6747V15.2343H38.1372V6.34687ZM42.3115 15.2235H43.7214V9.44146L49.6553 15.3612V6.33336H48.2495V12.0168L42.3115 6.19629V15.2235ZM58.7987 6.34889V7.67978H54.9998V9.81892H58.4064V11.1349H54.9998V13.8919H58.7987V15.237H53.5656V6.34889H58.7987ZM62.2052 14.5915C62.8102 15.0263 63.7947 15.3734 64.9487 15.3734C66.707 15.3734 68.044 14.476 68.044 12.8548C68.044 11.5664 67.4248 10.7852 66.0743 10.2781L64.6813 9.75747C63.9635 9.49683 63.5557 9.23619 63.5557 8.58459C63.5557 7.86074 64.2026 7.51367 65.075 7.51367C66.0878 7.51367 66.8758 7.90463 67.5936 8.46912V6.92014C66.9042 6.45693 66.0176 6.19629 65.0466 6.19629C63.4571 6.19629 62.1343 7.05046 62.1343 8.61362C62.1343 10.0755 63.0067 10.7122 64.16 11.1464L65.4126 11.6096C66.1864 11.9135 66.6226 12.189 66.6226 12.8838C66.6226 13.6799 65.9339 14.0418 64.948 14.0418C63.9352 14.0418 62.9926 13.6657 62.2052 13.0141V14.5915ZM71.0413 14.5915C71.6463 15.0263 72.6315 15.3734 73.7848 15.3734C75.5438 15.3734 76.8801 14.476 76.8801 12.8548C76.8801 11.5664 76.2609 10.7852 74.9104 10.2781L73.5174 9.75747C72.8003 9.49683 72.3918 9.23619 72.3918 8.58459C72.3918 7.86074 73.0394 7.51367 73.9111 7.51367C74.9239 7.51367 75.7126 7.90463 76.4297 8.46912V6.92014C75.741 6.45693 74.8544 6.19629 73.8834 6.19629C72.2932 6.19629 70.9711 7.05046 70.9711 8.61362C70.9711 10.0755 71.8435 10.7122 72.9968 11.1464L74.2494 11.6096C75.0232 11.9135 75.4594 12.189 75.4594 12.8838C75.4594 13.6799 74.77 14.0418 73.7848 14.0418C72.772 14.0418 71.8293 13.6657 71.0413 13.0141V14.5915Z" fill="#364452"/>
</svg>
