<svg width="70" height="34" viewBox="0 0 70 34" fill="none" xmlns="http://www.w3.org/2000/svg">
<path fill-rule="evenodd" clip-rule="evenodd" d="M19.2817 6.11087L18.8789 8.23242C18.8789 8.23242 21.2958 9.84372 22.6114 12.7437C24.169 16.2345 24.4375 19.6451 24.4375 19.6451L25.0552 17.8999C25.0552 17.8999 24.894 15.026 23.5517 11.7501C21.8061 7.50733 19.2817 6.11087 19.2817 6.11087Z" fill="#364452"/>
<path fill-rule="evenodd" clip-rule="evenodd" d="M18.6372 9.52147L18.2881 11.3472C18.2881 11.3472 20.4902 12.6363 21.9941 15.9122C23.2827 18.8122 23.605 21.9543 23.605 21.9543L24.1689 20.4504C24.1689 20.4504 23.8467 17.3889 22.5039 14.4084C20.8124 10.6494 18.6372 9.52147 18.6372 9.52147Z" fill="#364452"/>
<path fill-rule="evenodd" clip-rule="evenodd" d="M22.2089 7.72218C22.2089 7.72218 23.2562 4.60736 25.8071 4.6607C28.3583 4.71441 29.3785 6.88967 31.7686 6.67483C35.206 6.35257 37.5689 1.92185 37.5689 1.92185L37.2198 0.283691C37.2198 0.283691 35.0986 4.17731 31.7417 4.31158C29.4862 4.39215 28.7071 2.566 26.3442 2.40487C23.122 2.19003 21.9403 5.84195 21.9403 5.84195L22.2089 7.72218ZM25.3237 15.6172C25.3237 15.6172 26.6933 12.8783 29.1636 12.9048C31.4191 12.9317 32.6007 15.1338 34.9908 14.9458C37.7833 14.731 39.5021 10.7837 39.5021 10.7837L39.1794 9.33348C39.1794 9.33348 37.7028 12.6904 34.8834 12.7978C32.6544 12.8783 31.9562 11.0253 29.5933 10.8646C26.8809 10.6497 25.4311 13.4695 25.4311 13.4695L25.3237 15.6172Z" fill="#364452"/>
<path fill-rule="evenodd" clip-rule="evenodd" d="M7.62733 23.6193L7.57362 25.2839C7.49306 25.2574 6.12382 25.2306 5.23723 25.2306C5.10296 27.0023 5.02239 29.6882 4.99554 31.1107H2.57858C2.76657 29.3114 2.90084 27.4857 2.90084 25.2306C2.1489 25.2306 1.3701 25.2571 0.564453 25.2839L0.645018 23.6193H7.62733Z" fill="#364452"/>
<path fill-rule="evenodd" clip-rule="evenodd" d="M8.19131 27.5401C8.24502 27.0567 8.59414 26.5465 9.21143 26.5465C9.77539 26.5465 10.0439 26.8684 10.0439 27.5401H8.19131ZM12.0584 28.5871C12.139 28.2917 12.139 28.0231 12.139 27.7277C12.139 26.1433 11.1189 25.2574 9.23902 25.2574C6.2044 25.2574 5.96308 27.8355 5.96308 28.426C5.96308 30.6814 7.54752 31.2454 9.37367 31.2454C10.045 31.2454 10.7161 31.1648 11.3606 31.0305L11.6291 29.4196C10.9846 29.6072 10.3132 29.7952 9.64222 29.7952C8.86342 29.7952 8.13833 29.4733 8.13833 28.5867L12.0584 28.5871ZM17.4291 27.1638C16.9457 27.0026 16.4623 26.8956 15.9521 26.8956C15.0927 26.8956 14.5287 27.4058 14.5287 28.2917C14.5287 29.151 14.9853 29.6072 15.8446 29.6072C16.328 29.6072 16.811 29.5002 17.268 29.339L16.9725 31.0305C16.4086 31.1648 15.8446 31.2454 15.2807 31.2454C13.4008 31.2454 12.3535 30.2252 12.3535 28.3454C12.3535 27.7274 12.4878 25.2571 15.3881 25.2571C16.1132 25.2571 16.7308 25.3108 17.3217 25.4719L17.4291 27.1638ZM20.3291 23.4585C20.2753 23.8882 20.1679 25.3648 20.1142 26.1709L20.1411 26.1974C20.6513 25.4458 21.2421 25.2574 22.3428 25.2574C23.4707 25.2574 24.4375 25.6871 24.4375 27.0832C24.4375 27.3786 24.2764 29.6613 24.2764 31.1111H22.0206C22.1011 30.1182 22.1817 29.097 22.1817 28.1033C22.1817 27.5666 22.0206 27.0299 21.3492 27.0299C20.7852 27.0299 20.3824 27.4323 20.2213 27.9698C20.0333 28.5871 19.9796 29.8761 19.9259 31.1111H17.67C17.8312 29.6613 18.046 26.2238 18.046 23.4581L20.3291 23.4585Z" fill="#364452"/>
<path fill-rule="evenodd" clip-rule="evenodd" d="M27.4721 25.0691C27.3647 27.0832 27.311 29.097 27.2841 31.1111H24.894C25.1626 28.7214 25.27 26.5192 25.27 23.4581H29.3248C29.8619 23.4581 32.064 23.5118 32.064 25.4988C32.064 26.7072 31.3657 27.3518 30.2647 27.7277C30.7212 28.8825 31.2852 29.9567 31.7682 31.1111H29.2173C28.8145 29.6613 28.2774 28.2376 27.7403 26.815C27.9283 26.8684 28.1163 26.8684 28.3043 26.8684C28.9756 26.8684 29.7541 26.627 29.7541 25.8482C29.7541 25.0694 29.0025 25.0694 28.4654 25.0694H27.4721V25.0691Z" fill="#364452"/>
<path fill-rule="evenodd" clip-rule="evenodd" d="M33.8901 27.5401C33.9438 27.0567 34.2929 26.5465 34.9102 26.5465C35.4477 26.5465 35.7155 26.8684 35.7155 27.5401H33.8901ZM37.7572 28.5871C37.8106 28.2917 37.8378 28.0231 37.8378 27.7277C37.8378 26.1433 36.8177 25.2574 34.9375 25.2574C31.876 25.2574 31.6343 27.8355 31.6343 28.426C31.6343 30.6814 33.2187 31.2454 35.0449 31.2454C35.7159 31.2454 36.3876 31.1648 37.0322 31.0305L37.3276 29.4196C36.683 29.6072 35.9848 29.7952 35.3134 29.7952C34.5615 29.7952 33.8095 29.4733 33.8095 28.5867L37.7572 28.5871ZM40.335 26.9224C40.6304 26.8687 40.8982 26.8154 41.1671 26.8154C42.0265 26.8154 42.4561 27.3256 42.4561 28.1574C42.4561 28.8292 42.1342 29.6885 41.3282 29.6885C40.5502 29.6885 40.2275 28.9362 40.2275 28.2652C40.2272 27.8083 40.2812 27.3786 40.335 26.9224ZM40.0399 33.7164C40.0399 32.6687 40.0933 31.5945 40.147 30.5203C40.7109 31.0037 41.4095 31.2454 42.1611 31.2454C43.8257 31.2454 44.6314 29.715 44.6314 28.2376C44.6314 26.6808 43.8526 25.2571 41.5166 25.2571C40.2275 25.2571 39.2074 25.3641 38.1869 25.5525C38.1869 28.2648 38.0254 31.0037 37.7837 33.716L40.0399 33.7164ZM49.0621 30.3595C48.5787 31.0305 47.8809 31.2454 47.048 31.2454C45.4635 31.2454 45.0074 30.4666 45.0074 29.5002C45.0074 29.1246 45.2222 26.5189 45.2222 25.3917H47.4512C47.3975 26.4118 47.2363 27.4323 47.2363 28.426C47.2363 28.9899 47.424 29.4461 48.0685 29.4461C48.6324 29.4461 48.9543 28.9899 49.0886 28.4797C49.2229 27.8352 49.2501 26.5189 49.277 25.3913H51.5059C51.3176 27.2977 51.2374 29.2044 51.184 31.1107H49.089V30.3595H49.0621ZM54.1642 26.9224C54.4328 26.8687 54.7009 26.8154 54.9971 26.8154C55.8292 26.8154 56.2589 27.3256 56.2589 28.1574C56.2589 28.8292 55.937 29.6885 55.131 29.6885C54.3529 29.6885 54.0303 28.9362 54.0303 28.2652C54.0299 27.8083 54.0836 27.3786 54.1642 26.9224ZM53.8688 30.3864H53.8953C54.3522 30.9776 54.943 31.2457 55.6946 31.2457C57.5211 31.2457 58.4334 29.6889 58.4334 28.0231C58.4334 26.2239 57.3864 25.2574 55.614 25.2574C55.3992 25.2574 55.1578 25.2574 54.943 25.2839C54.7009 25.3111 54.4868 25.3376 54.2713 25.3917C54.325 24.5864 54.3526 24.0221 54.4328 23.4581H52.1501C52.1236 26.009 51.9617 28.5602 51.7745 31.1111H53.8688V30.3864ZM61.3069 23.4585C61.1726 24.7476 60.9313 29.0973 60.8772 31.1115H58.5953C58.8366 28.5606 58.9437 26.0094 59.025 23.4585H61.3069ZM61.4412 31.1111C61.6295 29.3659 61.7097 27.6744 61.7366 25.3917H64.0458C63.8309 27.2981 63.8309 29.2048 63.8309 31.1111H61.4412ZM61.7907 24.667L61.8172 23.3242H64.0461L63.9928 24.667H61.7907ZM69.3903 27.1638C68.9069 27.0026 68.4231 26.8956 67.9405 26.8956C67.0539 26.8956 66.4899 27.4058 66.4899 28.2917C66.4899 29.1511 66.9468 29.6072 67.8062 29.6072C68.2889 29.6072 68.7726 29.5002 69.2295 29.339L68.9334 31.0305C68.3802 31.1697 67.8123 31.2418 67.2419 31.2454C65.3624 31.2454 64.3147 30.2253 64.3147 28.3454C64.3147 27.7274 64.449 25.2571 67.3489 25.2571C68.1012 25.2571 68.6917 25.3108 69.2825 25.4719L69.3903 27.1638Z" fill="#364452"/>
</svg>
