<svg width="103" height="34" viewBox="0 0 103 34" fill="none" xmlns="http://www.w3.org/2000/svg">
<path d="M26.553 17.3695C26.5278 17.2032 26.4775 17.0369 26.3644 16.8891C26.2261 16.695 26.0249 16.538 25.7358 16.4086C25.4466 16.2885 25.0946 16.2238 24.642 16.2238C24.1894 16.2238 23.8248 16.2885 23.5105 16.4271C23.1962 16.5657 22.9448 16.769 22.7813 17.0277C22.7185 17.1293 22.6682 17.2494 22.6305 17.3695H26.553Z" fill="#364452"/>
<path d="M51.949 14.8286C51.5341 14.6254 51.0815 14.5237 50.5661 14.5237H49.686V19.6886H50.5661C51.069 19.6886 51.5341 19.587 51.949 19.3745C52.3639 19.162 52.6908 18.8663 52.9296 18.4782C53.1685 18.0902 53.2942 17.6282 53.2942 17.0923C53.2942 16.5564 53.1685 16.0944 52.9296 15.7156C52.6908 15.3276 52.3639 15.0319 51.949 14.8286Z" fill="#364452"/>
<path d="M61.428 18.4506C61.2645 18.4783 61.0885 18.5152 60.9 18.5337C60.4976 18.5892 60.0828 18.6261 59.6805 18.6631C59.2027 18.7 58.8381 18.7555 58.5993 18.8386C58.3604 18.9218 58.2472 19.0696 58.2472 19.2636C58.2472 19.4577 58.3478 19.5963 58.549 19.6887C58.7501 19.781 59.0518 19.8272 59.4542 19.8272C59.7936 19.8272 60.1205 19.781 60.4222 19.6887C60.7239 19.5963 60.9628 19.4484 61.1514 19.2544C61.34 19.0604 61.4405 18.8017 61.4405 18.4783V18.4506H61.428Z" fill="#364452"/>
<path d="M75.4585 8.10229H8.73828V25.8976H94.3166L75.4585 8.10229ZM17.1239 20.936V14.0895H14.3957V12.759H22.1904V14.0895H19.4497V20.936H17.1239ZM28.9542 18.3212C28.9542 18.4044 28.9417 18.469 28.9291 18.506H22.5927C22.6305 18.6631 22.6933 18.8017 22.7688 18.931C22.9322 19.199 23.1711 19.4022 23.4979 19.5501C23.8248 19.6979 24.2271 19.7626 24.7049 19.7626C25.0192 19.7626 25.2832 19.7441 25.5095 19.6979C25.7358 19.6517 25.9244 19.6055 26.0626 19.5316C26.2009 19.4669 26.3141 19.393 26.3895 19.3098C26.465 19.2267 26.5152 19.1528 26.5278 19.0696H28.8411C28.8159 19.3191 28.6902 19.5593 28.4891 19.7995C28.2879 20.0398 28.0113 20.2523 27.6467 20.4463C27.2947 20.6403 26.8547 20.7882 26.3392 20.899C25.8238 21.0099 25.2455 21.0653 24.5917 21.0653C23.7117 21.0653 22.9322 20.936 22.2784 20.6773C21.6247 20.4186 21.1092 20.0582 20.7446 19.5963C20.3801 19.1343 20.204 18.6076 20.204 18.0071C20.204 17.3973 20.3926 16.8614 20.7572 16.3994C21.1218 15.9374 21.6373 15.5771 22.3036 15.3276C22.9699 15.0689 23.7242 14.9395 24.6043 14.9395C25.4969 14.9395 26.2638 15.0689 26.9175 15.3276C27.5839 15.5863 28.0742 15.9559 28.4262 16.4179C28.7782 16.8891 28.9542 17.4342 28.9542 18.0533C28.9542 18.1457 28.9542 18.238 28.9542 18.3212ZM37.8427 17.3233C37.8427 17.3326 37.8427 17.3418 37.8427 17.3511H35.5169C35.5169 17.3326 35.5169 17.3049 35.5169 17.2864C35.5169 17.2679 35.5043 17.2494 35.4917 17.2217C35.454 17.0646 35.366 16.9168 35.2277 16.7874C35.0894 16.6581 34.9008 16.538 34.662 16.4548C34.4231 16.3717 34.1088 16.3255 33.7568 16.3255C33.367 16.3255 33.0276 16.3901 32.7259 16.5103C32.4241 16.6396 32.1853 16.8244 32.0093 17.0646C31.8332 17.3049 31.7452 17.6098 31.7452 17.9793C31.7452 18.3304 31.8332 18.6446 32.0093 18.8941C32.1853 19.1435 32.4241 19.3468 32.7259 19.4854C33.0276 19.624 33.3796 19.6887 33.7568 19.6887C34.1591 19.6887 34.4734 19.6425 34.7248 19.5501C34.9763 19.4577 35.1649 19.3376 35.2906 19.1805C35.4163 19.0234 35.4917 18.8571 35.5169 18.6723H37.8301C37.8301 18.9495 37.7421 19.2267 37.5661 19.5039C37.3901 19.7903 37.1387 20.0398 36.7992 20.28C36.4598 20.5202 36.0323 20.705 35.5294 20.8436C35.0266 20.9914 34.4357 21.0561 33.7693 21.0561C32.8893 21.0561 32.1224 20.9267 31.4561 20.668C30.7898 20.4093 30.2743 20.0398 29.9097 19.5778C29.5451 19.1158 29.3565 18.5707 29.3565 17.9609C29.3565 17.3418 29.5451 16.8059 29.9097 16.3532C30.2743 15.9005 30.7898 15.5493 31.4561 15.2999C32.1224 15.0504 32.8893 14.9211 33.7693 14.9211C34.4231 14.9211 35.014 14.995 35.5169 15.1336C36.0198 15.2722 36.4472 15.4662 36.7866 15.6972C37.1261 15.9282 37.3901 16.1869 37.5661 16.4641C37.7421 16.7412 37.8301 17.0184 37.8301 17.2864C37.8427 17.3049 37.8427 17.3141 37.8427 17.3233ZM46.5929 18.0348C46.5929 18.3027 46.5929 18.6169 46.5929 18.968V20.936H44.2545V18.8386C44.2545 18.7647 44.2545 18.6631 44.2545 18.5337C44.2545 18.4044 44.2545 18.275 44.2545 18.1364C44.2545 17.9978 44.2545 17.8962 44.2545 17.813C44.2545 17.3603 44.1413 17.0184 43.9276 16.769C43.7013 16.5195 43.299 16.3994 42.7081 16.3994C42.3309 16.3994 42.0041 16.4548 41.7401 16.5657C41.476 16.6766 41.2875 16.8336 41.1492 17.0369C41.0109 17.2402 40.948 17.4804 40.948 17.7484V20.9175H38.6096V12.2693H40.948V15.882C41.1995 15.6325 41.5012 15.4108 41.8909 15.2537C42.3938 15.0412 42.9847 14.9395 43.651 14.9395C44.6316 14.9395 45.3734 15.152 45.8637 15.5771C46.354 16.0021 46.6055 16.5934 46.6055 17.3418C46.5929 17.5266 46.5929 17.7576 46.5929 18.0348ZM55.1796 18.6446C54.9533 19.1158 54.639 19.5223 54.2242 19.8642C53.8093 20.2061 53.319 20.4648 52.7532 20.6588C52.1749 20.8436 51.5463 20.936 50.8423 20.936H47.4729V13.2764H50.8423C51.5337 13.2764 52.1749 13.3688 52.7532 13.5536C53.3315 13.7384 53.8219 13.9971 54.2242 14.339C54.639 14.6808 54.9533 15.0781 55.1796 15.5493C55.4059 16.0206 55.5065 16.5287 55.5065 17.1016C55.5065 17.6744 55.4059 18.1734 55.1796 18.6446ZM61.8806 20.936C61.8429 20.9083 61.7926 20.8621 61.7297 20.7882C61.6669 20.7142 61.604 20.6218 61.5537 20.5202C61.5286 20.4555 61.516 20.4001 61.4908 20.3354C61.4028 20.4093 61.3148 20.474 61.2017 20.5387C60.9125 20.705 60.5605 20.8251 60.1582 20.9175C59.7559 21.0099 59.3159 21.0469 58.8507 21.0469C58.2975 21.0469 57.8198 20.9822 57.3923 20.8528C56.9649 20.7235 56.638 20.5387 56.3866 20.2985C56.1477 20.0582 56.022 19.7626 56.022 19.4115C56.022 19.0234 56.1728 18.7 56.462 18.4598C56.7512 18.2196 57.1409 18.0255 57.6186 17.8962C58.0964 17.7668 58.6244 17.6837 59.1901 17.6375C60.0199 17.582 60.5856 17.5266 60.9 17.4804C61.2143 17.4342 61.3651 17.3511 61.3651 17.2217V17.2125C61.3651 17.0092 61.2268 16.8429 60.9628 16.732C60.6988 16.6119 60.3216 16.5565 59.8439 16.5565C59.341 16.5565 58.9513 16.6211 58.6873 16.7597C58.4232 16.8891 58.285 17.0923 58.285 17.3695H56.1351C56.1351 16.926 56.2986 16.5565 56.6254 16.2516C56.9523 15.9466 57.3923 15.7157 57.9581 15.5586C58.5238 15.4015 59.1524 15.3184 59.8565 15.3184C60.5102 15.3184 61.1262 15.3923 61.692 15.5401C62.2577 15.6879 62.6978 15.9097 63.0498 16.2054C63.3892 16.501 63.5652 16.8706 63.5652 17.3233C63.5652 17.3973 63.5652 17.4712 63.5652 17.5358C63.5652 17.6005 63.5652 17.6744 63.5652 17.7484V19.6979C63.5652 19.8365 63.5652 19.9751 63.5778 20.1044C63.5904 20.2338 63.6155 20.3539 63.6532 20.4648C63.7035 20.5849 63.7538 20.6865 63.8293 20.7697C63.9047 20.8528 63.955 20.9083 64.0053 20.936H61.8806ZM68.8707 21.2132C68.6821 21.6474 68.4432 22.0263 68.1541 22.3404C67.8775 22.6545 67.5003 22.8948 67.0226 23.0703C66.5574 23.2366 65.9288 23.329 65.1745 23.329C64.9356 23.329 64.7344 23.3198 64.5459 23.3105C64.3573 23.3013 64.2441 23.2828 64.1938 23.2736V22.054C64.2567 22.0725 64.3573 22.0909 64.5207 22.1002C64.6716 22.1094 64.835 22.1186 65.011 22.1186C65.2373 22.1186 65.451 22.0817 65.6396 22.017C65.8282 21.9523 65.9917 21.8507 66.1174 21.7306C66.2557 21.6105 66.3562 21.4626 66.4317 21.2963L66.5574 21.0191L63.9675 15.4292H66.2557L67.7643 19.5963L69.2101 15.4292H71.4605L68.8707 21.2132Z" fill="#364452"/>
</svg>
