<svg width="100%" viewBox="0 0 176 128" fill="none" xmlns="http://www.w3.org/2000/svg" aria-hidden="true" variant="active" class="sc-62d76f46-5 dOrBBr"><g clip-path="url(#clip0_5412_17969)"><path d="M132.244 113.859H80.8L88.5854 81.6895L90.0492 53.4924L92.4522 51.2392L95.9329 47.9755C105.669 44.4418 114.115 46.2034 114.115 46.2034L119.495 50.2424L125.38 54.659L132.244 113.859Z" fill="#CCDFFF"></path><path d="M132.244 113.859H80.8L88.5854 81.6895L90.0492 53.4924L92.4522 51.2392L95.9329 47.9755C105.669 44.4418 114.115 46.2034 114.115 46.2034L119.495 50.2424L125.38 54.659L132.244 113.859Z" stroke="black" stroke-width="0.66559" stroke-miterlimit="10" stroke-linecap="round"></path><path d="M119.495 50.2424C118.406 56.1421 115.522 63.8257 107.02 64.4807C98.5706 65.1316 93.9223 55.1031 92.4521 51.2392L95.9329 47.9755C105.669 44.4418 114.115 46.2034 114.115 46.2034L119.495 50.2424Z" fill="white"></path><path d="M119.495 50.2424C118.406 56.1421 115.522 63.8257 107.02 64.4807C98.5706 65.1316 93.9223 55.1031 92.4521 51.2392L95.9329 47.9755C105.669 44.4418 114.115 46.2034 114.115 46.2034L119.495 50.2424Z" stroke="black" stroke-width="0.66559" stroke-miterlimit="10" stroke-linecap="round"></path><path d="M96.3252 62.5272C98.3612 65.3848 100.15 68.4175 101.663 71.582" stroke="black" stroke-width="0.66559" stroke-miterlimit="10" stroke-linecap="round"></path><path d="M115.242 64.9955C113.62 68.1685 112.206 71.448 111.011 74.8045" stroke="black" stroke-width="0.66559" stroke-miterlimit="10" stroke-linecap="round"></path><path d="M104.092 86.3867C105.022 88.1483 105.391 90.1462 105.656 92.1198C106.375 97.4911 106.405 102.953 105.744 108.332" stroke="black" stroke-width="0.66559" stroke-miterlimit="10" stroke-linecap="round"></path><path d="M89.0149 102.866C90.2481 103.825 91.0995 105.204 91.6611 106.66C92.2227 108.116 92.5168 109.658 92.8076 111.191" stroke="black" stroke-width="0.66559" stroke-miterlimit="10" stroke-linecap="round"></path><path d="M136.958 53.9333C137.579 54.3458 139.043 55.4913 140.205 57.7561C140.317 57.9744 140.541 58.1095 140.787 58.1105C141.211 58.1105 141.861 58.1844 142.156 58.5968C142.741 59.4143 142.89 60.3616 142.928 60.7909C142.942 60.9417 143.013 61.0799 143.126 61.1801C143.744 61.7318 145.807 63.8056 147.641 68.294C149.059 71.7634 149.39 73.7413 149.448 74.7022C149.485 75.3193 149.614 75.9269 149.84 76.5018C150.842 79.0514 153.512 85.6758 155.994 90.3003C156.556 91.3488 156.693 92.5714 156.374 93.7169C156.126 94.6104 155.813 95.7348 155.496 96.873C154.81 99.3403 151.761 100.224 149.855 98.5091L143.511 92.7992C138.841 88.5956 135.352 83.2476 133.392 77.2855L130.071 67.1864C129.166 64.4364 129.799 61.4132 131.732 59.254L136.433 54.0019C136.568 53.8521 136.792 53.8226 136.959 53.9333H136.958Z" fill="#0564FF"></path><path d="M136.004 72.7191C136.004 72.7191 137.289 66.6379 140.368 60.9227" stroke="black" stroke-width="0.66559" stroke-miterlimit="10" stroke-linecap="round"></path><path d="M140.702 75.7001C140.702 75.7001 141.714 74.6906 143.578 74.3984" stroke="black" stroke-width="0.66559" stroke-miterlimit="10" stroke-linecap="round"></path><path d="M139.637 77.0282C139.637 77.0282 142.14 75.4618 147.227 75.4881" stroke="black" stroke-width="0.66559" stroke-miterlimit="10" stroke-linecap="round"></path><path d="M81.5657 53.6749C81.4398 53.5029 81.2082 53.4439 81.0146 53.5335C80.1558 53.9259 77.8755 54.9428 77.113 55.024C76.1664 55.1253 74.9141 55.0483 73.7306 56.773C72.5471 58.4976 70.0437 61.3658 67.169 63.3215C64.2943 65.2782 64.4297 66.9301 64.6666 68.044C64.9035 69.1579 63.3456 72.9143 60.565 77.0988C58.2319 80.6115 54.2244 86.6442 49.1118 93.084C47.4396 95.1895 47.7484 98.239 49.8077 99.97C52.8738 102.547 57.3233 102.658 60.5143 100.235L79.5784 85.7634C83.5392 82.757 86.0649 78.2328 86.5091 73.2887C87.0104 67.6991 86.3917 60.255 81.5678 53.6738L81.5657 53.6749Z" fill="#0564FF"></path><path d="M81.5657 53.6749C81.4398 53.5029 81.2082 53.4439 81.0146 53.5335C80.1558 53.9259 77.8755 54.9428 77.113 55.024C76.1664 55.1253 74.9141 55.0483 73.7306 56.773C72.5471 58.4976 70.0437 61.3658 67.169 63.3215C64.2943 65.2782 64.4297 66.9301 64.6666 68.044C64.9035 69.1579 63.3456 72.9143 60.565 77.0988C58.2319 80.6115 54.2244 86.6442 49.1118 93.084C47.4396 95.1895 47.7484 98.239 49.8077 99.97C52.8738 102.547 57.3233 102.658 60.5143 100.235L79.5784 85.7634C83.5392 82.757 86.0649 78.2328 86.5091 73.2887C87.0104 67.6991 86.3917 60.255 81.5678 53.6738L81.5657 53.6749Z" stroke="black" stroke-width="0.66559" stroke-miterlimit="10" stroke-linecap="round"></path><path d="M65.9402 67.4069C65.9402 67.4069 71.2676 75.679 77.8091 79.1737" stroke="black" stroke-width="0.66559" stroke-miterlimit="10" stroke-linecap="round"></path><path d="M72.9829 72.2919C72.9829 72.2919 75.1638 76.6779 77.6302 78.603" stroke="black" stroke-width="0.66559" stroke-miterlimit="10" stroke-linecap="round"></path><path d="M72.9829 66.3373C72.9829 66.3373 74.7703 73.601 77.809 77.9564" stroke="black" stroke-width="0.66559" stroke-miterlimit="10" stroke-linecap="round"></path><path d="M97.7181 69.2139C96.1168 72.697 94.3337 77.812 93.8609 82.601C93.3881 87.39 92.6605 90.7644 89.569 97.7296C86.4764 104.696 83.8333 113.859 83.8333 113.859H75.0559C75.0559 113.859 79.0517 100.941 77.5636 85.4607C76.6445 75.9079 78.0342 64.1791 79.3172 56.2139C79.5234 54.9376 80.3452 53.8458 81.5171 53.2941C83.9476 52.1507 87.2115 50.5916 89.0771 49.8289C91.3807 48.888 93.8609 48.5083 93.8609 48.5083C94.4944 48.1232 95.165 47.9597 95.6441 47.8901C95.9296 47.849 96.1454 48.1412 96.0238 48.4028C95.5098 49.5072 94.5092 52.1338 94.8032 55.3426C95.0105 57.5947 95.5341 59.4586 96.1063 61.0631C97.349 64.5588 98.816 66.8268 97.7181 69.2139Z" fill="#0564FF"></path><path d="M78.4383 62.2782C77.5139 69.4934 76.8571 78.1189 77.5636 85.4595C79.0517 100.939 75.0559 113.858 75.0559 113.858H83.8333C83.8333 113.858 86.4764 104.695 89.569 97.7285C92.6605 90.7633 93.3881 87.3889 93.8609 82.5999C94.3337 77.8108 96.1168 72.6959 97.7181 69.2128C98.816 66.8257 97.349 64.5577 96.1063 61.062C95.5341 59.4575 95.0105 57.5936 94.8032 55.3415C94.5092 52.1327 95.5098 49.5061 96.0238 48.4017C96.1454 48.1411 95.9296 47.8479 95.6441 47.889C95.165 47.9586 94.4944 48.1221 93.8609 48.5072C93.8609 48.5072 91.3807 48.8869 89.0771 49.8278C87.2115 50.5905 83.9476 52.1496 81.5171 53.293L80.5313 53.7508" stroke="black" stroke-width="0.66559" stroke-miterlimit="10" stroke-linecap="round"></path><path d="M94.8034 55.3426C94.9948 57.4207 95.4549 59.1675 95.9742 60.6854C96.0503 60.9091 95.9742 61.1559 95.787 61.2994C94.0186 62.6485 92.3972 64.5504 91.6378 65.4966C91.421 65.7677 90.9842 65.6886 90.8837 65.3563C90.4014 63.755 90.8848 61.7972 91.4337 60.1127C92.0693 58.1644 92.6309 54.6085 92.7769 52.0515C92.9239 49.4935 93.8599 48.5083 93.8599 48.5083C94.4935 48.1232 95.1651 47.9597 95.6442 47.8901C95.9297 47.849 96.1445 48.1412 96.0239 48.4017C95.5099 49.5062 94.5093 52.1327 94.8034 55.3416V55.3426Z" stroke="black" stroke-width="0.66559" stroke-miterlimit="10" stroke-linecap="round"></path><path d="M77.2695 77.9565C77.2695 77.9565 78.1431 65.6284 81.3468 58.1327" stroke="black" stroke-width="0.66559" stroke-miterlimit="10" stroke-linecap="round"></path><path d="M138.779 113.859H124.308C124.308 113.859 122.332 105.613 121.523 100.547C120.713 95.4828 119.814 90.9111 117.612 83.2919C115.41 75.6717 114.557 70.6971 114.819 68.9038C114.83 68.831 114.845 68.754 114.864 68.6739C115.306 66.7699 117.897 62.6918 118.242 56.7731C118.524 51.925 115.452 48.0748 114.122 46.6476C113.907 46.4176 114.103 46.0463 114.414 46.0927C115.289 46.2256 116.749 46.6666 118.521 48.0516C118.521 48.0516 122.325 48.6338 125.22 49.9608C128.115 51.2878 129.165 51.8237 130.099 51.9397C130.812 52.0283 133.827 51.9819 136.657 53.7499C137.894 54.522 138.517 55.983 138.21 57.4049C138.02 58.2878 137.834 59.2361 137.656 60.253C135.768 71.0546 135.948 89.4755 137.341 96.602C138.735 103.729 138.779 113.858 138.779 113.858V113.859Z" fill="#0564FF"></path><path d="M121.617 68.1274C118.155 65.697 115.978 67.3995 115.194 68.2582C115.116 68.3426 114.979 68.2624 115.015 68.1538C115.719 66.0789 117.925 62.1991 118.241 56.772C118.523 51.9239 115.451 48.0737 114.121 46.6465C113.907 46.4165 114.102 46.0452 114.413 46.0916C115.288 46.2245 116.748 46.6655 118.52 48.0505C122.494 53.7203 122.47 64.5525 122.369 67.7571C122.357 68.1358 121.927 68.3447 121.616 68.1263L121.617 68.1274Z" stroke="black" stroke-width="0.66559" stroke-miterlimit="10" stroke-linecap="round"></path><path d="M131.079 59.042C130.885 64.1169 131.156 69.2086 131.888 74.2339" stroke="black" stroke-width="0.66559" stroke-miterlimit="10" stroke-linecap="round"></path><path d="M127.091 85.7339C127.35 94.5914 127.609 103.448 127.869 112.306" stroke="black" stroke-width="0.66559" stroke-miterlimit="10" stroke-linecap="round"></path><path d="M113.508 53.9986L104.204 57.2602C101.825 58.0936 99.2529 56.659 98.7188 54.2022L97.7183 49.5915L112.064 36.5968L113.411 40.2445L116.125 48.7655C116.813 50.928 115.655 53.2455 113.508 53.9986Z" fill="white"></path><path d="M97.717 49.5915L112.063 36.5968L113.409 40.2445L116.123 48.7655" stroke="black" stroke-width="0.66559" stroke-miterlimit="10" stroke-linecap="round"></path><path d="M120.423 45.0768C119.511 46.216 118.442 46.5325 117.506 46.5145C116.206 46.4892 115.078 45.6053 114.693 44.3669L113.048 39.0821C112.923 38.6844 112.344 38.7287 112.283 39.1411L112.245 39.4017C111.827 42.2255 110.413 44.8088 108.257 46.6854L103.683 50.6675C101.947 52.1791 99.7192 53.0124 97.4146 53.0124C96.6277 53.0124 95.8789 52.7824 95.2454 52.3732C94.6119 51.9649 94.0936 51.3774 93.771 50.6622C93.2856 49.5852 92.6965 48.2371 92.1274 46.8289C92.2131 46.1464 92.0132 45.2519 91.8218 44.5525C91.77 44.3616 91.7308 44.1823 91.7033 44.0177C91.6092 43.4534 92.0619 42.946 92.6362 42.9755C96.1328 43.157 99.1767 41.9175 100.63 41.1949C101.23 40.8964 101.96 41.1422 102.257 41.7413C102.945 43.138 103.004 44.8827 102.984 45.7477C102.978 46.0019 103.29 46.1348 103.466 45.9512C104.05 45.3437 104.502 44.0504 105.494 42.4323C106.297 41.1211 107.52 40.5451 108.299 40.3004C108.778 40.1496 109.125 39.735 109.199 39.2403C109.336 38.3247 109.509 36.7129 109.495 34.4513C109.478 31.8458 107.788 30.6517 106.779 30.1718C106.374 29.9787 106.158 29.5325 106.253 29.0948C106.613 27.4492 106.991 23.7783 103.39 23.233C100.314 22.7667 97.8038 23.215 96.1338 23.734C94.8868 24.1212 93.5711 24.1992 92.2734 24.0378C91.9233 23.9935 91.5775 23.9946 91.2708 24.0146C90.6393 24.0568 90.1359 24.5526 90.0936 25.1823C90.0449 25.9207 89.9762 27.0199 89.9127 28.3121C88.4637 26.656 88.4955 24.4714 88.6668 22.5262C88.7779 21.272 89.2887 20.8585 89.6758 20.7288C89.9508 20.6359 90.1496 20.4028 90.1983 20.118C91.4537 12.6476 106.174 10.3153 112.467 14.4999C117.522 17.8606 119.007 25.2446 119.413 28.2773C119.504 28.9608 119.946 29.5315 120.559 29.8469C121.155 30.1538 121.602 30.7488 121.924 31.5367C123.388 35.1264 123.052 41.7941 120.423 45.0768Z" fill="black"></path><path d="M109.199 39.2403C109.125 39.735 108.778 40.1496 108.299 40.3004C107.52 40.5452 106.297 41.1211 105.494 42.4323C104.502 44.0504 104.05 45.3437 103.467 45.9513C103.29 46.1348 102.978 46.0019 102.984 45.7477C103.004 44.8827 102.945 43.138 102.257 41.7414C101.96 41.1422 101.23 40.8964 100.63 41.195C99.1767 41.9175 96.1328 43.157 92.6362 42.9755C92.0619 42.946 91.6092 43.4534 91.7034 44.0177C91.7309 44.1823 91.77 44.3616 91.8218 44.5525C92.0133 45.2519 92.2132 46.1464 92.1275 46.8289C91.311 44.8089 90.5347 42.6644 90.1634 41.0198C89.5553 38.3226 89.7118 32.3659 89.9128 28.3121C89.9762 27.0199 90.045 25.9208 90.0936 25.1824C90.1359 24.5526 90.6394 24.0568 91.2708 24.0146C91.5775 23.9946 91.9234 23.9935 92.2734 24.0378C93.5712 24.1992 94.8869 24.1212 96.1339 23.7341C97.8039 23.2151 100.314 22.7668 103.39 23.233C106.991 23.7784 106.613 27.4492 106.253 29.0948C106.158 29.5326 106.374 29.9788 106.779 30.1718C107.788 30.6517 109.478 31.8458 109.495 34.4513C109.509 36.7129 109.336 38.3247 109.199 39.2403Z" fill="white"></path><path d="M92.1275 46.8288C91.311 44.8088 90.5347 42.6643 90.1634 41.0198C89.5553 38.3225 89.7118 32.3658 89.9128 28.312" stroke="black" stroke-width="0.66559" stroke-miterlimit="10" stroke-linecap="round"></path><path d="M95.9329 46.8288C95.9329 46.8288 99.6145 46.4111 101.679 43.928" stroke="white" stroke-width="0.66559" stroke-miterlimit="10" stroke-linecap="round"></path><path d="M93.2328 34.4702L91.9594 40.755C91.8029 41.5303 92.3698 42.2645 93.1609 42.3098L94.8024 42.4058" stroke="black" stroke-width="0.66559" stroke-miterlimit="10" stroke-linecap="round"></path><path d="M96.4521 32.4608C96.4521 32.4608 100.169 30.0072 102.995 32.2256" stroke="black" stroke-width="0.66559" stroke-miterlimit="10" stroke-linecap="round"></path><path d="M92.6044 33.0873C92.6044 33.0873 91.2432 31.9365 89.7646 32.2508" stroke="black" stroke-width="0.66559" stroke-miterlimit="10" stroke-linecap="round"></path><path d="M98.9133 35.3046C98.9133 35.3046 99.5955 35.6538 100.312 35.235" stroke="black" stroke-width="0.66559" stroke-miterlimit="10" stroke-linecap="round"></path><path d="M91.2834 35.8469C91.2834 35.8469 91.7615 36.0916 92.2639 35.7983" stroke="black" stroke-width="0.66559" stroke-miterlimit="10" stroke-linecap="round"></path><path d="M116.95 37.6179C115.971 39.8025 114.069 40.851 112.701 39.9607C111.332 39.0683 111.016 36.5757 111.995 34.3911C112.975 32.2065 114.876 31.158 116.245 32.0483C117.614 32.9386 117.93 35.4312 116.95 37.6158V37.6179Z" fill="white"></path><path d="M116.95 37.6179C115.971 39.8025 114.069 40.851 112.701 39.9607C111.332 39.0683 111.016 36.5757 111.995 34.3911C112.975 32.2065 114.876 31.158 116.245 32.0483C117.614 32.9386 117.93 35.4312 116.95 37.6158V37.6179Z" stroke="black" stroke-width="0.66559" stroke-miterlimit="10" stroke-linecap="round"></path><path d="M113.622 38.2857C116.332 36.4713 116.619 34.1137 115.487 33.7382C114.672 33.4703 113.878 34.4028 113.554 34.8479C113.487 34.9418 113.553 35.0852 113.676 35.1232C113.886 35.1855 114.142 35.3321 114.167 35.6496C114.204 36.2002 113.587 36.466 113.587 36.466" stroke="black" stroke-width="0.66559" stroke-miterlimit="10" stroke-linecap="round"></path><path d="M75.056 31.7309C75.056 44.4323 67.5742 55.3901 56.7671 60.4607C52.6624 62.3858 48.0775 63.4628 43.2419 63.4628C42.4498 63.4628 41.6629 63.4344 40.8844 63.3763C39.0071 63.2403 37.1753 62.9407 35.4016 62.4913C34.3418 62.2244 33.3032 61.9027 32.2889 61.5325C20.1133 57.0799 11.4258 45.4175 11.4258 31.7319C11.4247 14.2067 25.6691 0 43.2409 0C60.8126 0 75.056 14.2067 75.056 31.7309Z" fill="#0564FF"></path><path d="M75.056 31.7309C75.056 44.4323 67.5742 55.3901 56.7671 60.4607C52.6624 62.3858 48.0775 63.4628 43.2419 63.4628C42.4498 63.4628 41.6629 63.4344 40.8844 63.3763C39.0071 63.2403 37.1753 62.9407 35.4016 62.4913C34.3418 62.2244 33.3032 61.9027 32.2889 61.5325C20.1133 57.0799 11.4258 45.4175 11.4258 31.7319C11.4247 14.2067 25.6691 0 43.2409 0C60.8126 0 75.056 14.2067 75.056 31.7309Z" fill="#0564FF"></path><path d="M71.5035 31.7309C71.5035 38.8384 68.8658 45.3321 64.5146 50.2899C62.7441 52.3078 60.6901 54.0704 58.413 55.5177C54.0291 58.3046 48.8244 59.9196 43.2411 59.9196C42.9185 59.9196 42.597 59.9143 42.2754 59.9037C38.4785 59.7761 34.8708 58.9027 31.5974 57.4227C21.7962 52.9987 14.9775 43.1591 14.9775 31.7309C14.9775 16.1634 27.6312 3.54321 43.2411 3.54321C58.8509 3.54321 71.5035 16.1634 71.5035 31.7309Z" fill="white"></path><path d="M71.5035 31.7309C71.5035 38.8384 68.8658 45.3321 64.5146 50.2899C62.7441 52.3078 60.6901 54.0704 58.413 55.5177C54.0291 58.3046 48.8244 59.9196 43.2411 59.9196C42.9185 59.9196 42.597 59.9143 42.2754 59.9037C38.4785 59.7761 34.8708 58.9027 31.5974 57.4227C21.7962 52.9987 14.9775 43.1591 14.9775 31.7309C14.9775 16.1634 27.6312 3.54321 43.2411 3.54321C58.8509 3.54321 71.5035 16.1634 71.5035 31.7309Z" stroke="black" stroke-width="0.66559" stroke-miterlimit="10" stroke-linecap="round"></path><path d="M44.0278 28.4092L43.3096 18.751C43.3033 18.6624 43.1721 18.6624 43.1658 18.751L42.4477 28.4092C42.4149 28.8565 42.4678 29.3069 42.6042 29.7341L43.2388 31.7204L43.8734 29.7341C44.0098 29.3069 44.0627 28.8565 44.0299 28.4092H44.0278Z" fill="#0564FF"></path><path d="M38.4583 34.4524L27.811 45.9313C27.7126 46.0368 27.8554 46.1887 27.9675 46.099L40.1781 36.2889C40.7439 35.8343 41.2188 35.2773 41.5763 34.6476L43.2378 31.7214L40.1971 33.174C39.5424 33.4862 38.9523 33.9208 38.4594 34.4524H38.4583Z" fill="#0564FF"></path><path d="M43.2409 33.5115C44.2269 33.5115 45.0262 32.7143 45.0262 31.7309C45.0262 30.7475 44.2269 29.9503 43.2409 29.9503C42.2549 29.9503 41.4556 30.7475 41.4556 31.7309C41.4556 32.7143 42.2549 33.5115 43.2409 33.5115Z" fill="#0564FF"></path><path d="M43.2411 7.75106C43.7943 7.75106 44.2427 7.30382 44.2427 6.75212C44.2427 6.20042 43.7943 5.75317 43.2411 5.75317C42.6879 5.75317 42.2395 6.20042 42.2395 6.75212C42.2395 7.30382 42.6879 7.75106 43.2411 7.75106Z" fill="black"></path><path d="M43.2411 57.6887C43.7943 57.6887 44.2427 57.2414 44.2427 56.6897C44.2427 56.138 43.7943 55.6908 43.2411 55.6908C42.6879 55.6908 42.2395 56.138 42.2395 56.6897C42.2395 57.2414 42.6879 57.6887 43.2411 57.6887Z" fill="black"></path><path d="M68.2755 32.7193C68.8287 32.7193 69.2771 32.2721 69.2771 31.7204C69.2771 31.1687 68.8287 30.7214 68.2755 30.7214C67.7224 30.7214 67.2739 31.1687 67.2739 31.7204C67.2739 32.2721 67.7224 32.7193 68.2755 32.7193Z" fill="black"></path><path d="M18.2055 32.7193C18.7586 32.7193 19.207 32.2721 19.207 31.7204C19.207 31.1687 18.7586 30.7214 18.2055 30.7214C17.6523 30.7214 17.2039 31.1687 17.2039 31.7204C17.2039 32.2721 17.6523 32.7193 18.2055 32.7193Z" fill="black"></path><path d="M175.84 110.084H29.2175V124.288H175.84V110.084Z" fill="white"></path><path d="M29.2175 110.084H175.841" stroke="black" stroke-width="0.66559" stroke-miterlimit="10" stroke-linecap="round"></path><path d="M102.602 86.5693L96.7368 87.3151C95.3132 87.4966 94.0123 86.4923 93.8304 85.0715L92.7695 76.7772C92.5887 75.3574 93.5956 74.0599 95.0192 73.8785L100.885 73.1327L101.225 75.7983L97.6231 76.2572C96.1995 76.4375 95.1926 77.7361 95.3735 79.1559L95.7532 82.1179C95.934 83.5377 97.236 84.543 98.6596 84.3616L102.262 83.9037L102.602 86.5693Z" fill="#0564FF"></path><path d="M110.484 88.8868H101.266C100.524 88.8868 99.8981 88.3383 99.8029 87.6052L97.7183 71.582H114.032L111.948 87.6052C111.853 88.3383 111.227 88.8868 110.485 88.8868H110.484Z" fill="#0564FF"></path><path d="M110.484 88.8868H101.266C100.524 88.8868 99.8981 88.3383 99.8029 87.6052L97.7183 71.582H114.032L111.948 87.6052C111.853 88.3383 111.227 88.8868 110.485 88.8868H110.484Z" stroke="black" stroke-width="0.66559" stroke-miterlimit="10" stroke-linecap="round"></path><path d="M105.875 73.2909C110.38 73.2909 114.033 72.5258 114.033 71.582C114.033 70.6382 110.38 69.8732 105.875 69.8732C101.37 69.8732 97.7173 70.6382 97.7173 71.582C97.7173 72.5258 101.37 73.2909 105.875 73.2909Z" fill="black"></path><path d="M105.875 73.2909C110.38 73.2909 114.033 72.5258 114.033 71.582C114.033 70.6382 110.38 69.8732 105.875 69.8732C101.37 69.8732 97.7173 70.6382 97.7173 71.582C97.7173 72.5258 101.37 73.2909 105.875 73.2909Z" stroke="black" stroke-width="0.66559" stroke-miterlimit="10" stroke-linecap="round"></path><path d="M156.052 91.5504C156.594 91.7413 157.063 92.101 157.376 92.5831C157.555 92.8584 157.79 93.1601 158.065 93.3637C158.476 93.6675 159.881 96.2297 160.823 97.9987C161.405 99.0946 161.709 100.315 161.709 101.556V103.085C161.709 103.921 161.506 104.742 161.118 105.483C160.52 106.621 159.575 108.359 158.773 109.542C158.425 110.056 157.931 110.452 157.357 110.691C156.76 110.938 155.986 111.269 155.613 111.469C154.958 111.82 154.253 112.223 153.724 111.796C153.195 111.369 152.59 110.54 151.179 110.489C149.768 110.438 147.022 109.836 145.334 106.846C144.243 104.913 142.742 101.679 141.817 99.6326C141.191 98.2487 141.289 96.6474 142.079 95.3499C143.785 92.5461 147.774 88.64 156.053 91.5504H156.052Z" fill="#0564FF"></path><path d="M145.997 84.314C145.997 84.314 146.934 83.1695 147.848 83.5429C148.761 83.9163 150.629 86.4205 153.259 88.2623C155.888 90.103 157.732 91.1821 157.522 92.257C157.311 93.3319 155.812 98.565 153.47 100.434C151.317 102.153 146.608 102.054 145.044 100.792C144.76 100.563 144.402 100.449 144.037 100.455C143.318 100.468 142.215 100.457 141.734 100.294C141.2 100.112 141.047 99.5829 141.181 99.2601C141.22 99.1663 141.188 99.0576 141.105 98.9985C140.846 98.8139 140.284 98.4838 139.486 98.4004C138.362 98.2834 137.659 96.9374 139.86 92.5998C142.061 88.2623 145.998 84.314 145.998 84.314H145.997Z" fill="#CCDFFF"></path><path d="M145.997 84.314C145.997 84.314 146.934 83.1695 147.848 83.5429C148.761 83.9163 150.629 86.4205 153.259 88.2623C155.888 90.103 157.732 91.1821 157.522 92.257C157.311 93.3319 155.812 98.565 153.47 100.434C151.317 102.153 146.608 102.054 145.044 100.792C144.76 100.563 144.402 100.449 144.037 100.455C143.318 100.468 142.215 100.457 141.734 100.294C141.2 100.112 141.047 99.5829 141.181 99.2601C141.22 99.1663 141.188 99.0576 141.105 98.9985C140.846 98.8139 140.284 98.4838 139.486 98.4004C138.362 98.2834 137.659 96.9374 139.86 92.5998C142.061 88.2623 145.998 84.314 145.998 84.314H145.997Z" stroke="black" stroke-width="0.66559" stroke-miterlimit="10" stroke-linecap="round"></path><path d="M133.131 70.3669C134.174 70.2382 135.214 70.6253 135.918 71.4027C138.46 74.2107 144.669 81.0398 147.635 84.0166C148.056 84.4396 148.354 84.9691 148.492 85.5493C148.848 87.0313 149.312 89.9997 148.225 92.6621C147.059 95.5144 145.273 97.2085 143.675 97.891C143.004 98.1769 142.226 97.8973 141.875 97.2592L132.6 80.3805C131.509 78.3932 131.02 76.12 131.277 73.869C131.405 72.7445 131.711 71.6263 132.339 70.8141C132.532 70.5652 132.818 70.4048 133.131 70.3669Z" fill="white"></path><path d="M133.131 70.3669C134.174 70.2382 135.214 70.6253 135.918 71.4027C138.46 74.2107 144.669 81.0398 147.635 84.0166C148.056 84.4396 148.354 84.9691 148.492 85.5493C148.848 87.0313 149.312 89.9997 148.225 92.6621C147.059 95.5144 145.273 97.2085 143.675 97.891C143.004 98.1769 142.226 97.8973 141.875 97.2592L132.6 80.3805C131.509 78.3932 131.02 76.12 131.277 73.869C131.405 72.7445 131.711 71.6263 132.339 70.8141C132.532 70.5652 132.818 70.4048 133.131 70.3669Z" stroke="black" stroke-width="0.66559" stroke-miterlimit="10" stroke-linecap="round"></path><path d="M133.062 70.4006L119.569 71.1169C118.844 71.1549 118.211 71.6369 118.001 72.331C117.481 74.0462 117.486 77.5894 123.032 82.4723C123.637 83.005 124.472 83.1928 125.247 82.966L126.429 82.62C128.579 81.9903 130.649 81.1147 132.597 80.0103C134.789 78.7677 136.116 76.3869 135.927 73.8806C135.884 73.3194 135.771 72.7245 135.563 72.099C135.21 71.0357 134.184 70.3426 133.063 70.4017L133.062 70.4006Z" fill="white"></path><path d="M135.041 77.6168C134.461 78.5947 133.624 79.428 132.597 80.0103C130.649 81.1158 128.579 81.9913 126.429 82.62L125.247 82.966C124.472 83.1928 123.637 83.0039 123.032 82.4723C117.486 77.5894 117.481 74.0462 118.001 72.331C118.211 71.6369 118.844 71.1559 119.569 71.1169L133.062 70.4006L133.787 70.3531" stroke="black" stroke-width="0.66559" stroke-miterlimit="10" stroke-linecap="round"></path><path d="M119.242 71.1168C118.568 71.1168 117.903 71.2835 117.308 71.601L112.209 74.3215C111.608 74.6421 111.064 75.0556 110.594 75.5472L107.995 78.2687C107.604 78.679 107.31 79.1727 107.138 79.7117L106.522 81.6294C106.355 82.1505 106.651 82.7054 107.177 82.8583C107.588 82.9786 108.03 82.8161 108.265 82.4586L109.177 81.0725C109.386 80.7539 109.661 80.4839 109.984 80.2792L118.961 74.5894C118.961 74.5894 120.744 73.6421 119.725 71.4259C119.638 71.2381 119.45 71.1168 119.242 71.1168Z" fill="white"></path><path d="M118.962 74.5905L109.985 80.2803C109.662 80.485 109.387 80.755 109.178 81.0736L108.266 82.4596C108.031 82.8172 107.589 82.9797 107.178 82.8594C106.652 82.7065 106.356 82.1506 106.523 81.6305L107.139 79.7128C107.312 79.1738 107.605 78.6801 107.996 78.2698L110.595 75.5483C111.065 75.0567 111.609 74.6432 112.21 74.3225L117.309 71.6021C117.904 71.2846 118.569 71.1179 119.243 71.1179C119.259 71.1179 119.276 71.1179 119.292 71.12C119.368 71.1274 119.444 71.1327 119.52 71.1264L119.634 71.1179" stroke="black" stroke-width="0.66559" stroke-miterlimit="10" stroke-linecap="round"></path><path d="M119.782 78.5145L115.601 82.3025C115.049 82.8025 114.601 83.4048 114.279 84.0757L111.98 88.8805C111.705 89.4544 111.065 89.7561 110.446 89.6042C109.678 89.4153 109.239 88.6073 109.501 87.8626L111.491 82.1738C111.736 81.4734 112.1 80.8204 112.569 80.2445L117.878 73.7055C118.118 73.4101 118.496 73.2603 118.872 73.3162C119.874 73.4671 121.535 74.2382 120.224 77.8637C120.133 78.1137 119.981 78.3363 119.783 78.5145H119.782Z" fill="white"></path><path d="M120.223 77.8637C120.132 78.1137 119.98 78.3363 119.782 78.5145L115.601 82.3025C115.049 82.8025 114.601 83.4048 114.279 84.0757L111.98 88.8805C111.705 89.4544 111.065 89.7561 110.446 89.6042C109.678 89.4153 109.239 88.6073 109.501 87.8626L111.491 82.1738C111.736 81.4734 112.1 80.8204 112.569 80.2445L117.878 73.7055C118.118 73.4101 118.496 73.2603 118.872 73.3162" stroke="black" stroke-width="0.66559" stroke-miterlimit="10" stroke-linecap="round"></path><path d="M121.712 81.1317L118.915 84.6696C118.39 85.3331 118.182 85.7466 118.061 86.1886L117.008 90.0494C116.863 90.5821 116.331 90.9133 115.787 90.8099C115.235 90.7044 114.862 90.1886 114.937 89.6327L115.526 85.2266C115.657 84.2477 115.99 83.3057 116.504 82.4608L119.253 77.9471C119.424 77.6654 119.721 77.4787 120.05 77.4576C120.798 77.4081 122.059 77.6159 122.212 79.5178C122.259 80.0979 122.074 80.6739 121.712 81.1306V81.1317Z" fill="white"></path><path d="M121.712 81.1318L118.915 84.6698C118.39 85.3333 118.182 85.7468 118.061 86.1887L117.008 90.0495C116.863 90.5822 116.331 90.9134 115.787 90.81C115.235 90.7045 114.862 90.1887 114.937 89.6328L115.526 85.2267C115.657 84.2478 115.99 83.3058 116.504 82.4609L119.253 77.9472C119.424 77.6656 119.721 77.4789 120.05 77.4578" stroke="black" stroke-width="0.66559" stroke-miterlimit="10" stroke-linecap="round"></path><path d="M124.886 83.085C124.315 83.354 123.82 83.7591 123.442 84.2644L119.31 89.7991C119.016 90.1926 118.48 90.3139 118.045 90.0871C117.593 89.8508 117.393 89.3118 117.58 88.8382L118.441 86.6641C118.805 85.7443 119.267 84.8656 119.819 84.0428L122.105 80.6357C122.352 80.2665 122.817 80.1061 123.239 80.2486C124.04 80.5175 125.171 81.1926 125.047 82.8509C125.04 82.9521 124.979 83.0418 124.887 83.0861L124.886 83.085Z" fill="white"></path><path d="M123.237 80.2486C122.815 80.1061 122.35 80.2665 122.102 80.6357L119.817 84.0428C119.266 84.8646 118.804 85.7433 118.439 86.6641L117.578 88.8382C117.391 89.3118 117.59 89.8508 118.043 90.0871C118.479 90.315 119.015 90.1926 119.308 89.7991L123.44 84.2644C123.818 83.7591 124.313 83.354 124.884 83.085L125.305 82.9479" stroke="black" stroke-width="0.66559" stroke-miterlimit="10" stroke-linecap="round"></path><path d="M54.2149 92.7549C54.1991 92.3635 53.977 92.0049 53.6269 91.8276C52.8664 91.4426 51.3434 91.0017 49.0843 91.8603C48.1292 92.2232 47.4111 92.6916 46.8854 93.1367C46.2032 93.7137 45.721 94.4901 45.5041 95.3561C45.2545 96.354 44.6168 98.2707 43.0282 100.899C40.6273 104.874 38.713 107.104 41.3423 110.529C43.1815 112.925 48.6993 113.28 50.3334 112.771C51.4397 112.426 53.1531 111.56 54.143 111.036C54.6211 110.784 54.9109 110.28 54.8897 109.741L54.2139 92.7549H54.2149Z" fill="#0564FF"></path><path d="M54.2149 92.7549C54.1991 92.3635 53.977 92.0049 53.6269 91.8276C52.8664 91.4426 51.3434 91.0017 49.0843 91.8603C48.1292 92.2232 47.4111 92.6916 46.8854 93.1367C46.2032 93.7137 45.721 94.4901 45.5041 95.3561C45.2545 96.354 44.6168 98.2707 43.0282 100.899C40.6273 104.874 38.713 107.104 41.3423 110.529C43.1815 112.925 48.6993 113.28 50.3334 112.771C51.4397 112.426 53.1531 111.56 54.143 111.036C54.6211 110.784 54.9109 110.28 54.8897 109.741L54.2139 92.7549H54.2149Z" stroke="black" stroke-width="0.66559" stroke-miterlimit="10" stroke-linecap="round"></path><path d="M60.8642 90.3963C60.8642 90.3963 61.1233 89.16 60.4898 88.9006C59.9176 88.6664 55.1381 91.2687 51.2016 92.4965C50.0931 92.8425 49.1212 93.5345 48.458 94.4849C47.5738 95.7528 46.5627 97.8214 46.2158 100.923C45.6203 106.239 47.7187 110.628 51.3634 111.579C52.0805 111.765 52.8409 111.679 53.4998 111.341C55.2841 110.427 59.5422 108.271 62.0477 107.222C65.2778 105.87 65.6818 104.49 64.9319 102.505C64.9319 102.505 59.8848 99.4849 60.8653 90.3963H60.8642Z" fill="#CCDFFF"></path><path d="M60.8642 90.3963C60.8642 90.3963 61.1233 89.16 60.4898 88.9006C59.9176 88.6664 55.1381 91.2687 51.2016 92.4965C50.0931 92.8425 49.1212 93.5345 48.458 94.4849C47.5738 95.7528 46.5627 97.8214 46.2158 100.923C45.6203 106.239 47.7187 110.628 51.3634 111.579C52.0805 111.765 52.8409 111.679 53.4998 111.341C55.2841 110.427 59.5422 108.271 62.0477 107.222C65.2778 105.87 65.6818 104.49 64.9319 102.505C64.9319 102.505 59.8848 99.4849 60.8653 90.3963H60.8642Z" stroke="black" stroke-width="0.66559" stroke-miterlimit="10" stroke-linecap="round"></path><path d="M80.8359 77.4017L61.4344 89.3616C60.8866 89.6991 60.4434 90.1801 60.1504 90.7529C59.2165 92.582 57.4989 96.8309 59.3477 100.562C60.5344 102.957 62.2033 103.498 63.3255 103.555C63.976 103.587 64.6137 103.367 65.1129 102.949L85.2929 86.0557C86.6858 84.8901 87.4769 83.1369 87.3532 81.3278C87.2643 80.0367 86.7228 78.6306 85.1649 77.5241C83.883 76.6137 82.1728 76.5768 80.8349 77.4017H80.8359Z" fill="white"></path><path d="M80.8358 77.4016L80.1494 77.736L61.4354 89.3625C60.8875 89.7001 60.4444 90.1811 60.1514 90.7539C59.2175 92.583 57.4999 96.8319 59.3487 100.563C60.5354 102.958 62.2043 103.499 63.3265 103.556C63.9769 103.588 64.6147 103.368 65.1139 102.95L82.453 88.4343L85.2938 86.0566C86.6868 84.891 87.4779 83.1379 87.3541 81.3288C87.2653 80.0377 86.7238 78.6316 85.1659 77.525C83.884 76.6147 82.1738 76.5778 80.8358 77.4027V77.4016Z" stroke="black" stroke-width="0.66559" stroke-miterlimit="10" stroke-linecap="round"></path><path d="M97.735 80.0967H95.5065L97.79 80.3805C98.2501 80.4375 98.6054 80.8109 98.6393 81.2718L98.6752 81.7592C98.7112 82.2381 98.3897 82.6706 97.9201 82.7771L94.2373 83.6094C94.1876 83.621 94.1961 83.6948 94.2479 83.6948H96.9269C97.3881 83.6948 97.7879 84.0155 97.8862 84.4649C97.901 84.5334 97.9084 84.6031 97.9084 84.6716C97.9084 84.8604 97.8545 85.0461 97.7498 85.2064C97.5055 85.5809 97.1861 85.8921 96.8148 86.1241C96.4447 86.3562 96.0237 86.5081 95.5795 86.5651L92.194 86.9965C91.7074 87.0577 91.2389 87.2201 90.819 87.4722L89.5023 88.2613C88.1939 89.0461 86.654 89.3551 85.1437 89.1389L84.1611 88.9986C82.5292 88.7644 81.0866 87.8024 80.27 86.3741C79.4081 84.8657 78.6127 82.7233 78.9565 80.2645C79.077 79.4016 79.4419 78.5904 79.9982 77.9185L83.2114 74.043C84.3388 72.6833 86.0258 71.9069 87.7952 71.9333L91.4462 71.9892C91.9274 71.9966 92.3991 72.1189 92.8212 72.3468L94.9893 73.5113C95.3965 73.7307 95.6504 74.1548 95.6504 74.6157V74.6843L96.3759 74.9765C96.891 75.1854 97.2284 75.6843 97.2284 76.2392C97.2284 76.6147 97.0761 76.9554 96.8286 77.2012C96.7471 77.2824 96.6551 77.3531 96.5546 77.4111L98.0153 77.8214C98.4362 77.9396 98.7165 78.3341 98.689 78.7687L98.6594 79.2318C98.6287 79.718 98.2236 80.0967 97.735 80.0967Z" fill="white"></path><path d="M79.9983 77.9185L83.2114 74.043C84.3389 72.6833 86.0258 71.9069 87.7953 71.9333L91.4463 71.9892C91.9275 71.9966 92.3992 72.1189 92.8212 72.3468L94.9894 73.5113C95.3966 73.7307 95.6504 74.1548 95.6504 74.6157V74.6843L96.376 74.9765C96.891 75.1854 97.2284 75.6843 97.2284 76.2392C97.2284 76.6147 97.0761 76.9554 96.8286 77.2012C96.7472 77.2824 96.6552 77.3531 96.5547 77.4111L98.0153 77.8214C98.4363 77.9396 98.7165 78.3341 98.689 78.7687L98.6594 79.2318C98.6288 79.718 98.2237 80.0967 97.735 80.0967H95.5066L97.79 80.3805C98.2501 80.4375 98.6055 80.8109 98.6393 81.2718L98.6753 81.7592C98.7113 82.2381 98.3897 82.6706 97.9201 82.7771L94.2374 83.6094C94.1877 83.621 94.1962 83.6948 94.248 83.6948H96.927C97.3881 83.6948 97.7879 84.0155 97.8863 84.4649C97.9011 84.5334 97.9085 84.6031 97.9085 84.6716C97.9085 84.8604 97.8546 85.0461 97.7498 85.2064C97.5055 85.5809 97.1861 85.8921 96.8149 86.1241C96.4447 86.3562 96.0238 86.5081 95.5796 86.5651L92.194 86.9965C91.7075 87.0577 91.239 87.2201 90.8191 87.4722L89.5023 88.2613C88.194 89.0461 86.6541 89.3551 85.1438 89.1389L84.1612 88.9986C82.5292 88.7644 81.0866 87.8024 80.2701 86.3741" stroke="black" stroke-width="0.66559" stroke-miterlimit="10" stroke-linecap="round"></path><path d="M85.9094 73.5071L89.0168 72.6411C89.6186 72.4734 90.2595 72.5093 90.8391 72.7434L95.6504 74.6844" stroke="black" stroke-width="0.66559" stroke-miterlimit="10" stroke-linecap="round"></path><path d="M95.5065 80.0967H92.6509" stroke="black" stroke-width="0.66559" stroke-miterlimit="10" stroke-linecap="round"></path><path d="M96.5546 77.411L91.8618 76.0935" stroke="black" stroke-width="0.66559" stroke-miterlimit="10" stroke-linecap="round"></path><path d="M81.461 119.981C81.461 120.234 81.2886 120.463 81.0326 120.527L54.3439 127.235C53.6395 127.412 52.9076 127.448 52.1884 127.342L11.5303 121.316C11.1327 121.257 10.8058 120.971 10.6948 120.586L0.178596 84.0166C0.0834074 83.6854 0.346762 83.3615 0.690497 83.3858L43.1519 86.3299C43.6416 86.3636 44.0541 86.7075 44.1736 87.1822L51.6088 116.584L53.9261 125.749C53.9759 125.943 54.1715 126.061 54.3661 126.013L81.1934 119.502C81.3224 119.581 81.4176 119.712 81.4493 119.868C81.4567 119.906 81.461 119.944 81.461 119.981Z" fill="#F8FF6E"></path><path d="M81.461 119.981C81.461 120.234 81.2886 120.463 81.0326 120.527L54.3439 127.235C53.6395 127.412 52.9076 127.448 52.1884 127.342L11.5303 121.316C11.1327 121.257 10.8058 120.971 10.6948 120.586L0.178596 84.0166C0.0834074 83.6854 0.346762 83.3615 0.690497 83.3858L43.1519 86.3299C43.6416 86.3636 44.0541 86.7075 44.1736 87.1822L51.6088 116.584L53.9261 125.749C53.9759 125.943 54.1715 126.061 54.3661 126.013L81.1934 119.502C81.3224 119.581 81.4176 119.712 81.4493 119.868C81.4567 119.906 81.461 119.944 81.461 119.981Z" stroke="black" stroke-width="0.66559" stroke-miterlimit="10" stroke-linecap="round"></path><path d="M81.1934 119.502L54.3662 126.013C54.1716 126.061 53.9759 125.943 53.9262 125.749L53.7654 125.111L52.5058 120.13L51.6089 116.584L80.9491 119.419C81.0379 119.428 81.1215 119.456 81.1934 119.502Z" fill="#CCDFFF"></path><path d="M64.5226 122.35L53.7653 125.111L52.5056 120.13L64.4993 121.9C64.7468 121.937 64.7659 122.288 64.5226 122.35Z" fill="#0564FF"></path><path d="M81.1934 119.502L54.3662 126.013C54.1716 126.061 53.9759 125.943 53.9262 125.749L53.7654 125.111L52.5058 120.13L51.6089 116.584L80.9491 119.419C81.0379 119.428 81.1215 119.456 81.1934 119.502Z" stroke="black" stroke-width="0.66559" stroke-miterlimit="10" stroke-linecap="round"></path></g><defs><clipPath id="clip0_5412_17969"><rect width="176" height="127.56" fill="white"></rect></clipPath></defs></svg>